ply
format ascii 1.0
comment VCGLIB generated
comment TextureFile ../textures/boo.bmp
element vertex 91
property float x
property float y
property float z
property float nx
property float ny
property float nz
property float texture_u
property float texture_v
element face 62
property list uchar int vertex_indices
end_header
-100.6753 -53.90088 -64.966 -313.8854 -131.1785 -210.4001 0.626076 0.670779
-73.81946 -76.68666 108.2047 -254.2903 -201.5767 233.8874 0.925267 0.670779
-45.46347 -99.03731 -64.43274 -117.8274 -346.4207 -161.5842 0.925267 0.670779
51.7771 -99.93248 -60.79108 123.1899 -348.6419 -152.5551 0.626076 0.670779
-59.75592 -116.7506 28.74142 -163.1076 -365.1877 5.822108 0.925267 0.969970
58.73058 -117.8414 33.17906 155.4161 -368.1364 17.93047 0.925267 0.670779
110.7402 -64.82904 34.16924 239.0612 -297.0245 120.9389 0.925267 0.670779
67.54726 -77.98808 113.4994 231.6228 -206.2158 252.638 0.925267 0.670779
-48.71231 84.67432 111.3022 -168.9245 266.2757 246.093 0.626076 0.670779
-34.21876 117.8414 38.41818 -112.5249 382.5829 31.12067 0.925267 0.670779
36.87318 117.1869 41.08066 116.9017 380.4693 39.71378 0.925267 0.969970
45.25984 83.80927 114.8219 154.8793 263.005 258.5359 0.925267 0.969970
102.7739 67.49722 39.1501 322.8425 229.5058 55.67612 0.925267 0.670779
103.5359 44.30952 -52.45604 320.5262 164.0234 -174.2392 0.925267 0.670779
38.30196 99.78636 -45.05162 129.0433 342.4923 -161.3904 0.925267 0.969970
-90.37543 0.18324 110.3518 -297.0982 31.31238 265.993 0.626076 0.670779
-127.0139 -4.16148 38.72178 -384.5392 66.71564 87.62781 0.925267 0.969970
-110.7071 -62.7904 25.87528 -252.8636 -292.4898 102.517 0.925267 0.670779
-163.0211 -54.66434 26.24454 -364.4232 -121.7369 111.2469 0.925267 0.670779
85.3115 -1.43412 116.9317 276.3996 25.97141 287.9736 0.925267 0.670779
127.1192 -6.50098 48.23968 378.0715 59.67548 116.1929 0.925267 0.969970
163.0211 -57.66586 38.45592 352.779 -128.3459 138.1098 0.925267 0.670779
-100.696 69.37038 31.52972 -321.8194 235.4533 31.52901 0.925267 0.969970
107.6975 -55.81914 -57.16198 326.2736 -137.0861 -186.4215 0.626076 0.670779
7.391863 26.64174 -155.4932 14.32605 131.8603 -377.3694 0.925267 0.969970
5.976523 52.52518 -111.3248 11.03046 325.9859 -231.5417 0.925267 0.670779
42.84428 -60.15036 -118.3677 158.4751 -188.827 -315.008 0.925267 0.969970
-31.5163 -59.4658 -121.1531 -137.8793 -186.5763 -325.8506 0.925267 0.969970
-95.03101 46.1375 -59.89276 -303.7959 169.7249 -197.2347 0.925267 0.670779
-29.52134 100.4107 -47.59174 -110.2227 344.9019 -169.9814 0.925267 0.670779
-4.253196 27.03872 155.4932 -14.68146 85.27617 390.5284 0.626076 0.670779
-3.972336 -108.3003 114.6183 -11.99809 -335.0089 218.2317 0.626076 0.670779
-4.898517 -56.68468 152.0735 -16.14565 -115.509 382.6186 0.051698 0.525493
-110.7071 -62.7904 25.87528 -252.8636 -292.4898 102.517 0.626076 0.670779
58.73058 -117.8414 33.17906 155.4161 -368.1364 17.93047 0.925267 0.969970
-59.75592 -116.7506 28.74142 -163.1076 -365.1877 5.822108 0.925267 0.670779
-59.75592 -116.7506 28.74142 -163.1076 -365.1877 5.822108 0.626076 0.670779
-3.972336 -108.3003 114.6183 -11.99809 -335.0089 218.2317 0.925267 0.969970
-100.6753 -53.90088 -64.966 -313.8854 -131.1785 -210.4001 0.925267 0.969970
-45.46347 -99.03731 -64.43274 -117.8274 -346.4207 -161.5842 0.626076 0.670779
51.7771 -99.93248 -60.79108 123.1899 -348.6419 -152.5551 0.925267 0.670779
51.7771 -99.93248 -60.79108 123.1899 -348.6419 -152.5551 0.925267 0.969970
42.84428 -60.15036 -118.3677 158.4751 -188.827 -315.008 0.925267 0.670779
58.73058 -117.8414 33.17906 155.4161 -368.1364 17.93047 0.626076 0.670779
107.6975 -55.81914 -57.16198 326.2736 -137.0861 -186.4215 0.925267 0.969970
110.7402 -64.82904 34.16924 239.0612 -297.0245 120.9389 0.925267 0.969970
36.87318 117.1869 41.08066 116.9017 380.4693 39.71378 0.626076 0.670779
-48.71231 84.67432 111.3022 -168.9245 266.2757 246.093 0.925267 0.969970
45.25984 83.80927 114.8219 154.8793 263.005 258.5359 0.925267 0.670779
102.7739 67.49722 39.1501 322.8425 229.5058 55.67612 0.626076 0.670779
36.87318 117.1869 41.08066 116.9017 380.4693 39.71378 0.925267 0.670779
38.30196 99.78636 -45.05162 129.0433 342.4923 -161.3904 0.626076 0.670779
102.7739 67.49722 39.1501 322.8425 229.5058 55.67612 0.925267 0.969970
103.5359 44.30952 -52.45604 320.5262 164.0235 -174.2392 0.925267 0.969970
-34.21876 117.8414 38.41818 -112.5249 382.5829 31.12067 0.626076 0.670779
-29.52134 100.4107 -47.59174 -110.2227 344.9019 -169.9814 0.626076 0.670779
-73.81946 -76.68666 108.2047 -254.2903 -201.5767 233.8874 0.626076 0.670779
-110.7071 -62.7904 25.87528 -252.8636 -292.4898 102.517 0.925267 0.969970
-90.37543 0.18324 110.3518 -297.0982 31.31238 265.993 0.925267 0.670779
-127.0139 -4.16148 38.72178 -384.5392 66.71564 87.62781 0.626076 0.670779
-90.37543 0.18324 110.3518 -297.0982 31.31238 265.993 0.925267 0.969970
-100.696 69.37038 31.52972 -321.8194 235.4533 31.52901 0.925267 0.670779
127.1192 -6.50098 48.23968 378.0715 59.67548 116.1929 0.626076 0.670779
127.1192 -6.50098 48.23968 378.0715 59.67548 116.1929 0.925267 0.670779
110.7402 -64.82904 34.16924 239.0612 -297.0245 120.9389 0.626076 0.670779
-48.71231 84.67432 111.3022 -168.9245 266.2757 246.093 0.925267 0.670779
42.84428 -60.15036 -118.3677 158.4751 -188.827 -315.008 0.626076 0.670779
107.6975 -55.81914 -57.16198 326.2736 -137.0861 -186.4215 0.925267 0.670779
103.5359 44.30952 -52.45604 320.5262 164.0235 -174.2392 0.626076 0.670779
7.391863 26.64174 -155.4932 14.32605 131.8603 -377.3694 0.925267 0.670779
7.391863 26.64174 -155.4932 14.32605 131.8603 -377.3694 0.626076 0.670779
-95.03101 46.1375 -59.89276 -303.7959 169.7249 -197.2347 0.925267 0.969970
5.976523 52.52518 -111.3248 11.03046 325.9859 -231.5417 0.925267 0.969970
-45.46347 -99.03731 -64.43274 -117.8274 -346.4207 -161.5842 0.925267 0.969970
-31.5163 -59.4658 -121.1531 -137.8793 -186.5763 -325.8506 0.925267 0.670779
-100.6753 -53.90088 -64.966 -313.8854 -131.1785 -210.4001 0.925267 0.670779
-95.03101 46.1375 -59.89276 -303.7959 169.7249 -197.2347 0.626076 0.670779
-31.5163 -59.4658 -121.1531 -137.8793 -186.5763 -325.8506 0.626076 0.670779
67.54726 -77.98808 113.4994 231.6228 -206.2158 252.638 0.925267 0.969970
67.54726 -77.98808 113.4994 231.6228 -206.2158 252.638 0.626076 0.670779
-4.253196 27.03872 155.4932 -14.68146 85.27617 390.5284 0.519283 0.296212
-48.71231 84.67432 111.3022 -168.9245 266.2757 246.093 0.676795 0.051698
-90.37543 0.18324 110.3518 -297.0982 31.31238 265.993 0.061938 0.208323
85.3115 -1.43412 116.9317 276.3996 25.97141 287.9736 0.676829 0.532024
45.25984 83.80927 114.8219 154.8793 263.005 258.5359 1.005759 0.225240
67.54726 -77.98808 113.4994 231.6228 -206.2158 252.638 0.435127 0.865908
-4.898517 -56.68468 152.0735 -16.14565 -115.509 382.6186 0.263338 0.726969
-3.972336 -108.3003 114.6183 -11.99809 -335.0089 218.2317 0.263338 0.948302
-73.81946 -76.68666 108.2047 -254.2903 -201.5767 233.8874 0.092626 0.865908
85.3115 -1.43412 116.9317 276.3996 25.97141 287.9736 0.476054 0.635420
-90.37543 0.18324 110.3518 -297.0982 31.31238 265.993 0.051698 0.635420
3 0 4 17 
3 31 4 5 
3 33 4 1 
3 3 4 2 
3 3 34 35 
3 36 37 1 
3 36 38 2 
3 39 26 40 
3 23 41 42 
3 23 34 40 
3 43 44 6 
3 43 45 7 
3 31 34 7 
3 8 10 9 
3 46 14 9 
3 46 11 12 
3 46 47 48 
3 49 14 50 
3 51 52 13 
3 51 53 25 
3 54 14 29 
3 55 14 25 
3 56 16 17 
3 15 16 1 
3 0 57 18 
3 8 22 58 
3 59 60 61 
3 0 16 28 
3 59 22 28 
3 59 38 18 
3 33 16 18 
3 23 20 21 
3 62 52 19 
3 62 53 12 
3 62 45 21 
3 23 53 63 
3 64 44 21 
3 55 22 9 
3 54 22 65 
3 66 53 67 
3 68 24 25 
3 68 26 69 
3 70 71 25 
3 55 72 28 
3 66 27 69 
3 66 73 74 
3 27 75 76 
3 39 38 74 
3 77 71 69 
3 76 22 29 
3 30 11 65 
3 49 11 19 
3 62 78 6 
3 79 20 19 
3 80 81 82 
3 32 80 82 
3 32 83 80 
3 84 80 83 
3 85 86 87 
3 86 88 87 
3 89 86 85 
3 86 90 88 
