ply
format ascii 1.0
comment VCGLIB generated
element vertex 284
property float x
property float y
property float z
property float nx
property float ny
property float nz
element face 564
property list uchar int vertex_indices
end_header
-1.523163 64.52 8.13 -1.347201 4.685709 3.66282 
-6.853149 65.27998 -0 -2.090171 5.740132 -2.980232e-08 
31.74684 100.08 0 -2.540956 3.480793 1.490116e-07 
39.36685 98.80998 6.1 -1.217729 2.65087 4.831888 
64.76685 116.0799 0 -1.16092 3.648527 -2.384186e-07 
68.07684 113.04 3.56 -0.3502316 2.530787 5.172039 
96.26685 118.37 -0 0.3310788 2.670884 1.192093e-07 
98.04684 114.05 2.06233 0.6046224 1.426451 5.851806 
114.2968 113.54 -0 0.5641806 0.4330874 0 
96.77684 54.86998 6.517095 2.688369 3.186421 4.508019 
96.26685 72.90001 0 2.12645 1.014904 -2.980232e-07 
106.9368 48.00999 0 3.676748 4.639004 1.192093e-07 
57.14685 62.73997 11.68 0.6395503 2.688107 5.418927 
72.13684 84.08 6.633346 1.019812 0.6040509 6.122611 
82.80685 95.75999 4.012878 0.816054 0.171843 6.205272 
-173.3962 -11.11204 -0 -3.972184 4.650505 -5.960464e-08 
-179.3596 -18.51365 7.62 -4.107936 2.746572 2.803874 
-184.7376 -21.88988 -0 -4.622837 2.181606 -3.72529e-08 
-154.6222 3.132233 -0 -3.451133 5.086462 1.676381e-07 
-158.9449 -2.880463 13.97 -3.52912 3.951957 2.629865 
-132.6646 15.83762 5.33 -3.160524 5.208135 1.52902 
-91.58301 40.96202 -0 -2.522936 5.425775 0 
-93.10382 34.97737 18.29 -2.302571 4.622544 2.974785 
-131.827 13.72096 13.97 -3.04917 5.082314 2.019329 
-47.35538 57.93788 -0 -1.650645 5.800692 0 
-48.55493 52.67918 22.35 -1.094949 4.269329 3.273634 
-4.573151 49.53999 24.64 -0.06293526 3.955432 4.803755 
53.59685 48.00999 26.67 0.6444272 3.293314 5.008308 
109.7268 36.06999 20.32 1.615433 3.931874 4.315243 
164.5977 24.16576 11.68 1.661546 4.822568 3.294569 
164.3093 28.40697 0 1.701646 5.674059 -1.192093e-07 
205.3376 15.53769 0 1.843313 4.740812 -5.960464e-08 
204.6789 3.807053 14.73 1.850063 3.596706 4.641777 
229.9593 6.926483 0 1.802837 3.889399 0 
230.8715 -8.854462 11.94 1.808302 2.224845 5.41184 
253.4436 -2.321793 0 1.594771 3.154006 -1.192093e-07 
255.2799 -16.97031 7.87 0.5652893 2.855635 5.445546 
272.0586 -11.21724 0 1.7765 3.740036 1.788139e-07 
274.1086 -20.24117 9.65 2.292964 4.168988 3.55658 
284.51 -24.59681 0 4.008134 4.214989 0 
281.0518 -26.84312 9.375875 3.256734 4.658035 2.544506 
-134.8842 7.603134 22.35 -2.64217 4.507002 3.333318 
-118.7851 4.991013 32.77 -1.536203 3.347533 4.98037 
-87.93243 20.52956 31.70523 -1.483578 3.291263 5.10443 
-49.60266 33.91145 32 -0.6768821 3.049581 5.43962 
-4.573151 31.75999 35.81 -0.0404646 3.033613 5.483191 
45.97684 30.48997 34.04 0.5676957 2.51353 5.723871 
106.4268 22.60997 28.45 1.016978 3.130338 5.348662 
164.2561 16.56985 18.29 1.479212 3.648275 4.876575 
-131.4974 -6.947311 36.58 -1.760805 1.095693 5.393984 
-141.4966 -4.591209 31.75 -2.616106 1.892611 4.507751 
-149.6792 -11.04578 27.43 -3.197617 1.748964 4.9606 
-167.2928 -26.66084 20.83 -4.003613 2.367741 4.206473 
-182.6414 -39.65448 10.16 -4.611937 2.267308 3.50111 
-130.0458 -17.01208 35.81 -1.770419 0.230913 5.985604 
-140.5706 -11.80264 30.99 -2.530651 0.0696667 5.610127 
-185.0463 -47.10091 13.97 -3.470851 1.439392 4.382346 
-179.009 -57.28585 14.99 -2.050327 -0.3658882 5.855488 
-207.502 -78.11794 7.37 -1.137682 -1.059958 6.074506 
-212.3748 -75.41514 7.37 -2.558239 0.7641101 4.437459 
-217.5038 -78.81209 4.06 -3.977094 0.1338145 2.667972 
-218.6436 -77.19215 -0 -4.350717 1.18781 1.490116e-08 
-192.4962 -47.75626 -0 -5.182332 3.312617 2.980232e-08 
-189.5161 -45.70598 5.08 -4.878717 2.768198 2.702504 
-151.5819 -24.64492 30.48 -1.60309 0.8296012 5.871943 
-143.5855 -17.41225 30.73 -2.260163 1.257505 5.678107 
-150.7972 -27.51979 30.73 -2.075934 0.6968479 5.847007 
-164.5894 -30.95947 26.42 -2.806821 0.6477984 4.896086 
-161.7422 -36.54444 25.91 -2.262983 -1.006033 5.744445 
-175.5276 -61.39826 16.26 -2.741668 0.5316386 5.460496 
-201.2574 -79.65031 8.38 -1.919897 0.2734609 5.801795 
-156.0699 -47.98344 27.04717 -2.789812 -0.6387445 5.583676 
-145.9485 -33.53195 34.54 -1.807062 -0.003964365 5.600385 
-123.8187 -43.26791 34.8 -1.0485 -2.334136 5.722855 
-154.0007 -53.75459 27.43 -1.424204 -1.802701 5.642304 
-140.4437 -28.63096 34.8 -1.718752 1.194915 5.906659 
-137.6539 -19.69126 34.54 -2.011016 1.162339 5.710197 
-124.8745 -31.45993 38.61 -1.659434 -0.6384676 5.922383 
-174.4335 -66.58667 18.29 -2.195808 -0.2070716 5.65143 
-197.6923 -82.75619 10.92 -0.9675671 -1.323094 5.121286 
-151.7325 -75.6075 17.02 -0.5552391 -4.202911 3.195157 
-115.5171 -69.19439 22.35 0.05886173 -4.707264 3.146915 
-169.2661 -74.92321 10.16 0.7260568 -5.228004 3.092856 
-174.22 -70.17667 17.27 0.3799491 -3.214358 5.003988 
-85.39764 -50.28358 43.18 -2.043262 -1.402766 5.381235 
-84.45435 -60.30612 35.05 -0.3063484 -5.306873 2.53565 
-120.4849 -30.80115 40.39 -1.53187 -0.6749116 5.688661 
-79.86481 -20.40913 49.28 -0.9016039 0.1469962 5.96175 
-113.95 -13.50288 40.13 -1.029752 0.8361804 6.087317 
-111.8611 -0.681808 36.58 -1.084343 2.26401 5.750579 
-81.19751 3.403015 42.67 -1.252367 2.228382 5.668245 
-49.00662 10.41141 46.23 -0.581959 2.195965 5.678023 
-39.19025 -15.64094 51.05 -0.1046903 -0.2896921 6.107931 
-0.003174 6.529009 48.01 0.1307867 1.768867 5.923884 
5.076843 -18.78999 51.05 0.1693012 -0.746011 6.02571 
48.00685 5.089981 46.23 0.4346884 1.824428 5.884834 
50.03685 -18.53999 49.02 0.2392366 -0.6092007 6.089098 
103.8868 -1.010025 43.94 0.8400532 1.73953 5.674814 
103.3768 -27.93001 44.7 0.9139056 -1.459375 5.727483 
162.7132 -4.686424 33.02 1.380986 1.216101 5.520472 
161.4177 -29.19355 28.45 1.193802 -2.002698 5.777998 
201.1734 -11.47618 23.37 1.662295 0.9292111 5.720708 
199.0702 -36.01879 21.84 1.174051 -2.274696 5.279422 
228.4615 -21.14399 13.97 1.629977 0.2051093 6.054753 
226.7552 -36.33063 14.22 1.139461 -1.874556 5.61198 
248.4611 -25.74372 9.91 -0.1170739 0.8366969 6.047974 
244.9365 -38.09956 10.67 -0.3433324 -1.584377 5.870674 
272.5167 -27.82566 18.29 0.178006 3.727634 4.394645 
-46.20822 -47.93071 41.15 0.8010083 -3.624299 4.14121 
6.606842 -52.83 37.59 0.0273059 -4.135058 3.874778 
47.2407 -51.72131 38.1 0.1496866 -3.944537 3.952291 
98.29458 -53.79565 30.99 0.6286817 -4.486255 3.396076 
159.8931 -50.21146 17.27 0.7750811 -4.604783 3.546478 
198.8694 -48.77163 9.65 0.843686 -4.953732 3.587965 
225.2173 -46.75587 7.11 0.5422931 -4.49631 4.161156 
255.5049 -47.8636 5.59 -0.5262164 -5.31283 2.825852 
269.553 -46.43898 14.40978 -0.9788782 -5.148077 1.888177 
-59.38708 -63.49491 73.66 -2.027414 1.11261 3.104299 
-60.37555 -65.28902 71.37 -1.957349 -3.463852 0.6714734 
-36.43719 -57.34738 64.52 0.2786133 0.1971134 -0.2047342 
-14.16031 -68.66568 77.22 0.09828784 -0.008138895 0.003809869 
-28.56253 -69.72392 80.77 0.3074591 -0.303526 3.097809 
-48.60242 -66.94185 80.01 -0.9237474 0.327992 3.284725 
3.046844 -66.03001 0 -0.07217672 -5.853802 -2.980232e-08 
-44.98117 -63.83695 -0 0.4510936 -5.988174 5.960464e-08 
95.54893 -61.46616 0 0.3510449 -6.045498 1.490116e-08 
160.2626 -54.94367 0 0.4761741 -6.074569 0 
223.6033 -50.94653 0 0.488923 -5.515816 7.450581e-08 
256.8151 -49.49007 0 0.3224047 -5.926975 0 
-111.1731 -72.10411 -0 0.8730037 -6.156207 -5.215406e-08 
-75.90302 -67.89029 -0 0.8600435 -6.052643 5.960464e-08 
-144.1214 -79.04956 -0 0.5539665 -5.877906 2.980232e-08 
-166.6438 -77.1781 -0 0.7034199 -6.114649 -1.490116e-08 
-192.4884 -87.51345 -0 2.111579 -5.586088 0 
-195.4128 -85.99606 7.87 1.416239 -4.788449 3.312642 
-211.8871 -94.05957 -0 -1.233171 -3.753814 0 
-209.4261 -91.97621 4.57 -0.2786295 -4.178189 3.209766 
335.2148 -50.58827 86.61 0.04670751 -0.0007057786 0.0347742 
299.0243 -50.85016 73.15 -2.005095 2.344946 3.219385 
325.8626 -47.88381 63.25 0.3077304 0.02793956 -0.0622672 
303.0631 -37.0138 9.65 1.365618 5.933951 1.415917 
283.3859 -33.64085 20.90496 1.473571 5.378076 2.722128 
294.8642 -33.79744 0 2.533478 5.656309 -2.980232e-08 
314.2872 -37.56836 5.84 0.6906176 0.1128821 -0.3411708 
305.1856 -37.30477 0 2.294803 -0.5277479 2.980232e-07 
273.2394 -36.25331 24.13 -2.909694 2.410172 3.942654 
-215.4139 -84.3341 3.81 -4.458447 -0.8954493 3.430419 
-215.9014 -84.04272 -0 -6.087981 -1.251219 -4.470348e-08 
-214.0606 -89.54407 4.83 -2.804808 -2.077325 3.248167 
-215.8983 -90.16402 -0 -4.237668 -2.353147 -2.980232e-08 
-28.41852 -70.57317 79.25 0.134432 -4.884046 -0.3418406 
-48.336 -68.8114 78.23 -0.9611433 -4.297063 0.4960908 
105.6668 93.72997 -0 0.9583365 -0.435022 0 
46.22684 -64.34258 0 0.2632594 -5.941644 -5.960464e-08 
198.1769 -53.31513 0 0.5635071 -5.700167 0 
271.7986 -47.91888 0 1.153104 -6.002001 8.940697e-08 
299.2194 -53.4238 73.15 -1.329252 -2.58913 1.657366 
282.1614 -48.75603 52.32 -2.59204 -2.824947 1.126048 
282.0105 -44.36404 52.32 -2.575239 2.582262 2.008954 
319.4437 -42.6443 21.59 0.6060567 -0.03743184 -0.003506005 
-130.9188 18.49213 -0 -3.103741 5.195867 4.172325e-07 
39.36685 98.80998 -6.1 -1.21773 2.65087 -4.831888 
-1.523163 64.52 -8.13 -1.347201 4.685709 -3.66282 
68.07684 113.04 -3.56 -0.3502316 2.530787 -5.172039 
98.04684 114.05 -2.06233 0.6046225 1.426451 -5.851806 
96.77684 54.86998 -6.517095 2.688369 3.186421 -4.508019 
72.13684 84.08 -6.633346 1.019812 0.6040509 -6.122611 
57.14685 62.73997 -11.68 0.6395504 2.688107 -5.418927 
82.80685 95.75999 -4.012878 0.816054 0.171843 -6.205272 
-179.3596 -18.51365 -7.62 -4.107936 2.746572 -2.803874 
-158.9449 -2.880463 -13.97 -3.52912 3.951957 -2.629865 
-132.6646 15.83762 -5.33 -3.160524 5.208135 -1.52902 
-131.827 13.72096 -13.97 -3.04917 5.082314 -2.019329 
-93.10382 34.97737 -18.29 -2.302571 4.622544 -2.974785 
-48.55493 52.67918 -22.35 -1.094949 4.269329 -3.273634 
-4.573151 49.53999 -24.64 -0.06293517 3.955432 -4.803755 
53.59685 48.00999 -26.67 0.6444272 3.293314 -5.008307 
109.7268 36.06999 -20.32 1.615434 3.931874 -4.315243 
164.5977 24.16576 -11.68 1.661546 4.822568 -3.294569 
204.6789 3.807053 -14.73 1.850063 3.596706 -4.641777 
230.8715 -8.854462 -11.94 1.808302 2.224845 -5.41184 
255.2799 -16.97031 -7.87 0.5652894 2.855635 -5.445547 
274.1086 -20.24117 -9.65 2.292964 4.168988 -3.55658 
281.0518 -26.84312 -9.375875 3.256734 4.658035 -2.544506 
-134.8842 7.603134 -22.35 -2.64217 4.507002 -3.333318 
-118.7851 4.991013 -32.77 -1.536203 3.347533 -4.980369 
-87.93243 20.52956 -31.70523 -1.483578 3.291263 -5.10443 
-49.60266 33.91145 -32 -0.6768821 3.049581 -5.43962 
-4.573151 31.75999 -35.81 -0.04046455 3.033613 -5.483191 
45.97684 30.48997 -34.04 0.5676957 2.51353 -5.72387 
106.4268 22.60997 -28.45 1.016978 3.130338 -5.348662 
164.2561 16.56985 -18.29 1.479212 3.648275 -4.876575 
-141.4966 -4.591209 -31.75 -2.616106 1.892611 -4.507752 
-131.4974 -6.947311 -36.58 -1.760805 1.095693 -5.393985 
-149.6792 -11.04578 -27.43 -3.197617 1.748964 -4.9606 
-167.2928 -26.66084 -20.83 -4.003613 2.367741 -4.206473 
-182.6414 -39.65448 -10.16 -4.611937 2.267308 -3.501109 
-140.5706 -11.80264 -30.99 -2.530651 0.06966652 -5.610127 
-130.0458 -17.01208 -35.81 -1.770419 0.230913 -5.985604 
-185.0463 -47.10091 -13.97 -3.470851 1.439392 -4.382346 
-212.3748 -75.41514 -7.37 -2.558239 0.7641102 -4.437459 
-207.502 -78.11794 -7.37 -1.137682 -1.059958 -6.074506 
-179.009 -57.28585 -14.99 -2.050327 -0.3658882 -5.855488 
-189.5161 -45.70598 -5.08 -4.878716 2.768198 -2.702504 
-217.5038 -78.81209 -4.06 -3.977094 0.1338146 -2.667971 
-150.7972 -27.51979 -30.73 -2.075934 0.6968479 -5.847007 
-143.5855 -17.41225 -30.73 -2.260163 1.257505 -5.678107 
-151.5819 -24.64492 -30.48 -1.60309 0.829601 -5.871943 
-164.5894 -30.95947 -26.42 -2.806821 0.6477984 -4.896086 
-161.7422 -36.54444 -25.91 -2.262983 -1.006033 -5.744445 
-201.2574 -79.65031 -8.38 -1.996125 -0.09582414 -5.829947 
-175.5276 -61.39826 -16.26 -2.741668 0.5316385 -5.460497 
-156.0699 -47.98344 -27.04717 -2.789813 -0.6387445 -5.583676 
-145.9485 -33.53195 -34.54 -1.807062 -0.003964245 -5.600384 
-154.0007 -53.75459 -27.43 -1.368908 -1.693416 -5.709702 
-123.8187 -43.26791 -34.8 -1.0485 -2.334136 -5.722855 
-140.4437 -28.63096 -34.8 -1.718752 1.194915 -5.906659 
-137.6539 -19.69126 -34.54 -2.011016 1.162339 -5.710197 
-124.8745 -31.45993 -38.61 -1.659434 -0.6384676 -5.922383 
-197.6923 -82.75619 -10.92 -1.139951 -1.343987 -5.029135 
-174.4335 -66.58667 -18.29 -2.195808 -0.2070718 -5.651431 
-136.1284 -47.34255 -31.75 -0.6207514 -2.287827 -5.794271 
-151.7325 -75.6075 -17.02 -0.2125443 -4.432119 -3.171121 
-115.5171 -69.19439 -22.35 0.05886173 -4.707264 -3.146915 
-174.22 -70.17667 -17.27 -0.3444087 -3.189267 -5.135918 
-169.2661 -74.92321 -10.16 0.3902317 -5.645529 -2.44091 
-84.45435 -60.30612 -35.05 -0.3063485 -5.306873 -2.53565 
-85.39764 -50.28358 -43.18 -2.043262 -1.402766 -5.381235 
-79.86481 -20.40913 -49.28 -0.9016039 0.1469962 -5.96175 
-120.4849 -30.80115 -40.39 -1.53187 -0.6749117 -5.688662 
-113.95 -13.50288 -40.13 -1.029752 0.8361803 -6.087318 
-111.8611 -0.681808 -36.58 -1.084342 2.26401 -5.750578 
-81.19751 3.403015 -42.67 -1.252367 2.228382 -5.668245 
-39.19025 -15.64094 -51.05 -0.1046903 -0.2896921 -6.107931 
-49.00662 10.41141 -46.23 -0.581959 2.195965 -5.678022 
5.076843 -18.78999 -51.05 0.1693012 -0.746011 -6.02571 
-0.003174 6.529009 -48.01 0.1307867 1.768867 -5.923884 
50.03685 -18.53999 -49.02 0.2392366 -0.6092007 -6.089098 
48.00685 5.089981 -46.23 0.4346884 1.824428 -5.884834 
103.3768 -27.93001 -44.7 0.9139056 -1.459374 -5.727483 
103.8868 -1.010025 -43.94 0.8400534 1.73953 -5.674814 
161.4177 -29.19355 -28.45 1.193802 -2.002698 -5.777998 
162.7132 -4.686424 -33.02 1.380986 1.216101 -5.520472 
199.0702 -36.01879 -21.84 1.174051 -2.274695 -5.279422 
201.1734 -11.47618 -23.37 1.662295 0.9292111 -5.720708 
226.7552 -36.33063 -14.22 1.139461 -1.874556 -5.61198 
228.4615 -21.14399 -13.97 1.629977 0.2051093 -6.054753 
244.9365 -38.09956 -10.67 -0.3433325 -1.584377 -5.870673 
248.4611 -25.74372 -9.91 -0.1170738 0.8366967 -6.047974 
272.5167 -27.82566 -18.29 0.1780061 3.727634 -4.394645 
-46.20822 -47.93071 -41.15 0.8010082 -3.624299 -4.14121 
6.606842 -52.83 -37.59 0.02730588 -4.135058 -3.874778 
47.2407 -51.72131 -38.1 0.1496866 -3.944537 -3.952291 
98.29458 -53.79565 -30.99 0.6286817 -4.486255 -3.396076 
159.8931 -50.21146 -17.27 0.7750811 -4.604783 -3.546478 
198.8694 -48.77163 -9.65 0.843686 -4.953732 -3.587965 
225.2173 -46.75587 -7.11 0.5422931 -4.496309 -4.161156 
255.5049 -47.8636 -5.59 -0.5262166 -5.31283 -2.825852 
269.553 -46.43898 -14.40978 -0.9788783 -5.148077 -1.888178 
-60.37555 -65.28902 -71.37 -1.957349 -3.463852 -0.6714734 
-59.38708 -63.49491 -73.66 -2.027414 1.11261 -3.104299 
-36.43719 -57.34738 -64.52 0.2786133 0.1971134 0.2047343 
-14.16031 -68.66568 -77.22 0.09828784 -0.008138955 -0.00380981 
-48.60242 -66.94185 -80.01 -0.9237472 0.327992 -3.284725 
-28.56253 -69.72392 -80.77 0.3074591 -0.3035259 -3.097809 
-195.4128 -85.99606 -7.87 1.416239 -4.78845 -3.312642 
-209.4261 -91.97621 -4.57 -0.2641506 -3.768127 -3.358068 
325.8626 -47.88381 -63.25 0.3077304 0.02793956 0.06226717 
299.0243 -50.85016 -73.15 -2.005095 2.344947 -3.219385 
335.2148 -50.58827 -86.61 0.0467075 -0.0007057786 -0.0347742 
283.3859 -33.64085 -20.90496 1.473571 5.378076 -2.722128 
303.0631 -37.0138 -9.65 1.365618 5.933951 -1.415917 
314.2872 -37.56836 -5.84 0.6906176 0.1128824 0.3411708 
273.2394 -36.25331 -24.13 -2.909694 2.410172 -3.942654 
-215.4139 -84.3341 -3.81 -4.458447 -0.8954492 -3.430419 
-214.0606 -89.54407 -4.83 -2.620533 -2.045702 -3.281949 
-48.336 -68.8114 -78.23 -0.9611431 -4.297063 -0.4960906 
-28.41852 -70.57317 -79.25 0.1344321 -4.884046 0.3418409 
282.0105 -44.36404 -52.32 -2.575239 2.582262 -2.008954 
282.1614 -48.75603 -52.32 -2.59204 -2.824947 -1.126048 
299.2194 -53.4238 -73.15 -1.329252 -2.58913 -1.657366 
319.4437 -42.6443 -21.59 0.6060566 -0.03743184 0.003506005 
117.3468 105.42 0 0.3799669 -0.1012908 0 
-136.1284 -47.34255 31.75 -0.6207514 -2.287827 5.794271 
3 3 2 1 
3 1 0 3 
3 5 4 2 
3 2 3 5 
3 6 4 5 
3 5 7 6 
3 8 6 7 
3 11 10 9 
3 12 13 3 
3 3 0 12 
3 14 5 3 
3 3 13 14 
3 7 5 14 
3 17 16 15 
3 19 18 15 
3 15 16 19 
3 21 160 20 
3 21 23 22 
3 23 21 20 
3 24 21 22 
3 22 25 24 
3 0 1 24 
3 24 25 0 
3 26 0 25 
3 27 12 0 
3 0 26 27 
3 27 28 9 
3 9 12 27 
3 11 9 28 
3 30 11 28 
3 28 29 30 
3 31 30 29 
3 29 32 31 
3 33 31 32 
3 32 34 33 
3 35 33 34 
3 34 36 35 
3 37 35 36 
3 36 38 37 
3 39 37 38 
3 38 40 39 
3 23 19 41 
3 22 23 41 
3 42 22 41 
3 42 43 22 
3 25 22 43 
3 43 44 25 
3 26 25 44 
3 44 45 26 
3 27 26 45 
3 45 46 27 
3 28 27 46 
3 46 47 28 
3 48 29 28 
3 28 47 48 
3 32 29 48 
3 50 49 42 
3 42 41 50 
3 19 51 50 
3 50 41 19 
3 52 51 19 
3 19 16 52 
3 53 52 16 
3 50 55 54 
3 54 49 50 
3 51 55 50 
3 53 56 52 
3 59 58 57 
3 57 56 59 
3 62 61 60 
3 60 63 62 
3 17 63 53 
3 53 16 17 
3 62 63 17 
3 65 51 64 
3 64 66 65 
3 51 52 67 
3 67 64 51 
3 66 64 67 
3 67 68 66 
3 57 68 67 
3 67 56 57 
3 69 57 58 
3 58 70 69 
3 71 68 57 
3 57 69 71 
3 72 66 68 
3 283 73 72 
3 72 71 74 
3 56 53 63 
3 65 66 75 
3 76 65 75 
3 54 76 75 
3 77 54 75 
3 72 77 75 
3 66 72 75 
3 69 70 79 
3 79 78 69 
3 71 69 78 
3 78 74 71 
3 283 74 80 
3 283 81 73 
3 81 283 80 
3 82 80 74 
3 74 83 82 
3 84 73 81 
3 81 85 84 
3 87 86 73 
3 73 84 87 
3 86 77 73 
3 88 54 77 
3 77 86 88 
3 89 42 49 
3 89 49 88 
3 88 49 54 
3 90 88 86 
3 86 87 90 
3 91 90 87 
3 87 92 91 
3 93 91 92 
3 92 94 93 
3 95 93 94 
3 94 96 95 
3 97 95 96 
3 96 98 97 
3 99 97 98 
3 98 100 99 
3 101 99 100 
3 100 102 101 
3 103 101 102 
3 102 104 103 
3 105 103 104 
3 104 106 105 
3 89 88 90 
3 43 89 90 
3 42 89 43 
3 44 43 90 
3 90 91 44 
3 45 44 91 
3 91 93 45 
3 46 45 93 
3 93 95 46 
3 47 46 95 
3 95 97 47 
3 48 47 97 
3 97 99 48 
3 32 48 99 
3 99 101 32 
3 34 32 101 
3 101 103 34 
3 36 34 103 
3 103 105 36 
3 107 38 36 
3 36 105 107 
3 40 38 107 
3 92 87 84 
3 84 108 92 
3 94 92 108 
3 108 109 94 
3 96 94 109 
3 109 110 96 
3 98 96 110 
3 110 111 98 
3 100 98 111 
3 111 112 100 
3 102 100 112 
3 112 113 102 
3 104 102 113 
3 113 114 104 
3 106 104 114 
3 114 115 106 
3 116 106 115 
3 117 84 85 
3 85 118 117 
3 108 84 117 
3 117 119 108 
3 121 120 119 
3 121 119 122 
3 122 119 117 
3 123 109 108 
3 108 124 123 
3 126 112 111 
3 111 125 126 
3 128 115 114 
3 114 127 128 
3 130 85 81 
3 81 129 130 
3 124 108 85 
3 85 130 124 
3 129 81 80 
3 80 131 129 
3 131 80 82 
3 82 132 131 
3 132 82 134 
3 134 133 132 
3 82 83 134 
3 136 135 133 
3 133 134 136 
3 139 138 137 
3 40 141 140 
3 140 142 40 
3 142 140 143 
3 143 144 142 
3 106 145 107 
3 107 105 106 
3 116 145 106 
3 59 56 63 
3 63 60 59 
3 61 147 146 
3 146 60 61 
3 59 60 146 
3 146 58 59 
3 74 78 83 
3 79 134 83 
3 83 78 79 
3 134 79 136 
3 148 136 79 
3 79 70 148 
3 58 146 148 
3 148 70 58 
3 149 135 136 
3 136 148 149 
3 146 147 149 
3 149 148 146 
3 55 51 65 
3 76 54 55 
3 73 77 72 
3 56 67 52 
3 65 76 55 
3 151 150 121 
3 121 122 151 
3 151 122 117 
3 117 118 151 
3 120 121 150 
3 108 119 118 
3 118 85 108 
3 119 120 150 
3 119 151 118 
3 150 151 119 
3 10 13 12 
3 12 9 10 
3 10 152 14 
3 14 13 10 
3 7 152 282 
3 125 111 110 
3 110 153 125 
3 153 110 109 
3 109 123 153 
3 127 114 113 
3 113 154 127 
3 112 126 154 
3 154 113 112 
3 115 128 155 
3 155 116 115 
3 157 156 138 
3 138 158 157 
3 157 158 145 
3 145 116 157 
3 137 138 156 
3 40 142 39 
3 116 155 144 
3 116 144 143 
3 143 159 116 
3 116 159 157 
3 157 159 139 
3 139 156 157 
3 156 139 137 
3 158 138 139 
3 139 159 158 
3 159 143 140 
3 140 158 159 
3 158 140 141 
3 158 141 145 
3 141 40 107 
3 107 145 141 
3 18 19 20 
3 20 160 18 
3 19 23 20 
3 1 2 161 
3 161 162 1 
3 2 4 163 
3 163 161 2 
3 163 4 6 
3 6 164 163 
3 164 6 8 
3 165 10 11 
3 167 162 161 
3 161 166 167 
3 161 163 168 
3 168 166 161 
3 168 163 164 
3 15 169 17 
3 15 18 170 
3 170 169 15 
3 171 160 21 
3 21 172 171 
3 172 21 173 
3 173 21 24 
3 24 174 173 
3 24 1 162 
3 162 174 24 
3 174 162 175 
3 162 167 176 
3 176 175 162 
3 176 167 165 
3 165 177 176 
3 177 165 11 
3 177 11 30 
3 30 178 177 
3 178 30 31 
3 31 179 178 
3 179 31 33 
3 33 180 179 
3 180 33 35 
3 35 181 180 
3 181 35 37 
3 37 182 181 
3 182 37 39 
3 39 183 182 
3 184 170 172 
3 173 185 184 
3 173 184 172 
3 173 186 185 
3 186 173 174 
3 174 187 186 
3 187 174 175 
3 175 188 187 
3 188 175 176 
3 176 189 188 
3 189 176 177 
3 177 190 189 
3 177 178 191 
3 191 190 177 
3 191 178 179 
3 185 193 192 
3 192 184 185 
3 192 194 170 
3 170 184 192 
3 170 194 195 
3 195 169 170 
3 169 195 196 
3 198 197 192 
3 192 193 198 
3 192 197 194 
3 195 199 196 
3 202 201 200 
3 200 199 202 
3 204 61 62 
3 62 203 204 
3 196 203 17 
3 17 169 196 
3 17 203 62 
3 207 194 206 
3 206 205 207 
3 208 195 194 
3 194 207 208 
3 208 207 205 
3 205 209 208 
3 208 209 202 
3 202 199 208 
3 201 202 211 
3 211 210 201 
3 202 209 212 
3 212 211 202 
3 209 205 213 
3 213 221 214 
3 214 212 213 
3 203 196 199 
3 216 205 206 
3 216 206 217 
3 216 217 198 
3 216 198 218 
3 216 218 213 
3 216 213 205 
3 219 210 211 
3 211 220 219 
3 220 211 212 
3 212 214 220 
3 222 214 221 
3 221 223 222 
3 223 221 215 
3 222 225 224 
3 224 214 222 
3 223 215 227 
3 227 226 223 
3 215 229 228 
3 228 227 215 
3 215 218 229 
3 218 198 230 
3 230 229 218 
3 193 230 198 
3 230 193 231 
3 185 231 193 
3 229 230 232 
3 232 228 229 
3 228 232 234 
3 234 233 228 
3 233 234 236 
3 236 235 233 
3 235 236 238 
3 238 237 235 
3 237 238 240 
3 240 239 237 
3 239 240 242 
3 242 241 239 
3 241 242 244 
3 244 243 241 
3 243 244 246 
3 246 245 243 
3 245 246 248 
3 248 247 245 
3 232 230 231 
3 232 231 186 
3 186 231 185 
3 232 186 187 
3 187 234 232 
3 234 187 188 
3 188 236 234 
3 236 188 189 
3 189 238 236 
3 238 189 190 
3 190 240 238 
3 240 190 191 
3 191 242 240 
3 242 191 179 
3 179 244 242 
3 244 179 180 
3 180 246 244 
3 246 180 181 
3 181 248 246 
3 249 248 181 
3 181 182 249 
3 249 182 183 
3 227 228 233 
3 233 250 227 
3 250 233 235 
3 235 251 250 
3 251 235 237 
3 237 252 251 
3 252 237 239 
3 239 253 252 
3 253 239 241 
3 241 254 253 
3 254 241 243 
3 243 255 254 
3 255 243 245 
3 245 256 255 
3 256 245 247 
3 247 257 256 
3 257 247 258 
3 226 227 260 
3 260 259 226 
3 260 227 250 
3 250 261 260 
3 263 260 261 
3 263 261 264 
3 264 261 262 
3 250 251 123 
3 123 124 250 
3 253 254 126 
3 126 125 253 
3 256 257 128 
3 128 127 256 
3 223 226 130 
3 130 129 223 
3 226 250 124 
3 124 130 226 
3 222 223 129 
3 129 131 222 
3 225 222 131 
3 131 132 225 
3 265 225 132 
3 132 133 265 
3 265 224 225 
3 133 135 266 
3 266 265 133 
3 269 268 267 
3 271 270 183 
3 183 142 271 
3 272 271 142 
3 142 144 272 
3 249 273 247 
3 247 248 249 
3 247 273 258 
3 203 199 200 
3 200 204 203 
3 274 147 61 
3 61 204 274 
3 274 204 200 
3 200 201 274 
3 224 220 214 
3 224 265 219 
3 219 220 224 
3 266 219 265 
3 266 275 210 
3 210 219 266 
3 275 274 201 
3 201 210 275 
3 266 135 149 
3 149 275 266 
3 149 147 274 
3 274 275 149 
3 206 194 197 
3 197 198 217 
3 213 218 215 
3 195 208 199 
3 197 217 206 
3 264 277 276 
3 276 263 264 
3 260 263 276 
3 276 259 260 
3 277 264 262 
3 259 261 250 
3 250 226 259 
3 261 276 277 
3 276 261 259 
3 262 261 277 
3 167 166 10 
3 10 165 167 
3 168 152 10 
3 10 166 168 
3 152 164 282 
3 164 152 168 
3 252 253 125 
3 125 153 252 
3 251 252 153 
3 153 123 251 
3 255 256 127 
3 127 154 255 
3 154 126 254 
3 254 255 154 
3 155 128 257 
3 257 258 155 
3 268 280 279 
3 279 278 268 
3 273 278 279 
3 279 258 273 
3 280 268 269 
3 39 142 183 
3 144 155 258 
3 258 281 272 
3 281 258 279 
3 144 258 272 
3 267 281 279 
3 279 280 267 
3 269 267 280 
3 267 268 278 
3 278 281 267 
3 271 272 281 
3 281 278 271 
3 270 271 278 
3 273 270 278 
3 249 183 270 
3 270 273 249 
3 171 170 18 
3 18 160 171 
3 171 172 170 
3 213 212 209 
3 68 71 72 
3 152 7 14 
3 7 282 8 
3 282 164 8 
3 221 213 215 
3 283 72 74 
