ply
format ascii 1.0
comment VCGLIB generated
comment TextureFile ../textures/goomba.bmp
element vertex 151
property float x
property float y
property float z
property float nx
property float ny
property float nz
property float texture_u
property float texture_v
element face 144
property list uchar int vertex_indices
end_header
-0.074676 0.258302 6.949379 0.999997 0.002451622 -0 0.037945 0.707570
-0.041579 -13.24166 6.94938 0.999997 0.002451622 -0 0.037945 0.952499
-0.041579 -13.24166 -6.550617 0.999997 0.002451622 0 0.233597 0.952499
-0.074676 0.258301 -6.550618 0.999997 0.002451622 -0 0.233597 0.707570
4.658367 -13.49831 1.951479 0.2482219 -0.5822867 -0.7741628 0.000000 0.000000
7.017485 -13.23153 8.319699 0.7372645 -0.5129917 0.4396369 1.000000 1.000000
-3.958899 -13.29323 4.141595 -0.7369376 -0.5231005 -0.4281224 1.000000 1.000000
-0.995294 -13.138 2.184366 -0.2858745 -0.5427339 -0.7897567 1.000000 0.000000
4.640401 -11.03283 2.492436 0.2509925 0.6219109 -0.7417747 1.000000 0.000000
6.860723 -11.7316 4.191491 0.8077972 0.4742818 -0.3500293 0.000000 0.000000
4.064019 -13.11025 10.17053 0.1238701 -0.5122266 0.8498707 1.000000 1.000000
-4.148004 -13.16976 6.75675 -0.7957262 -0.4978225 0.3449531 1.000000 1.000000
-1.255153 -11.24348 8.56868 -0.3815224 0.6756306 0.6308439 1.000000 0.000000
-3.495896 -11.9731 4.395037 -0.6825897 0.6301818 -0.3700572 0.000000 0.000000
-3.651237 -11.87167 6.543204 -0.7277066 0.6497554 0.2196839 0.000000 0.000000
5.098954 -10.49893 4.005913 0.2904225 0.9324247 -0.2150324 1.000000 1.000000
6.570298 -11.54199 8.2076 0.7505364 0.5152453 0.4137844 0.000000 0.000000
4.14061 -10.70651 9.403912 0.1445357 0.6843745 0.7146615 1.000000 1.000000
-0.973605 -10.7406 7.342048 -0.2509708 0.9597434 0.1261199 1.000000 1.000000
-0.822901 -11.52571 2.591197 -0.2774309 0.6017087 -0.7489851 1.000000 1.000000
-1.501834 -12.80727 9.189243 -0.4040186 -0.4520703 0.7952367 1.000000 1.000000
-0.723703 -10.90376 3.886316 -0.2162011 0.9450834 -0.2451008 1.000000 0.000000
4.808535 -10.30931 8.022035 0.2675479 0.9476539 0.1742707 1.000000 0.000000
7.307909 -13.42115 4.303591 0.790343 -0.5452368 -0.2794185 0.000000 0.000000
-3.739629 -13.36334 -3.941868 -0.8111863 -0.5092247 0.2875189 0.000000 0.000000
-2.973471 -12.02567 -6.288606 -0.6673108 0.6450057 -0.3723762 1.000000 1.000000
5.227722 -10.98913 -7.675112 0.2744699 0.6609265 -0.6984572 1.000000 1.000000
4.421793 -11.08153 -0.785347 0.1193741 0.6421435 0.7572328 1.000000 1.000000
-1.193214 -13.15302 -1.470039 -0.4270313 -0.5195051 0.7401073 1.000000 0.000000
-0.931341 -11.55617 -1.889979 -0.4092743 0.6281359 0.6617702 1.000000 1.000000
5.62923 -10.54764 -6.206279 0.3003157 0.9410375 -0.1557531 0.000000 0.000000
-0.234324 -11.47626 -7.848695 -0.2335251 0.656785 -0.7170075 1.000000 1.000000
-0.585176 -10.97912 -3.163296 -0.2551287 0.953391 0.1611055 1.000000 1.000000
-3.223959 -12.05439 -4.147185 -0.733469 0.6492284 0.2013103 1.000000 1.000000
-0.182211 -10.93292 -6.608171 -0.2045583 0.956314 -0.2088526 1.000000 1.000000
-0.376392 -13.05938 -8.452902 -0.2402784 -0.4734465 -0.8474165 0.000000 0.000000
7.825088 -13.48701 -5.988755 0.8003591 -0.526912 -0.2859879 0.000000 0.000000
5.271528 -13.41739 -8.363283 0.2759401 -0.5359601 -0.7978746 1.000000 0.000000
7.382013 -11.79283 -6.01791 0.818756 0.4907423 -0.2980112 1.000000 1.000000
5.16092 -10.60133 -2.202775 0.2600256 0.9372268 0.2323634 1.000000 0.000000
6.913703 -11.84652 -2.01439 0.7365027 0.4890529 0.4673232 1.000000 1.000000
-3.434684 -13.32838 -6.548806 -0.7224318 -0.506467 -0.4707267 1.000000 0.000000
7.356778 -13.5407 -1.985251 0.7209494 -0.5412784 0.4327236 1.000000 0.000000
4.313122 -13.52726 -0.170064 0.08969194 -0.5596125 0.8238867 0.000000 0.000000
10.52431 5.404337 -2.747926 0.9520357 0.2411585 -0.1883364 0.894862 0.322613
8.013334 -4.191155 -8.966516 0.6122625 -0.4949294 -0.616587 0.547826 0.542306
-7.784415 -4.009347 -9.370361 -0.6100878 -0.4183119 -0.6729103 0.464032 0.543295
-1.796681 -4.0645 -11.8246 -0.1761575 -0.4919796 -0.8525987 0.547826 0.542306
3.689937 -2.060879 -12.46792 0.3012992 -0.1748204 -0.9373669 0.592885 0.487382
3.227528 5.715931 -10.53685 0.2883641 0.3595222 -0.8874627 0.551383 0.280554
8.052017 5.458408 -7.666957 0.6982409 0.2532786 -0.6695594 0.947431 0.318654
11.32601 -4.264317 -2.240324 0.8477339 -0.5067167 -0.1567975 0.891700 0.486888
8.257561 -4.284972 8.290171 0.6459676 -0.4945774 0.5814801 0.749407 0.488372
11.69209 -2.236829 3.63142 0.9330432 -0.1850408 0.3085293 0.820553 0.454725
9.980421 5.566929 3.147986 0.9033061 0.319717 0.2860405 0.820553 0.320633
1.850214 -4.232644 12.18449 0.1848981 -0.4983255 0.8470445 0.679447 0.483919
2.570774 5.421506 11.14394 0.2356382 0.2386086 0.9420938 0.107510 0.287481
-3.040496 5.673735 10.97418 -0.2679966 0.3356641 0.9030545 0.079447 0.280554
-3.679577 -2.110491 12.8233 -0.2810055 -0.1545603 0.9471785 0.037945 0.487382
2.985105 -6.838949 6.163049 0.1273553 -0.9659068 0.2253991 0.210672 0.612568
-7.959802 -4.105991 9.326418 -0.5758139 -0.4980641 0.6483599 0.083004 0.542306
-11.69209 -4.035652 4.040287 -0.8672227 -0.4505482 0.2119695 0.166798 0.543295
-11.61796 -1.935881 -3.159807 -0.9435503 -0.1654977 -0.2869207 0.315415 0.487382
-9.729612 5.821398 -2.59441 -0.8987874 0.3450232 -0.2704446 0.315415 0.280554
-7.287983 5.629152 -6.96098 -0.7292429 0.2580605 -0.6337268 0.416996 0.287481
7.804934 11.34961 -4.212142 0.6556565 0.6763456 -0.3356655 0.904348 0.219693
-2.298001 5.592032 -10.68237 -0.2948045 0.2623248 -0.9188449 0.523320 0.287481
2.09989 12.64466 -6.360099 0.1766046 0.8146002 -0.552483 0.460474 0.097476
-3.80509 11.4995 -7.59465 -0.3767527 0.6790382 -0.6300513 0.452569 0.130134
-5.870845 12.70944 -1.456593 -0.5655259 0.8086846 -0.161894 0.315415 0.097476
6.279174 12.55258 2.083239 0.5814419 0.7951367 0.1722877 0.820949 0.200396
-7.779244 5.555131 8.128545 -0.7020242 0.2844946 0.652859 0.107510 0.287481
-1.755338 12.6187 6.87052 -0.1614772 0.8114874 0.5616168 0.170356 0.097476
0.181515 14.60016 0.310581 0.008971923 0.9999396 0.006356964 0.315415 0.047501
-9.989265 5.610967 2.309483 -0.947558 0.289759 0.1348095 0.213834 0.287481
-7.39805 11.47532 4.735937 -0.6535019 0.6739408 0.3445852 0.178261 0.130134
7.298499 5.382621 8.322615 0.7179404 0.2220024 0.659755 0.746640 0.324592
-2.991174 -6.707703 -5.830837 -0.1399654 -0.9648087 -0.2226072 0.420158 0.612568
-5.744908 -6.726237 3.619641 -0.236613 -0.9654601 0.1090922 0.210672 0.612568
5.73884 -6.820413 -3.287399 0.2295105 -0.9652199 -0.1252024 0.420158 0.612568
4.211966 11.32542 8.118445 0.3808004 0.6759921 0.6308928 0.737549 0.221672
4.064019 -13.11025 10.17053 0.1238701 -0.5122266 0.8498707 0.000000 0.000000
4.658367 -13.49831 1.951479 0.2482219 -0.5822867 -0.7741628 1.000000 0.000000
7.017485 -13.23153 8.319699 0.7372645 -0.5129917 0.4396369 0.000000 0.000000
-1.501834 -12.80727 9.189243 -0.4040186 -0.4520703 0.7952367 0.000000 0.000000
-4.148004 -13.16976 6.75675 -0.7957262 -0.4978225 0.3449531 0.000000 0.000000
7.307909 -13.42115 4.303591 0.790343 -0.5452368 -0.2794185 1.000000 1.000000
4.658367 -13.49831 1.951479 0.2482219 -0.5822867 -0.7741628 1.000000 1.000000
6.860723 -11.7316 4.191491 0.8077972 0.4742818 -0.3500293 1.000000 1.000000
6.570298 -11.54199 8.2076 0.7505364 0.5152453 0.4137844 1.000000 1.000000
4.064019 -13.11025 10.17053 0.1238701 -0.5122266 0.8498707 1.000000 0.000000
-3.651237 -11.87167 6.543204 -0.7277066 0.6497554 0.2196839 1.000000 1.000000
-3.958899 -13.29323 4.141595 -0.7369376 -0.5231005 -0.4281224 0.000000 0.000000
-3.495896 -11.9731 4.395037 -0.6825897 0.6301818 -0.3700572 1.000000 1.000000
-0.723703 -10.90376 3.886316 -0.2162011 0.9450834 -0.2451008 0.000000 0.000000
-0.822901 -11.52571 2.591197 -0.2774309 0.6017087 -0.7489851 1.000000 0.000000
5.098954 -10.49893 4.005913 0.2904225 0.9324247 -0.2150324 0.000000 0.000000
4.640401 -11.03283 2.492436 0.2509925 0.6219109 -0.7417747 1.000000 1.000000
4.808535 -10.30931 8.022035 0.2675479 0.9476539 0.1742707 0.000000 0.000000
4.14061 -10.70651 9.403912 0.1445357 0.6843745 0.7146615 1.000000 0.000000
-0.973605 -10.7406 7.342048 -0.2509708 0.9597434 0.1261199 0.000000 0.000000
-1.255153 -11.24348 8.56868 -0.3815224 0.6756306 0.6308439 1.000000 1.000000
5.098954 -10.49893 4.005913 0.2904225 0.9324247 -0.2150324 1.000000 0.000000
4.808535 -10.30931 8.022035 0.2675479 0.9476539 0.1742707 1.000000 1.000000
-0.973605 -10.7406 7.342048 -0.2509708 0.9597434 0.1261199 1.000000 0.000000
-0.723703 -10.90376 3.886316 -0.2162011 0.9450834 -0.2451008 1.000000 1.000000
4.640401 -11.03283 2.492436 0.2509925 0.6219108 -0.7417747 0.000000 0.000000
-0.995294 -13.138 2.184366 -0.2858745 -0.5427339 -0.7897567 1.000000 1.000000
-1.255153 -11.24348 8.56868 -0.3815224 0.6756306 0.6308439 0.000000 0.000000
-3.651237 -11.87167 6.543204 -0.7277066 0.6497554 0.2196839 1.000000 0.000000
6.860723 -11.7316 4.191491 0.8077972 0.4742818 -0.3500293 1.000000 0.000000
7.382013 -11.79283 -6.01791 0.818756 0.4907423 -0.2980112 0.000000 0.000000
-3.223959 -12.05439 -4.147185 -0.733469 0.6492284 0.2013103 0.000000 0.000000
-0.182211 -10.93292 -6.608171 -0.2045583 0.956314 -0.2088526 0.000000 0.000000
-0.234324 -11.47626 -7.848695 -0.2335251 0.656785 -0.7170075 0.000000 0.000000
4.421793 -11.08153 -0.785347 0.1193741 0.6421435 0.7572328 0.000000 0.000000
-0.585176 -10.97912 -3.163296 -0.2551287 0.953391 0.1611055 1.000000 0.000000
-2.973471 -12.02567 -6.288606 -0.6673108 0.6450057 -0.3723762 0.000000 0.000000
-0.234324 -11.47626 -7.848695 -0.2335251 0.656785 -0.7170075 1.000000 0.000000
5.62923 -10.54764 -6.206279 0.3003157 0.9410375 -0.1557531 1.000000 0.000000
6.913703 -11.84652 -2.01439 0.7365027 0.4890529 0.4673232 0.000000 0.000000
5.16092 -10.60133 -2.202775 0.2600256 0.9372268 0.2323634 1.000000 1.000000
4.421793 -11.08153 -0.785347 0.1193741 0.6421435 0.7572328 1.000000 0.000000
5.62923 -10.54764 -6.206279 0.3003157 0.9410375 -0.1557531 1.000000 1.000000
5.16092 -10.60133 -2.202775 0.2600256 0.9372268 0.2323634 0.000000 0.000000
-0.585176 -10.97912 -3.163296 -0.2551287 0.953391 0.1611055 0.000000 0.000000
-3.739629 -13.36334 -3.941868 -0.8111863 -0.5092247 0.2875189 1.000000 1.000000
-0.931341 -11.55617 -1.889979 -0.4092743 0.6281359 0.6617702 1.000000 0.000000
-1.193214 -13.15302 -1.470039 -0.4270313 -0.5195051 0.7401073 1.000000 1.000000
-0.182211 -10.93292 -6.608171 -0.2045583 0.956314 -0.2088526 1.000000 0.000000
-3.434684 -13.32838 -6.548806 -0.7224318 -0.506467 -0.4707267 0.000000 0.000000
-0.376392 -13.05938 -8.452902 -0.2402784 -0.4734465 -0.8474165 1.000000 0.000000
7.825088 -13.48701 -5.988755 0.8003591 -0.526912 -0.2859879 1.000000 1.000000
5.227722 -10.98913 -7.675112 0.2744699 0.6609265 -0.6984572 1.000000 0.000000
5.271528 -13.41739 -8.363283 0.2759401 -0.5359601 -0.7978746 1.000000 1.000000
7.356778 -13.5407 -1.985251 0.7209494 -0.5412784 0.4327236 0.000000 0.000000
4.313122 -13.52726 -0.170064 0.08969194 -0.5596125 0.8238867 1.000000 0.000000
-0.376392 -13.05938 -8.452902 -0.2402784 -0.4734465 -0.8474165 1.000000 1.000000
-3.739629 -13.36334 -3.941868 -0.8111863 -0.5092247 0.2875189 1.000000 0.000000
7.356778 -13.5407 -1.985251 0.7209494 -0.5412784 0.4327236 1.000000 1.000000
4.313122 -13.52726 -0.170064 0.08969194 -0.5596125 0.8238867 1.000000 1.000000
5.271528 -13.41739 -8.363283 0.2759401 -0.5359601 -0.7978746 0.000000 0.000000
8.052017 5.458408 -7.666957 0.6982409 0.2532786 -0.6695594 0.523320 0.287481
11.32601 -4.264317 -2.240324 0.8477339 -0.5067167 -0.1567975 0.432411 0.543295
8.013334 -4.191155 -8.966516 0.6122625 -0.4949294 -0.616587 0.962055 0.480950
1.850214 -4.232644 12.18449 0.1848981 -0.4983255 0.8470445 0.083004 0.542306
8.257561 -4.284972 8.290171 0.6459676 -0.4945774 0.5814801 0.198419 0.543295
7.804934 11.34961 -4.212142 0.6556565 0.6763456 -0.3356655 0.452569 0.130134
6.279174 12.55258 2.083239 0.5814419 0.7951367 0.1722877 0.315415 0.097476
4.211966 11.32542 8.118445 0.3808004 0.6759921 0.6308928 0.178261 0.130134
2.570774 5.421506 11.14394 0.2356382 0.2386086 0.9420938 0.694466 0.322118
3 0 1 3 
3 1 2 3 
3 4 10 7 
3 81 20 7 
3 23 5 82 
3 83 10 82 
3 84 11 7 
3 85 6 7 
3 9 86 8 
3 23 87 8 
3 16 88 22 
3 9 15 22 
3 83 89 90 
3 16 17 90 
3 14 11 12 
3 85 20 12 
3 13 91 21 
3 14 18 21 
3 92 93 7 
3 13 19 7 
3 94 15 95 
3 96 97 95 
3 98 18 99 
3 100 101 99 
3 9 97 102 
3 16 103 99 
3 14 101 104 
3 13 105 95 
3 106 87 95 
3 4 107 95 
3 108 20 99 
3 84 10 99 
3 100 103 21 
3 98 15 21 
3 13 6 109 
3 92 11 109 
3 16 5 110 
3 83 86 110 
3 36 38 42 
3 111 40 42 
3 24 33 41 
3 112 25 41 
3 30 34 39 
3 113 32 39 
3 35 31 37 
3 114 26 37 
3 43 27 28 
3 115 29 28 
3 112 29 116 
3 117 34 118 
3 111 26 119 
3 120 121 122 
3 113 123 118 
3 30 26 118 
3 124 32 122 
3 125 29 122 
3 112 126 127 
3 24 128 127 
3 117 33 129 
3 112 32 129 
3 130 25 131 
3 117 31 131 
3 111 132 133 
3 36 134 133 
3 120 38 39 
3 111 123 39 
3 135 40 136 
3 120 27 136 
3 130 137 138 
3 35 128 138 
3 36 139 37 
3 135 140 37 
3 141 140 131 
3 43 128 131 
3 44 51 50 
3 77 47 45 
3 47 77 46 
3 48 45 47 
3 46 64 47 
3 64 66 47 
3 47 66 48 
3 48 49 45 
3 66 49 48 
3 79 77 45 
3 49 142 45 
3 143 79 45 
3 51 144 50 
3 53 54 52 
3 53 52 51 
3 51 44 53 
3 44 54 53 
3 54 76 52 
3 52 76 55 
3 59 145 60 
3 145 59 146 
3 58 60 145 
3 145 56 57 
3 58 145 57 
3 58 57 60 
3 54 70 80 
3 78 59 60 
3 61 78 60 
3 57 71 60 
3 61 60 71 
3 62 46 61 
3 61 46 78 
3 74 61 71 
3 61 74 62 
3 62 63 46 
3 74 63 62 
3 63 64 46 
3 46 77 78 
3 44 65 54 
3 65 70 54 
3 44 50 65 
3 142 49 67 
3 66 68 49 
3 68 67 49 
3 64 68 66 
3 67 68 69 
3 63 69 68 
3 64 63 68 
3 74 71 75 
3 147 142 67 
3 73 67 69 
3 148 147 67 
3 73 148 67 
3 71 57 72 
3 56 149 57 
3 149 72 57 
3 72 149 148 
3 75 71 72 
3 69 75 72 
3 73 72 148 
3 73 69 72 
3 75 69 63 
3 74 75 63 
3 146 59 79 
3 76 54 80 
3 78 77 79 
3 59 78 79 
3 76 150 55 
3 76 80 150 
3 143 146 79 
