ply
format ascii 1.0
comment Created by Blender 2.79 (sub 0) - www.blender.org, source file: ''
comment TextureFile ../textures/green_pipe.bmp
element vertex 192
property float x
property float y
property float z
property float nx
property float ny
property float nz
property float s
property float t
element face 192
property list uchar uint vertex_indices
end_header
-6.125317 -1.656065 0.079264 0.037416 -0.999298 0.000000 1.500000 0.532525
-7.225919 -1.697276 0.079264 0.037416 -0.999298 0.000000 1.500000 0.585717
-5.659881 -1.656065 -2.269051 0.034547 -0.999298 0.014252 1.250000 0.532525
-6.676705 -1.697276 2.850276 0.034547 -0.999298 -0.014252 1.250000 0.585717
-5.659882 -1.656065 2.427579 0.034547 -0.999298 -0.014252 1.250000 0.532525
-5.112675 -1.697275 5.199427 0.026429 -0.999298 -0.026368 1.000000 0.585717
-4.334432 -1.656064 4.418385 0.026460 -0.999298 -0.026337 1.000000 0.532525
-2.771938 -1.697275 6.769082 0.014283 -0.999298 -0.034425 0.750000 0.585717
-2.350756 -1.656064 5.748600 0.014313 -0.999298 -0.034425 0.750000 0.532525
-0.010851 -1.697275 7.320269 0.000000 -0.999298 -0.037263 0.500000 0.585717
-0.010851 -1.656064 6.215710 0.000000 -0.999298 -0.037263 0.500000 0.532525
2.750236 -1.697275 6.769080 -0.014283 -0.999298 -0.034425 0.750000 0.585717
2.329053 -1.656064 5.748599 -0.014313 -0.999298 -0.034425 0.750000 0.532525
5.090972 -1.697275 5.199423 -0.026429 -0.999298 -0.026368 1.000000 0.585717
4.312728 -1.656064 4.418384 -0.026460 -0.999298 -0.026337 1.000000 0.532525
6.655001 -1.697276 2.850272 -0.034547 -0.999298 -0.014252 1.250000 0.585717
5.638177 -1.656065 2.427576 -0.034547 -0.999298 -0.014252 1.250000 0.532525
7.204214 -1.697276 0.079260 -0.037416 -0.999298 0.000000 1.500000 0.585717
6.103612 -1.656065 0.079261 -0.037416 -0.999298 0.000000 1.500000 0.532525
6.655000 -1.697276 -2.691752 -0.034547 -0.999298 0.014252 1.250000 0.585717
5.638175 -1.656065 -2.269056 -0.034547 -0.999298 0.014252 1.250000 0.532525
5.090968 -1.697277 -5.040905 -0.026429 -0.999298 0.026368 1.000000 0.585717
4.312726 -1.656066 -4.259862 -0.026460 -0.999298 0.026337 1.000000 0.532525
2.750232 -1.697277 -6.610559 -0.014283 -0.999298 0.034425 0.750000 0.585717
2.329050 -1.656066 -5.590077 -0.014313 -0.999298 0.034425 0.750000 0.532525
-0.010855 -1.697277 -7.161746 0.000000 -0.999298 0.037263 0.500000 0.585717
-0.010854 -1.656066 -6.057186 0.000000 -0.999298 0.037263 0.500000 0.532525
-2.771941 -1.697277 -6.610557 0.014283 -0.999298 0.034425 0.750000 0.585717
-2.350759 -1.656066 -5.590075 0.014313 -0.999298 0.034425 0.750000 0.532525
-5.112676 -1.697277 -5.040901 0.026429 -0.999298 0.026368 1.000000 0.585717
-4.334433 -1.656066 -4.259859 0.026460 -0.999298 0.026337 1.000000 0.532525
-6.676705 -1.697276 -2.691746 0.034547 -0.999298 0.014252 1.250000 0.585717
-7.348208 3.461476 0.079263 -0.856166 0.516678 0.000000 1.500000 0.787664
-6.689699 3.640806 -2.697147 -0.791314 0.516892 -0.326518 1.250020 0.791296
-6.789686 3.461476 -2.738713 -0.791223 0.516892 -0.326762 1.250000 0.787664
-7.239982 3.640807 0.079263 -0.856166 0.516678 0.000000 1.500000 0.791296
-6.789686 3.461477 2.897242 -0.791192 0.516892 0.326762 1.250000 0.787664
-6.689699 3.640807 2.855675 -0.791314 0.516892 0.326518 1.250020 0.791296
-5.199146 3.461477 5.286208 -0.605976 0.517350 0.604205 1.000000 0.787664
-5.122619 3.640808 5.209405 -0.606250 0.517350 0.603961 1.000000 0.791296
-2.818736 3.461477 6.882466 -0.328166 0.517838 0.790002 0.750000 0.787664
-2.777320 3.640808 6.782120 -0.328410 0.517838 0.789880 0.750020 0.791296
-0.010851 3.461477 7.442997 0.000000 0.518052 0.855342 0.500000 0.787664
-0.010851 3.640808 7.334382 0.000000 0.518052 0.855342 0.500000 0.791296
2.797034 3.461477 6.882464 0.328166 0.517838 0.790002 0.750000 0.787664
2.755618 3.640808 6.782117 0.328410 0.517838 0.789880 0.750020 0.791296
5.177444 3.461477 5.286204 0.605976 0.517350 0.604205 1.000000 0.787664
5.100916 3.640808 5.209403 0.606250 0.517350 0.603931 1.000000 0.791296
6.767982 3.461477 2.897238 0.791192 0.516892 0.326762 1.250000 0.787664
6.667994 3.640807 2.855674 0.791314 0.516892 0.326518 1.250020 0.791296
7.326503 3.461476 0.079259 0.856166 0.516678 0.000000 1.500000 0.787664
7.218277 3.640807 0.079259 0.856166 0.516678 0.000000 1.500000 0.791296
6.767981 3.461476 -2.738719 0.791192 0.516892 -0.326762 1.250000 0.787664
6.667993 3.640806 -2.697154 0.791314 0.516892 -0.326518 1.250020 0.791296
5.177439 3.461475 -5.127687 0.605976 0.517350 -0.604205 1.000000 0.787664
5.100912 3.640806 -5.050886 0.606250 0.517350 -0.603961 1.000000 0.791296
2.797029 3.461475 -6.723947 0.328166 0.517838 -0.790002 0.750000 0.787664
2.755613 3.640806 -6.623599 0.328410 0.517838 -0.789880 0.750020 0.791296
-0.010855 3.461475 -7.284475 0.000000 0.518052 -0.855342 0.500000 0.787664
-0.010855 3.640806 -7.175860 0.000000 0.518052 -0.855342 0.500000 0.791296
-2.818739 3.461475 -6.723945 -0.328166 0.517838 -0.790002 0.750000 0.787664
-2.777323 3.640806 -6.623597 -0.328410 0.517838 -0.789880 0.750020 0.791296
-5.199147 3.461475 -5.127685 -0.605976 0.517350 -0.604205 1.000000 0.787664
-5.122620 3.640806 -5.050881 -0.606250 0.517350 -0.603931 1.000000 0.791296
-7.239982 3.640807 0.079263 0.000000 1.000000 0.000000 1.500000 0.791296
-4.789928 3.640807 -1.907413 0.000000 1.000000 0.000000 1.250406 0.860311
-6.689699 3.640806 -2.697147 0.000000 0.999969 0.000000 1.250020 0.791296
-5.183690 3.640807 0.079263 0.000000 1.000000 0.000000 1.500003 0.860311
-6.689699 3.640807 2.855675 0.000000 1.000000 0.000000 1.250020 0.791296
-4.789928 3.640807 2.065938 0.000000 1.000000 0.000000 1.250406 0.860311
-5.122619 3.640808 5.209405 0.000000 1.000000 0.000000 1.000000 0.791296
-3.668599 3.640808 3.750158 0.000000 1.000000 0.000000 1.000003 0.860311
-2.777320 3.640808 6.782120 0.000000 1.000000 0.000000 0.750020 0.791296
-1.990411 3.640808 4.875518 0.000000 1.000000 0.000000 0.750406 0.860311
-0.010851 3.640808 7.334382 0.000000 1.000000 0.000000 0.500000 0.791296
-0.010851 3.640808 5.270695 0.000000 1.000000 0.000000 0.500002 0.860311
2.755618 3.640808 6.782117 0.000000 1.000000 0.000000 0.750020 0.791296
1.968709 3.640808 4.875518 0.000000 1.000000 0.000000 0.750406 0.860311
5.100916 3.640808 5.209403 0.000000 1.000000 0.000000 1.000000 0.791296
3.646896 3.640808 3.750158 0.000000 1.000000 0.000000 1.000003 0.860311
6.667994 3.640807 2.855674 0.000000 1.000000 0.000000 1.250020 0.791296
4.768225 3.640807 2.065937 0.000000 1.000000 0.000000 1.250406 0.860311
7.218277 3.640807 0.079259 0.000000 1.000000 0.000000 1.500000 0.791296
5.161984 3.640807 0.079260 0.000000 1.000000 0.000000 1.500003 0.860311
6.667993 3.640806 -2.697154 0.000000 1.000000 0.000000 1.250020 0.791296
4.768225 3.640807 -1.907416 0.000000 1.000000 0.000000 1.250406 0.860311
5.100912 3.640806 -5.050886 0.000000 1.000000 0.000000 1.000000 0.791296
3.646895 3.640806 -3.591637 0.000000 1.000000 0.000000 1.000003 0.860311
2.755613 3.640806 -6.623599 0.000000 1.000000 0.000000 0.750020 0.791296
1.968705 3.640806 -4.716998 0.000000 1.000000 0.000000 0.750406 0.860311
-0.010855 3.640806 -7.175860 0.000000 1.000000 0.000000 0.500000 0.791296
-0.010854 3.640806 -5.112172 0.000000 0.999969 0.000000 0.500002 0.860311
-2.777323 3.640806 -6.623597 0.000000 1.000000 0.000000 0.750020 0.791296
-1.990413 3.640806 -4.716998 0.000000 1.000000 0.000000 0.750406 0.860311
-5.122620 3.640806 -5.050881 0.000000 1.000000 0.000000 1.000000 0.791296
-3.668599 3.640806 -3.591635 0.000000 1.000000 0.000000 1.000003 0.860311
-7.348208 -1.530595 0.079264 -0.999969 0.000000 0.000000 1.500000 0.591628
-6.789686 3.461476 -2.738713 -0.924314 0.000000 -0.381573 1.250000 0.787664
-6.789686 -1.530595 -2.738712 -0.924314 0.000000 -0.381573 1.250000 0.591628
-7.348208 3.461476 0.079263 -0.999969 0.000000 0.000000 1.500000 0.787664
-6.789686 -1.530594 2.897242 -0.924314 0.000000 0.381573 1.250000 0.591628
-6.789686 3.461477 2.897242 -0.924314 0.000000 0.381573 1.250000 0.787664
-5.199146 -1.530594 5.286209 -0.708274 0.000000 0.705924 1.000000 0.591628
-5.199146 3.461477 5.286208 -0.708274 0.000000 0.705924 1.000000 0.787664
-2.818736 -1.530594 6.882467 -0.383740 0.000000 0.923429 0.750000 0.591628
-2.818736 3.461477 6.882466 -0.383740 0.000000 0.923429 0.750000 0.787664
-0.010851 -1.530594 7.442997 0.000000 0.000000 1.000000 0.500000 0.591628
-0.010851 3.461477 7.442997 0.000000 0.000000 1.000000 0.500000 0.787664
2.797034 -1.530594 6.882465 0.383740 0.000000 0.923429 0.750000 0.591628
2.797034 3.461477 6.882464 0.383740 0.000000 0.923429 0.750000 0.787664
5.177444 -1.530594 5.286205 0.708274 0.000000 0.705924 1.000000 0.591628
5.177444 3.461477 5.286204 0.708274 0.000000 0.705924 1.000000 0.787664
6.767982 -1.530594 2.897239 0.924314 0.000000 0.381573 1.250000 0.591628
6.767982 3.461477 2.897238 0.924314 0.000000 0.381573 1.250000 0.787664
7.326503 -1.530595 0.079260 0.999969 0.000000 0.000000 1.500000 0.591628
7.326503 3.461476 0.079259 1.000000 0.000000 0.000000 1.500000 0.787664
6.767981 -1.530595 -2.738718 0.924314 0.000000 -0.381573 1.250000 0.591628
6.767981 3.461476 -2.738719 0.924314 0.000000 -0.381573 1.250000 0.787664
5.177439 -1.530596 -5.127687 0.708274 0.000000 -0.705924 1.000000 0.591628
5.177439 3.461475 -5.127687 0.708274 0.000000 -0.705924 1.000000 0.787664
2.797029 -1.530596 -6.723946 0.383740 0.000000 -0.923429 0.750000 0.591628
2.797029 3.461475 -6.723947 0.383740 0.000000 -0.923429 0.750000 0.787664
-0.010855 -1.530596 -7.284474 0.000000 0.000000 -1.000000 0.500000 0.591628
-0.010855 3.461475 -7.284475 0.000000 0.000000 -1.000000 0.500000 0.787664
-2.818739 -1.530596 -6.723944 -0.383740 0.000000 -0.923429 0.750000 0.591628
-2.818739 3.461475 -6.723945 -0.383740 0.000000 -0.923429 0.750000 0.787664
-5.199147 -1.530596 -5.127684 -0.708274 0.000000 -0.705924 1.000000 0.591628
-5.199147 3.461475 -5.127685 -0.708274 0.000000 -0.705924 1.000000 0.787664
-6.789686 -1.530595 -2.738712 -0.745048 -0.591723 -0.307718 1.250000 0.591628
-6.676705 -1.697276 -2.691746 -0.745170 -0.591723 -0.307443 1.250000 0.585717
-7.225919 -1.697276 0.079264 -0.806269 -0.591510 0.000000 1.500000 0.585717
-5.112676 -1.697277 -5.040901 -0.570849 -0.592212 -0.568651 1.000000 0.585717
-5.199147 -1.530596 -5.127684 -0.570574 -0.592212 -0.568926 1.000000 0.591628
-2.771941 -1.697277 -6.610557 -0.309214 -0.592700 -0.743675 0.750000 0.585717
-2.818739 -1.530596 -6.723944 -0.308939 -0.592700 -0.743767 0.750000 0.591628
-0.010855 -1.697277 -7.161746 0.000000 -0.592914 -0.805231 0.500000 0.585717
-0.010855 -1.530596 -7.284474 0.000000 -0.592914 -0.805231 0.500000 0.591628
2.750232 -1.697277 -6.610559 0.309214 -0.592700 -0.743675 0.750000 0.585717
2.797029 -1.530596 -6.723946 0.308939 -0.592700 -0.743767 0.750000 0.591628
5.090968 -1.697277 -5.040905 0.570849 -0.592212 -0.568651 1.000000 0.585717
5.177439 -1.530596 -5.127687 0.570574 -0.592212 -0.568926 1.000000 0.591628
6.655000 -1.697276 -2.691752 0.745170 -0.591723 -0.307443 1.250000 0.585717
6.767981 -1.530595 -2.738718 0.745048 -0.591723 -0.307718 1.250000 0.591628
7.204214 -1.697276 0.079260 0.806269 -0.591540 0.000000 1.500000 0.585717
7.326503 -1.530595 0.079260 0.806269 -0.591540 0.000000 1.500000 0.591628
6.655001 -1.697276 2.850272 0.745170 -0.591723 0.307443 1.250000 0.585717
6.767982 -1.530594 2.897239 0.745048 -0.591723 0.307718 1.250000 0.591628
5.090972 -1.697275 5.199423 0.570849 -0.592212 0.568651 1.000000 0.585717
5.177444 -1.530594 5.286205 0.570574 -0.592212 0.568926 1.000000 0.591628
2.750236 -1.697275 6.769080 0.309214 -0.592700 0.743675 0.750000 0.585717
2.797034 -1.530594 6.882465 0.308969 -0.592700 0.743767 0.750000 0.591628
-0.010851 -1.697275 7.320269 0.000000 -0.592914 0.805231 0.500000 0.585717
-0.010851 -1.530594 7.442997 0.000000 -0.592914 0.805231 0.500000 0.591628
-2.771938 -1.697275 6.769082 -0.309214 -0.592700 0.743675 0.750000 0.585717
-2.818736 -1.530594 6.882467 -0.308969 -0.592700 0.743767 0.750000 0.591628
-5.112675 -1.697275 5.199427 -0.570849 -0.592212 0.568651 1.000000 0.585717
-5.199146 -1.530594 5.286209 -0.570574 -0.592212 0.568926 1.000000 0.591628
-6.676705 -1.697276 2.850276 -0.745170 -0.591723 0.307443 1.250000 0.585717
-6.789686 -1.530594 2.897242 -0.745048 -0.591723 0.307718 1.250000 0.591628
-7.348208 -1.530595 0.079264 -0.806269 -0.591510 0.000000 1.500000 0.591628
2.329050 -1.656066 -5.590077 0.383496 0.003082 -0.923521 0.750000 0.532525
2.380004 -17.151543 -5.620753 0.384014 0.003082 -0.923307 0.750000 0.000000
0.040099 -17.151545 -6.087869 0.000397 0.001953 -0.999969 0.500000 0.000000
4.363683 -17.151543 -4.290507 0.708335 0.003723 -0.705832 1.000000 0.000000
4.312726 -1.656066 -4.259862 0.708182 0.003723 -0.705985 1.000000 0.532525
5.689133 -17.151543 -2.299682 0.924284 0.003784 -0.381634 1.250000 0.000000
5.638175 -1.656065 -2.269056 0.924345 0.003784 -0.381512 1.250000 0.532525
6.154570 -17.151543 0.048655 0.999969 0.003265 -0.000244 1.500000 0.000000
6.103612 -1.656065 0.079261 0.999969 0.003265 0.000244 1.500000 0.532525
5.689135 -17.151543 2.396990 0.924467 0.002258 0.381237 1.250000 0.000000
5.638177 -1.656065 2.427576 0.924161 0.002258 0.381939 1.250000 0.532525
4.363686 -17.151543 4.387811 0.708579 0.000916 0.705588 1.000000 0.000000
4.312728 -1.656064 4.418384 0.707938 0.000916 0.706259 1.000000 0.532525
2.380008 -17.151543 5.718041 0.384198 -0.000549 0.923246 0.750000 0.000000
2.329053 -1.656064 5.748599 0.383312 -0.000549 0.923582 0.750000 0.532525
0.040102 -17.151541 6.185146 0.000397 -0.001953 0.999969 0.500000 0.000000
-0.010851 -1.656064 6.215710 -0.000397 -0.001953 0.999969 0.500000 0.532525
-2.299802 -17.151543 5.718041 -0.383496 -0.003082 0.923521 0.750000 0.000000
-2.350756 -1.656064 5.748600 -0.384014 -0.003082 0.923307 0.750000 0.532525
-4.283476 -17.151543 4.387811 -0.708182 -0.003693 0.705985 1.000000 0.000000
-4.334432 -1.656064 4.418385 -0.708335 -0.003693 0.705832 1.000000 0.532525
-5.608926 -17.151543 2.396996 -0.924345 -0.003784 0.381512 1.250000 0.000000
-5.659882 -1.656065 2.427579 -0.924284 -0.003784 0.381634 1.250000 0.532525
-6.074362 -17.151543 0.048655 -0.999969 -0.003265 -0.000244 1.500000 0.000000
-6.125317 -1.656065 0.079264 -0.999969 -0.003265 0.000244 1.500000 0.532525
-5.608925 -17.151543 -2.299676 -0.924161 -0.002258 -0.381939 1.250000 0.000000
-5.659881 -1.656065 -2.269051 -0.924467 -0.002258 -0.381237 1.250000 0.532525
-4.283478 -17.151543 -4.290507 -0.707938 -0.000916 -0.706229 1.000000 0.000000
-4.334433 -1.656066 -4.259859 -0.708579 -0.000916 -0.705588 1.000000 0.532525
-2.299805 -17.151543 -5.620753 -0.383312 0.000549 -0.923582 0.750000 0.000000
-2.350759 -1.656066 -5.590075 -0.384198 0.000549 -0.923246 0.750000 0.532525
-0.010854 -1.656066 -6.057186 -0.000397 0.001953 -0.999969 0.500000 0.532525
3 0 1 2
3 0 3 1
3 4 3 0
3 4 5 3
3 6 5 4
3 6 7 5
3 8 7 6
3 8 9 7
3 10 9 8
3 10 11 9
3 12 11 10
3 12 13 11
3 14 13 12
3 14 15 13
3 16 15 14
3 16 17 15
3 18 17 16
3 18 19 17
3 20 19 18
3 20 21 19
3 22 21 20
3 22 23 21
3 24 23 22
3 24 25 23
3 26 25 24
3 26 27 25
3 28 27 26
3 28 29 27
3 30 29 28
3 30 31 29
3 2 31 30
3 2 1 31
3 32 33 34
3 32 35 33
3 36 35 32
3 36 37 35
3 38 37 36
3 38 39 37
3 40 39 38
3 40 41 39
3 42 41 40
3 42 43 41
3 44 43 42
3 44 45 43
3 46 45 44
3 46 47 45
3 48 47 46
3 48 49 47
3 50 49 48
3 50 51 49
3 52 51 50
3 52 53 51
3 54 53 52
3 54 55 53
3 56 55 54
3 56 57 55
3 58 57 56
3 58 59 57
3 60 59 58
3 60 61 59
3 62 61 60
3 62 63 61
3 34 63 62
3 34 33 63
3 64 65 66
3 64 67 65
3 68 67 64
3 68 69 67
3 70 69 68
3 70 71 69
3 72 71 70
3 72 73 71
3 74 73 72
3 74 75 73
3 76 75 74
3 76 77 75
3 78 77 76
3 78 79 77
3 80 79 78
3 80 81 79
3 82 81 80
3 82 83 81
3 84 83 82
3 84 85 83
3 86 85 84
3 86 87 85
3 88 87 86
3 88 89 87
3 90 89 88
3 90 91 89
3 92 91 90
3 92 93 91
3 94 93 92
3 94 95 93
3 66 95 94
3 66 65 95
3 96 97 98
3 96 99 97
3 100 99 96
3 100 101 99
3 102 101 100
3 102 103 101
3 104 103 102
3 104 105 103
3 106 105 104
3 106 107 105
3 108 107 106
3 108 109 107
3 110 109 108
3 110 111 109
3 112 111 110
3 112 113 111
3 114 113 112
3 114 115 113
3 116 115 114
3 116 117 115
3 118 117 116
3 118 119 117
3 120 119 118
3 120 121 119
3 122 121 120
3 122 123 121
3 124 123 122
3 124 125 123
3 126 125 124
3 126 127 125
3 98 127 126
3 98 97 127
3 128 129 130
3 128 131 129
3 132 131 128
3 132 133 131
3 134 133 132
3 134 135 133
3 136 135 134
3 136 137 135
3 138 137 136
3 138 139 137
3 140 139 138
3 140 141 139
3 142 141 140
3 142 143 141
3 144 143 142
3 144 145 143
3 146 145 144
3 146 147 145
3 148 147 146
3 148 149 147
3 150 149 148
3 150 151 149
3 152 151 150
3 152 153 151
3 154 153 152
3 154 155 153
3 156 155 154
3 156 157 155
3 158 157 156
3 158 130 157
3 159 130 158
3 159 128 130
3 160 161 162
3 160 163 161
3 164 163 160
3 164 165 163
3 166 165 164
3 166 167 165
3 168 167 166
3 168 169 167
3 170 169 168
3 170 171 169
3 172 171 170
3 172 173 171
3 174 173 172
3 174 175 173
3 176 175 174
3 176 177 175
3 178 177 176
3 178 179 177
3 180 179 178
3 180 181 179
3 182 181 180
3 182 183 181
3 184 183 182
3 184 185 183
3 186 185 184
3 186 187 185
3 188 187 186
3 188 189 187
3 190 189 188
3 190 191 189
3 162 191 160
3 162 189 191
