ply
format ascii 1.0
comment VCGLIB generated
comment TextureFile ../textures/pirahna_plant.bmp
element vertex 251
property float x
property float y
property float z
property float nx
property float ny
property float nz
property float texture_u
property float texture_v
element face 137
property list uchar int vertex_indices
end_header
34.75872 -11.25519 -15.38474 15.08335 -82.85134 -53.92728 0.357953 0.406583
21.44846 -0.1125394 -36.22663 15.08339 -82.85134 -53.92725 0.488423 0.406583
6.97541 -23.57476 -4.228465 15.08339 -82.85134 -53.92725 0.357953 0.670685
-6.33486 -12.43211 -25.07039 15.08343 -82.85134 -53.92725 0.488423 0.670685
-34.75872 -3.06642 -8.949365 -43.55017 -69.10487 -57.68797 0.488423 0.409218
-21.43066 6.547521 -30.52768 -43.55019 -69.10487 -57.68797 0.357953 0.409218
3.034169 -13.8843 -24.52139 -43.55017 -69.10487 -57.68797 0.357953 0.670685
-10.29388 -23.49824 -2.943085 -43.55017 -69.10487 -57.68797 0.488423 0.670685
12.49649 1.002311 11.47896 99.5873 2.040522 -8.843534 0.150242 0.166202
-16.31472 1.09454 11.52876 -99.45103 3.086403 -9.998405 0.136004 0.164664
-17.5079 0.6287005 23.25315 -90.93936 -10.60956 40.2178 0.566044 0.040518
-17.49238 4.849941 24.40182 -82.03941 -14.73257 55.24934 0.567211 0.163341
-2.020301 -1.759979 31.82199 -0.2202045 -26.25552 96.49146 0.431580 0.027488
-2.00479 2.46125 32.97063 -0.2200844 -26.25548 96.49147 0.431734 0.163757
13.55312 0.5115505 23.26447 90.52731 -11.46382 40.90706 0.565743 0.028395
13.56863 4.73278 24.41311 81.6253 -15.44716 55.66595 0.566946 0.162815
0.00014925 6.70709 33.66908 5.977029 33.77752 93.93272 0.436742 0.163742
14.99185 4.6726 24.65094 80.17307 25.41381 54.09639 0.974697 0.162091
-15.92933 3.17061 27.18567 -72.45135 17.97125 66.54199 0.025303 0.165004
-0.2827806 10.34944 32.37732 5.856336 33.77169 93.94241 0.436376 0.044343
-16.24879 7.282921 25.72721 -77.49594 15.6926 61.22193 0.025957 0.034532
16.16735 5.240351 10.99693 99.00103 10.8739 8.97534 0.882448 0.163165
14.68152 8.66742 23.23414 84.51298 23.57983 47.97447 0.973242 0.031625
-19.35778 3.51473 13.90911 -96.80633 1.358137 25.03382 0.073537 0.164856
-15.7511 0.9526205 6.568436 25.42389 93.26216 25.60855 0.000000 0.000000
-1.977921 6.18924 -5.006145 0.2508117 76.44384 -64.46921 1.000000 1.000000
15.38245 3.30611 4.402276 51.09732 70.83038 -48.70446 1.000000 1.000000
11.81009 0.8486905 6.578495 -23.98712 94.06194 24.02023 0.000000 0.000000
13.8682 1.206551 23.32449 43.4665 79.94511 41.46618 1.000000 1.000000
-2.01853 -1.27758 31.95325 -0.5770959 79.81113 60.24827 0.552571 0.593147
10.12786 -13.42912 16.94028 51.99088 -85.11314 7.259833 0.074727 0.555032
-2.06239 -14.86684 10.24948 -0.4035133 -94.71798 -32.06779 0.171261 0.518440
-14.18347 -13.33743 16.93143 -55.02695 -83.35069 4.969771 0.244753 0.596253
-13.53863 -9.098249 5.391026 -52.42083 -64.40695 -55.71177 0.266042 0.498055
-20.69168 0.06669056 6.320496 -90.82135 -11.04458 -40.36708 0.192696 0.613502
-1.98509 4.292761 -4.939285 0.3389006 -13.93177 -99.0242 0.262025 0.645007
-2.02213 -5.336599 -2.637115 1.426092 -46.63207 -88.45009 0.203807 0.410812
9.522759 -9.1852 5.399415 50.38326 -63.82084 -58.21022 0.104775 0.458978
14.39731 -7.83534 21.31821 62.11243 -75.87425 19.62516 0.091701 0.497237
-2.066581 -14.85435 22.81816 0.4704689 -93.11655 36.45667 0.147470 0.625498
-2.04241 -7.23333 36.22663 -0.1973195 -25.4497 96.70717 0.025303 0.285338
-17.81777 1.32605 23.31297 -39.48406 82.59716 40.23333 1.000000 0.000000
-2.05219 -10.45475 29.2617 -0.1161172 -87.59966 48.2316 0.068015 0.549201
-18.41362 -7.711609 21.30626 -62.88668 -75.64238 17.98604 0.207737 0.628773
16.74403 -0.07447946 6.334126 90.465 -11.05215 -41.15743 0.288262 0.641169
-21.96499 -4.627639 23.11205 -90.38178 -18.82709 38.42753 0.592517 0.292982
17.9706 -4.77823 23.12661 90.18636 -19.51767 38.54197 0.517925 0.302998
-19.30338 3.436921 4.389645 -50.57863 71.24361 -48.64312 1.000000 1.000000
-2.86882 1.154641 -4.603385 -2.332998 -71.90417 -69.45755 1.000000 1.000000
-16.54007 6.8731 25.76032 -25.56556 -75.22642 60.72389 1.000000 1.000000
-20.2132 1.840661 9.376455 -69.93552 -71.35545 -4.174507 0.000000 0.000000
-19.22564 3.984611 5.081725 -74.05475 -31.87438 -59.16012 1.000000 1.000000
-3.116221 5.247701 -5.194625 -8.86301 1.763814 -99.59085 0.216917 0.529588
-3.48033 16.01421 -3.254745 -10.88573 41.7254 -90.22469 0.191432 0.632090
-1.94657 26.24693 21.51035 -3.918345 92.90333 36.79156 0.133653 0.459618
14.67063 18.03533 19.46626 70.30293 68.1272 20.40058 0.191250 0.628071
9.1553 20.49782 3.433185 50.244 61.92593 -60.33838 0.265838 0.469613
9.790669 25.1407 14.69703 55.39728 83.22987 1.983023 0.225843 0.519467
-14.41122 23.9651 16.68098 -60.32237 78.3973 14.66554 0.117105 0.593294
-2.980391 26.20904 8.882105 -7.553112 93.51697 -34.60534 0.141948 0.605560
-15.16645 19.25743 5.448155 -64.47695 55.19508 -52.87936 0.056480 0.648286
-20.3958 8.525701 6.518095 -89.6759 11.53076 -42.72324 0.025303 0.538180
16.49405 3.6237 6.367414 73.68361 -65.99664 -14.66877 1.000000 0.000000
14.87611 5.682961 2.404265 67.20473 -25.68589 -69.45329 1.000000 0.000000
19.78251 12.41911 21.82187 92.6768 8.35407 36.6227 0.462047 0.304843
15.61416 10.37188 3.464776 79.49087 21.6177 -56.69109 0.288164 0.588073
-21.83974 10.39734 25.23384 -85.74992 -0.7001793 51.44377 0.465474 0.304316
-0.9007907 20.12174 30.63237 0.7112479 77.43986 63.26582 0.055348 0.555741
-0.2599704 10.05571 32.48149 7.765258 -71.63384 69.34187 0.000000 0.000000
15.06548 8.40833 23.16945 42.53372 -73.25432 53.1478 0.000000 0.000000
-0.2657106 15.5799 35.68488 6.455969 18.9324 97.97901 0.299949 0.294563
-17.74372 16.46082 22.12344 -71.53682 61.78501 32.63583 0.158763 0.629046
-1.047441 2.59807 -3.397635 87.80129 42.42899 -22.15212 0.666736 0.688091
-2.66691 0.2271705 -2.125305 -1.117061 -88.57896 46.39528 0.564469 0.687777
-3.669161 -5.01444 -12.11199 -1.560325 -88.39329 46.73536 0.545355 0.818189
-4.222271 2.775651 -3.169265 -85.21159 51.43375 -9.67243 0.561318 0.684077
-5.716701 -1.571939 -13.45809 -84.67343 52.32006 -9.644902 0.545355 0.818189
-1.483601 -1.846429 -13.74488 88.26276 41.83207 -21.44217 0.675824 0.818589
-1.621871 -1.76398 -14.35586 91.65261 18.95792 -35.21928 0.669382 0.684672
-3.34445 -13.18397 -14.22223 -10.6931 -27.04329 95.67822 0.545355 0.818189
-5.184521 -12.10045 -18.12658 -80.96679 14.58062 -56.84882 0.539296 0.817379
-3.968 -2.78167 -11.33869 -10.86885 -26.90895 95.69628 0.548665 0.684302
-5.588591 -1.855919 -14.87701 -80.74682 15.02503 -57.04561 0.549196 0.683249
-0.7206006 -11.99262 -17.5552 91.5633 19.03827 -35.40773 0.675824 0.818589
1.234869 -22.58562 -14.36657 77.3456 -4.698592 -63.21062 0.675824 0.818589
-1.599991 -11.70197 -18.55927 77.4812 -4.274089 -63.07455 0.670431 0.686521
-0.5082204 -21.36923 -10.28924 12.1073 41.51258 90.16718 0.545355 0.818189
-3.15408 -10.59795 -14.87534 12.18744 41.46766 90.17706 0.546551 0.686141
-5.662311 -12.36503 -17.77975 -90.27579 -31.23206 -29.5777 0.549182 0.687730
-3.241281 -23.28793 -13.43705 -90.58472 -31.43876 -28.39041 0.539030 0.818169
-6.478101 -21.10763 -12.05346 -53.15411 84.56635 4.813866 0.567741 0.738394
-1.96033 -20.71648 -17.05701 -7.813796 88.86005 -45.19777 0.651030 0.738649
-2.837171 -23.85513 -20.96298 -11.23869 78.63998 -60.74083 0.675824 0.818589
3.424759 -22.13767 -7.659275 45.58627 74.50669 48.68929 0.567483 0.736284
-4.787721 -26.03998 -3.509775 -26.41385 61.965 73.90974 0.679251 0.818599
-3.120081 -22.01113 -6.291535 -19.67689 75.69707 62.31192 0.652881 0.736810
-10.17065 -24.55649 -12.90304 -68.3274 72.99951 1.561721 0.545355 0.818189
-0.7447104 -20.04134 -11.3026 4.383682 99.11403 12.53769 0.610119 0.671048
4.226059 -21.31458 -14.29047 53.44498 82.61349 -17.85068 0.567219 0.736547
7.139509 -24.89115 -16.52054 65.78931 70.4088 -26.72769 0.675824 0.818589
5.91645 -26.24693 -5.746745 56.0788 60.24539 56.79492 0.545355 0.818189
-17.49238 4.849941 24.40182 -82.03941 -14.73257 55.24934 0.964420 0.162913
-17.5079 0.6287005 23.25315 -90.93936 -10.60956 40.2178 0.964266 0.026908
13.56863 4.73278 24.41311 81.6253 -15.44716 55.66595 0.027396 0.159990
-2.020301 -1.759979 31.82199 -0.2202045 -26.25552 96.49146 0.566811 0.032872
13.55312 0.5115505 23.26447 90.52731 -11.46382 40.90706 0.026983 0.025303
-2.00479 2.46125 32.97063 -0.2200844 -26.25548 96.49147 0.567211 0.163341
-0.2827806 10.34944 32.37732 5.856336 33.77169 93.94241 0.566845 0.043942
0.00014925 6.70709 33.66908 5.977029 33.77752 93.93272 0.567211 0.163341
14.99185 4.6726 24.65094 80.17307 25.41381 54.09639 0.431997 0.163493
14.68152 8.66742 23.23414 84.51298 23.57983 47.97447 0.429217 0.030659
-15.92933 3.17061 27.18567 -72.45135 17.97125 66.54199 0.566157 0.163345
-16.24879 7.282921 25.72721 -77.49594 15.6926 61.22193 0.566811 0.032872
-19.30338 3.436921 4.389645 -50.57863 71.24361 -48.64312 1.000000 0.000000
-1.977921 6.18924 -5.006145 0.2508117 76.44384 -64.46921 1.000000 0.000000
15.38245 3.30611 4.402276 51.09732 70.83038 -48.70446 1.000000 0.000000
-1.977921 6.18924 -5.006145 0.2508117 76.44384 -64.46921 0.643034 0.406583
-15.7511 0.9526205 6.568436 25.42389 93.26216 25.60855 0.581921 0.409949
11.81009 0.8486905 6.578495 -23.98712 94.06194 24.02023 0.643037 0.528487
13.8682 1.206551 23.32449 43.4665 79.94511 41.46618 0.609417 0.616752
-17.81777 1.32605 23.31297 -39.48406 82.59716 40.23333 0.539030 0.480232
-2.066581 -14.85435 22.81816 0.4704689 -93.11655 36.45667 0.125797 0.464002
-14.18347 -13.33743 16.93143 -55.02695 -83.35069 4.969771 0.230629 0.517901
-18.41362 -7.711609 21.30626 -62.88668 -75.64238 17.98604 0.076099 0.542231
-13.53863 -9.098249 5.391026 -52.42083 -64.40695 -55.71177 0.197493 0.509175
-14.18347 -13.33743 16.93143 -55.02695 -83.35069 4.969771 0.107558 0.479507
-2.05219 -10.45475 29.2617 -0.1161172 -87.59966 48.2316 0.190707 0.593715
-2.066581 -14.85435 22.81816 0.4704689 -93.11655 36.45667 0.230525 0.545269
-13.53863 -9.098249 5.391026 -52.42083 -64.40695 -55.71177 0.179516 0.474195
-20.69168 0.06669056 6.320496 -90.82135 -11.04458 -40.36708 0.090261 0.547671
-2.02213 -5.336599 -2.637115 1.426092 -46.63207 -88.45009 0.285339 0.549137
-2.02213 -5.336599 -2.637115 1.426092 -46.63207 -88.45009 0.132733 0.461820
-1.98509 4.292761 -4.939285 0.3389006 -13.93177 -99.0242 0.072528 0.529101
9.522759 -9.1852 5.399415 50.38326 -63.82084 -58.21022 0.277688 0.523799
9.522759 -9.1852 5.399415 50.38326 -63.82084 -58.21022 0.145347 0.655965
16.74403 -0.07447946 6.334126 90.465 -11.05215 -41.15743 0.095896 0.551097
10.12786 -13.42912 16.94028 51.99088 -85.11314 7.259833 0.286040 0.646266
14.39731 -7.83534 21.31821 62.11242 -75.87424 19.62516 0.295444 0.569506
10.12786 -13.42912 16.94028 51.99088 -85.11314 7.259833 0.160238 0.472548
-17.81777 1.32605 23.31297 -39.48406 82.59716 40.23333 0.553508 0.216809
-19.30338 3.436921 4.389645 -50.57863 71.24361 -48.64312 0.283607 0.287974
-2.01853 -1.27758 31.95325 -0.5770959 79.81113 60.24827 0.093042 0.222871
13.8682 1.206551 23.32449 43.4665 79.94511 41.46618 0.466265 0.223661
14.39731 -7.83534 21.31821 62.11243 -75.87425 19.62516 0.468900 0.348596
-2.05219 -10.45475 29.2617 -0.1161172 -87.59966 48.2316 0.093306 0.352286
-21.96499 -4.627639 23.11205 -90.38178 -18.82709 38.42753 0.122562 0.294827
-18.41362 -7.711609 21.30626 -62.88668 -75.64238 17.98604 0.163417 0.341743
-2.04241 -7.23333 36.22663 -0.1973195 -25.4497 96.70717 0.527151 0.291664
-17.81777 1.32605 23.31297 -39.48406 82.59716 40.23333 0.168425 0.217599
-2.01853 -1.27758 31.95325 -0.5770959 79.81113 60.24827 0.475753 0.227615
-2.05219 -10.45475 29.2617 -0.1161172 -87.59966 48.2316 0.472854 0.355976
16.74403 -0.07447946 6.334126 90.465 -11.05215 -41.15743 0.146284 0.331464
-1.98509 4.292761 -4.939285 0.3389006 -13.93177 -99.0242 0.630208 0.320130
15.38245 3.30611 4.402276 51.09732 70.83038 -48.70446 0.210069 0.276904
-18.41362 -7.711609 21.30626 -62.88668 -75.64238 17.98604 0.583028 0.340952
-20.69168 0.06669056 6.320496 -90.82135 -11.04458 -40.36708 0.332368 0.320921
15.38245 3.30611 4.402276 51.09732 70.83038 -48.70446 0.518716 0.290346
17.9706 -4.77823 23.12661 90.18636 -19.51767 38.54197 0.308647 0.305897
16.74403 -0.07447946 6.334126 90.465 -11.05215 -41.15743 0.486823 0.326456
14.39731 -7.83534 21.31821 62.11242 -75.87424 19.62516 0.317872 0.355976
13.8682 1.206551 23.32449 43.4665 79.94511 41.46618 0.331578 0.224716
-1.977921 6.18924 -5.006145 0.2508117 76.44384 -64.46921 0.641542 0.287710
-1.977921 6.18924 -5.006145 0.2508117 76.44384 -64.46921 0.317081 0.291137
-1.98509 4.292761 -4.939285 0.3389006 -13.93177 -99.0242 0.317872 0.324084
-19.30338 3.436921 4.389645 -50.57863 71.24361 -48.64312 0.443070 0.260562
-20.69168 0.06669056 6.320496 -90.82135 -11.04458 -40.36708 0.457830 0.313541
-0.2599704 10.05571 32.48149 7.765258 -71.63384 69.34187 1.000000 1.000000
-16.54007 6.8731 25.76032 -25.56556 -75.22642 60.72389 0.000000 0.000000
-20.2132 1.840661 9.376455 -69.93552 -71.35545 -4.174507 1.000000 1.000000
16.49405 3.6237 6.367414 73.68361 -65.99664 -14.66877 0.000000 0.000000
-2.86882 1.154641 -4.603385 -2.332998 -71.90417 -69.45755 1.000000 0.000000
-2.86882 1.154641 -4.603385 -2.332998 -71.90417 -69.45755 0.220800 0.491055
-19.22564 3.984611 5.081725 -74.05475 -31.87438 -59.16012 0.046463 0.495664
-2.86882 1.154641 -4.603385 -2.332998 -71.90417 -69.45755 0.049616 0.615549
-3.116221 5.247701 -5.194625 -8.86301 1.763814 -99.59085 0.059820 0.575398
14.87611 5.682961 2.404265 67.20473 -25.68589 -69.45329 0.259094 0.630724
-3.48033 16.01421 -3.254745 -10.88573 41.7254 -90.22469 0.104709 0.471599
9.790669 25.1407 14.69703 55.39728 83.22987 1.983023 0.146580 0.516209
-1.94657 26.24693 21.51035 -3.918345 92.90333 36.79156 0.051348 0.577633
9.1553 20.49782 3.433185 50.244 61.92593 -60.33838 0.220200 0.507901
9.790669 25.1407 14.69703 55.39728 83.22987 1.983023 0.124945 0.456297
14.67063 18.03533 19.46626 70.30293 68.1272 20.40058 0.078023 0.546914
15.61416 10.37188 3.464776 79.49087 21.6177 -56.69109 0.205775 0.638836
9.1553 20.49782 3.433185 50.244 61.92593 -60.33838 0.266985 0.406660
-2.980391 26.20904 8.882105 -7.553112 93.51697 -34.60534 0.201999 0.508659
9.790669 25.1407 14.69703 55.39728 83.22987 1.983023 0.307347 0.481173
-3.48033 16.01421 -3.254745 -10.88573 41.7254 -90.22469 0.151603 0.406583
-2.980391 26.20904 8.882105 -7.553112 93.51697 -34.60534 0.192392 0.501525
9.1553 20.49782 3.433185 50.244 61.92593 -60.33838 0.267216 0.406788
-15.16645 19.25743 5.448155 -64.47695 55.19508 -52.87936 0.083116 0.515984
-1.94657 26.24693 21.51035 -3.918345 92.90333 36.79156 0.225126 0.577838
-14.41122 23.9651 16.68098 -60.32237 78.3973 14.66554 0.192256 0.579505
-15.16645 19.25743 5.448155 -64.47695 55.19508 -52.87936 0.132478 0.520446
-20.3958 8.525701 6.518095 -89.6759 11.53076 -42.72324 0.063793 0.551381
-1.94657 26.24693 21.51035 -3.918345 92.90333 36.79156 0.231819 0.503794
-14.41122 23.9651 16.68098 -60.32236 78.39729 14.66554 0.117416 0.453027
-17.74372 16.46082 22.12344 -71.53682 61.78501 32.63583 0.060291 0.528344
-0.9007907 20.12174 30.63237 0.7112479 77.43986 63.26582 0.218089 0.610101
15.06548 8.40833 23.16945 42.53372 -73.25432 53.1478 0.436744 0.348069
-17.74372 16.46082 22.12344 -71.53682 61.78501 32.63583 0.457303 0.222344
-20.3958 8.525701 6.518095 -89.6759 11.53076 -42.72324 0.321298 0.244220
-16.54007 6.8731 25.76032 -25.56556 -75.22642 60.72389 0.454140 0.352550
-20.2132 1.840661 9.376455 -69.93552 -71.35545 -4.174507 0.322089 0.336472
-19.22564 3.984611 5.081725 -74.05475 -31.87438 -59.16012 0.296522 0.293245
15.06548 8.40833 23.16945 42.53372 -73.25432 53.1478 0.320244 0.351759
16.49405 3.6237 6.367414 73.68361 -65.99664 -14.66877 0.441752 0.335154
19.78251 12.41911 21.82187 92.6768 8.35407 36.6227 0.312600 0.302998
14.87611 5.682961 2.404265 67.20473 -25.68589 -69.45329 0.466792 0.298517
14.67063 18.03533 19.46626 70.30293 68.1272 20.40058 0.323670 0.235786
15.61416 10.37188 3.464776 79.49087 21.6177 -56.69109 0.447287 0.252918
-16.54007 6.8731 25.76032 -25.56556 -75.22642 60.72389 0.338958 0.348860
-0.2599704 10.05571 32.48149 7.765258 -71.63384 69.34187 0.450714 0.350441
-21.83974 10.39734 25.23384 -85.74992 -0.7001793 51.44377 0.313391 0.301153
14.67063 18.03533 19.46626 70.30293 68.1272 20.40058 0.435953 0.227088
-0.9007907 20.12174 30.63237 0.7112479 77.43986 63.26582 0.309174 0.224452
-0.2599704 10.05571 32.48149 7.765258 -71.63384 69.34187 0.318399 0.343588
-0.2657106 15.5799 35.68488 6.455969 18.9324 97.97901 0.466792 0.298253
-17.74372 16.46082 22.12344 -71.53682 61.78501 32.63583 0.333423 0.218126
-0.9007907 20.12174 30.63237 0.7112479 77.43986 63.26582 0.453613 0.221816
-3.669161 -5.01444 -12.11199 -1.560325 -88.39329 46.73536 0.670553 0.818573
-2.66691 0.2271705 -2.125305 -1.117061 -88.57896 46.39528 0.659630 0.684642
-5.716701 -1.571939 -13.45809 -84.67343 52.32006 -9.644902 0.675824 0.818589
-4.222271 2.775651 -3.169265 -85.21159 51.43375 -9.672431 0.659105 0.684114
-1.483601 -1.846429 -13.74488 88.26276 41.83207 -21.44217 0.545355 0.818189
-1.047441 2.59807 -3.397635 87.80129 42.42899 -22.15212 0.556838 0.683800
-3.34445 -13.18397 -14.22223 -10.6931 -27.04329 95.67822 0.673717 0.818055
-3.968 -2.78167 -11.33869 -10.86885 -26.90895 95.69628 0.669899 0.688100
-5.184521 -12.10045 -18.12658 -80.96679 14.58062 -56.84882 0.675824 0.818589
-5.588591 -1.855919 -14.87701 -80.74682 15.02503 -57.04561 0.671493 0.684152
-0.7206006 -11.99262 -17.5552 91.5633 19.03827 -35.40773 0.545355 0.818189
-1.621871 -1.76398 -14.35586 91.65261 18.95792 -35.21928 0.550776 0.683781
-0.5082204 -21.36923 -10.28924 12.1073 41.51258 90.16718 0.676352 0.818591
-3.15408 -10.59795 -14.87534 12.18744 41.46766 90.17706 0.675710 0.684165
-3.241281 -23.28793 -13.43705 -90.58472 -31.43876 -28.39041 0.675824 0.818589
-5.662311 -12.36503 -17.77975 -90.27579 -31.23206 -29.5777 0.672008 0.688107
1.234869 -22.58562 -14.36657 77.3456 -4.698592 -63.21062 0.540610 0.818438
-1.599991 -11.70197 -18.55927 77.4812 -4.274089 -63.07455 0.547348 0.684034
-0.7447104 -20.04134 -11.3026 4.383682 99.11403 12.53769 0.610394 0.667359
-4.787721 -26.03998 -3.509775 -26.41385 61.965 73.90974 0.545355 0.818189
-3.120081 -22.01113 -6.291535 -19.67689 75.69707 62.31192 0.561944 0.737849
-10.17065 -24.55649 -12.90304 -68.3274 72.99951 1.561721 0.675824 0.818589
-6.478101 -21.10763 -12.05346 -53.15411 84.56635 4.813866 0.645233 0.738104
-0.7447104 -20.04134 -11.3026 4.383682 99.11403 12.53769 0.609338 0.667883
3.424759 -22.13767 -7.659275 45.58627 74.50669 48.68929 0.650508 0.736803
-0.7447104 -20.04134 -11.3026 4.383682 99.11403 12.53769 0.599315 0.670224
-1.96033 -20.71648 -17.05701 -7.813796 88.86005 -45.19777 0.570646 0.736558
-0.7447104 -20.04134 -11.3026 4.383682 99.11403 12.53769 0.615665 0.667639
4.226059 -21.31458 -14.29047 53.44498 82.61349 -17.85068 0.653935 0.736813
-2.837171 -23.85513 -20.96298 -11.23869 78.63997 -60.74082 0.545355 0.818189
5.91645 -26.24693 -5.746745 56.0788 60.24539 56.79492 0.675824 0.818589
7.139509 -24.89115 -16.52054 65.78931 70.4088 -26.72769 0.545355 0.818189
3 0 2 1 
3 2 3 1 
3 4 5 6 
3 7 4 6 
3 15 14 8 
3 11 9 10 
3 101 102 12 
3 13 101 12 
3 103 104 105 
3 106 104 103 
3 17 22 19 
3 16 17 19 
3 18 107 20 
3 108 107 18 
3 109 21 110 
3 111 112 23 
3 24 47 41 
3 24 25 113 
3 27 26 114 
3 27 28 115 
3 116 117 118 
3 119 118 117 
3 29 119 117 
3 120 29 117 
3 37 30 31 
3 30 39 31 
3 32 33 31 
3 39 32 31 
3 36 37 31 
3 33 36 31 
3 121 42 122 
3 42 43 122 
3 123 34 124 
3 125 123 124 
3 38 126 127 
3 128 129 130 
3 129 35 130 
3 131 132 133 
3 132 44 133 
3 134 135 136 
3 135 137 136 
3 138 38 127 
3 45 139 140 
3 141 40 142 
3 46 142 40 
3 46 40 143 
3 144 143 40 
3 145 146 147 
3 145 147 148 
3 149 148 147 
3 150 147 146 
3 151 152 153 
3 154 45 155 
3 140 155 45 
3 156 157 158 
3 159 158 157 
3 157 156 160 
3 161 153 152 
3 162 163 164 
3 165 164 163 
3 50 48 62 
3 68 49 62 
3 69 166 62 
3 167 168 62 
3 169 48 63 
3 50 51 170 
3 55 57 67 
3 171 172 52 
3 61 60 52 
3 60 53 52 
3 61 52 172 
3 173 174 175 
3 65 175 174 
3 174 176 65 
3 57 54 67 
3 176 56 65 
3 177 59 178 
3 179 180 181 
3 182 179 181 
3 183 184 185 
3 186 187 188 
3 189 187 186 
3 190 187 58 
3 58 187 189 
3 191 192 193 
3 71 191 193 
3 194 195 196 
3 197 194 196 
3 198 64 70 
3 199 200 66 
3 201 66 202 
3 200 203 66 
3 203 202 66 
3 204 205 206 
3 205 207 206 
3 208 206 209 
3 207 209 206 
3 210 211 212 
3 213 214 64 
3 214 70 64 
3 215 198 70 
3 211 216 212 
3 217 212 216 
3 218 217 216 
3 77 72 74 
3 72 73 74 
3 219 220 76 
3 220 75 76 
3 221 222 223 
3 222 224 223 
3 83 78 79 
3 78 81 79 
3 225 226 80 
3 226 82 80 
3 227 228 229 
3 228 230 229 
3 84 85 86 
3 85 87 86 
3 231 232 89 
3 232 88 89 
3 233 234 235 
3 234 236 235 
3 90 97 91 
3 90 91 92 
3 96 90 92 
3 93 95 94 
3 100 93 94 
3 93 237 95 
3 238 239 240 
3 239 241 240 
3 98 242 243 
3 239 244 241 
3 245 246 247 
3 245 247 99 
3 248 245 99 
3 98 243 249 
3 250 98 249 
