ply
format ascii 1.0
comment VCGLIB generated
comment TextureFile ../textures/star.bmp
element vertex 316
property float x
property float y
property float z
property float nx
property float ny
property float nz
property float texture_u
property float texture_v
element face 592
property list uchar int vertex_indices
end_header
0.204081 1.000845 0.266184 -0.6110566 -0.6946973 0.3794807 0.566587 -0.622723
0.157841 1.069407 0.271044 -0.7859049 -0.3796784 0.4880552 0.548960 -0.595653
0.193767 1.069407 0.328895 -0.5390651 -0.3916489 0.7456675 0.560212 -0.595653
0.126945 1.172017 0.274291 -0.8375006 -0.1676561 0.5200809 0.537182 -0.555138
0.116095 1.293054 0.275431 -0.8495247 1.215214e-06 0.5275488 0.533046 -0.507348
0.126945 1.41409 0.274291 -0.8375018 0.1676529 0.52008 0.537182 -0.459558
0.173883 1.41409 0.349877 -0.5784373 0.172939 0.797184 0.551884 -0.459558
0.157841 1.5167 0.271044 -0.7859031 0.3796823 0.4880551 0.548960 -0.419044
0.204081 1.585262 0.266184 -0.6110565 0.6946979 0.3794797 0.566587 -0.391973
0.258625 1.609337 0.260451 0.0366881 0.9363846 0.3490528 0.587379 -0.382467
0.263528 1.585262 0.307102 0.0750507 0.6960357 0.714074 0.587379 -0.391973
0.30066 1.585262 0.289385 0.5147305 0.7135482 0.4752912 0.602081 -0.391973
0.359409 1.5167 0.249858 0.8702026 0.3796795 0.3139918 0.625798 -0.419044
0.390305 1.41409 0.246611 0.9273298 0.1676576 0.33459 0.637576 -0.459558
-0.163935 1.585262 0.338216 0.5147305 0.7135481 0.4752911 0.424977 -0.391973
-0.20597 1.609337 0.309282 0.03668808 0.9363847 0.3490527 0.410275 -0.382467
-0.201067 1.585262 0.355933 0.07505082 0.6960357 0.714074 0.410275 -0.391973
-0.194133 1.41409 0.421909 0.1031549 0.1614532 0.9814744 0.410275 -0.459558
-0.096126 1.293054 0.38489 0.7429487 3.358644e-07 0.6693484 0.448693 -0.507348
-0.104488 1.172017 0.379135 0.7315382 -0.1729361 0.6595036 0.445769 -0.555138
-0.19691 1.069407 0.395483 0.0971141 -0.369924 0.9239725 0.410275 -0.595653
-0.163935 1.000845 0.338216 0.5147341 -0.7135491 0.4752857 0.424977 -0.622723
-0.20597 0.97677 0.309282 0.03668759 -0.9363866 0.3490474 0.410275 -0.632229
-0.260514 1.000845 0.315015 -0.6110569 -0.6946973 0.37948 0.389482 -0.622723
-0.151426 1.000845 0.303549 0.6766018 -0.6946988 0.2441386 0.431067 -0.622723
-0.128299 1.069407 0.362745 0.6823189 -0.3916483 0.6172945 0.437441 -0.595653
-0.105186 1.069407 0.298689 0.8702031 -0.3796803 0.3139896 0.448693 -0.595653
-0.07429 1.172017 0.295442 0.927328 -0.1676542 0.3345967 0.460471 -0.555138
-0.06344 1.293054 0.294301 0.9406423 7.210768e-07 0.3393996 0.464607 -0.507348
-0.104488 1.41409 0.379135 0.7315389 0.1729367 0.6595027 0.445769 -0.459558
-0.07429 1.41409 0.295442 0.9273274 0.1676551 0.3345978 0.460471 -0.459558
-0.128299 1.5167 0.362745 0.682319 0.3916499 0.6172934 0.437441 -0.419044
-0.105186 1.5167 0.298689 0.8702027 0.3796796 0.3139917 0.448693 -0.419044
-0.151426 1.585262 0.303549 0.6766028 0.6946972 0.2441405 0.431067 -0.391973
-0.241071 1.585262 0.346323 -0.4046643 0.7135509 0.5719196 0.395572 -0.391973
-0.19691 1.5167 0.395483 0.09711247 0.3699275 0.9239712 0.410275 -0.419044
-0.270829 1.5167 0.377725 -0.5390685 0.3916511 0.7456639 0.383108 -0.419044
-0.290712 1.41409 0.398708 -0.5784343 0.1729372 0.7971866 0.374780 -0.459558
-0.193157 1.293054 0.431188 0.1045315 9.245259e-07 0.9945216 0.410275 -0.507348
-0.297694 1.293054 0.406076 -0.587547 5.300366e-07 0.80919 0.371856 -0.507348
-0.194133 1.172017 0.421909 0.103157 -0.1614533 0.9814742 0.410275 -0.555138
-0.201067 1.000845 0.355934 0.07504992 -0.6960346 0.7140751 0.410275 -0.622723
0.223524 1.000845 0.297492 -0.4046733 -0.7135519 0.571912 0.572676 -0.622723
0.263528 1.000845 0.307103 0.07505123 -0.6960357 0.714074 0.587379 -0.622723
0.267685 1.069407 0.346652 0.09711638 -0.3699236 0.9239724 0.587379 -0.595653
0.173883 1.172017 0.349877 -0.5784385 -0.1729375 0.7971835 0.551884 -0.555138
0.270463 1.172017 0.373078 0.1031586 -0.161456 0.9814736 0.587379 -0.555138
0.166901 1.293054 0.357245 -0.5875504 2.427144e-07 0.8091876 0.548960 -0.507348
0.271438 1.293054 0.382358 0.1045296 5.135568e-07 0.9945218 0.587379 -0.507348
0.270463 1.41409 0.373078 0.1031585 0.1614569 0.9814734 0.587379 -0.459558
0.193767 1.5167 0.328894 -0.5390635 0.391651 0.7456676 0.560212 -0.419044
0.223524 1.585262 0.297492 -0.4046668 0.713549 0.5719202 0.572676 -0.391973
-0.260514 1.585262 0.315015 -0.6110557 0.6947008 0.3794756 0.389482 -0.391973
-0.306754 1.5167 0.319875 -0.7859064 0.3796827 0.4880495 0.371856 -0.419044
-0.337651 1.41409 0.323122 -0.8374978 0.1676543 0.520086 0.360078 -0.459558
-0.3485 1.293054 0.324262 -0.8495237 -8.211206e-07 0.5275505 0.355942 -0.507348
-0.290712 1.172017 0.398708 -0.5784362 -0.1729365 0.7971854 0.374780 -0.555138
-0.337651 1.172017 0.323122 -0.8374974 -0.1676529 0.5200872 0.360078 -0.555138
-0.270829 1.069407 0.377725 -0.5390704 -0.3916516 0.7456623 0.383108 -0.595653
-0.306754 1.069407 0.319875 -0.7859051 -0.3796833 0.4880509 0.371856 -0.595653
-0.241071 1.000845 0.346323 -0.4046725 -0.7135503 0.5719146 0.395572 -0.622723
0.267685 1.5167 0.346652 0.09710989 0.3699276 0.9239715 0.587379 -0.419044
0.30066 1.000845 0.289385 0.5147343 -0.7135491 0.4752855 0.602081 -0.622723
0.258625 0.97677 0.260451 0.0366876 -0.9363866 0.3490474 0.587379 -0.632229
0.313169 1.000845 0.254718 0.6766019 -0.6946988 0.2441385 0.608171 -0.622723
0.336296 1.069407 0.313914 0.6823172 -0.3916515 0.6172944 0.614545 -0.595653
0.359409 1.069407 0.249858 0.870203 -0.3796829 0.313987 0.625798 -0.595653
0.360108 1.172017 0.330304 0.7315426 -0.1729364 0.6594986 0.622873 -0.555138
0.390305 1.172017 0.246611 0.9273309 -0.1676527 0.3345895 0.637576 -0.555138
0.368469 1.293054 0.336059 0.7429506 1.653078e-07 0.6693462 0.625798 -0.507348
0.401155 1.293054 0.24547 0.940643 -1.415311e-06 0.3393976 0.641711 -0.507348
0.360108 1.41409 0.330304 0.7315422 0.172938 0.6594987 0.622873 -0.459558
0.336296 1.5167 0.313914 0.6823186 0.3916519 0.6172926 0.614545 -0.419044
0.313169 1.585262 0.254718 0.6766026 0.6946973 0.2441405 0.608171 -0.391973
-0.029653 2.202082 -0.297248 -0.1045279 2.678062e-05 -0.994522 0.500788 -0.148428
0.235663 2.301673 0.201496 0.819813 0.4464596 0.3585815 0.581057 -0.109105
0.357839 2.076876 0.188655 0.8223821 0.4292968 0.3733523 0.627631 -0.197864
0.484408 1.848292 0.175353 0.5571939 0.6600606 0.5038403 0.675879 -0.288118
0.311744 1.995643 0.266979 0.3982733 0.1627647 0.9027104 0.607148 -0.229938
0.428439 1.759447 0.254716 0.2265358 0.1669029 0.9595963 0.651632 -0.323198
-0.467954 1.341609 0.348937 0.1045253 1.170566e-06 0.9945223 0.309926 -0.488177
-0.802783 1.141293 0.384121 -0.1250616 -0.2126719 0.9690874 0.182289 -0.567269
-1.133165 1.308763 0.118794 -0.7738928 -0.6286166 0.07701426 0.068237 -0.501145
-1.312171 1.627771 0.137608 -0.9419604 0.318829 0.1051602 0.000000 -0.375189
-1.100704 1.635708 -0.184665 -0.1970083 0.3151411 -0.9283717 0.092502 -0.372055
-0.768637 1.430069 -0.219579 -0.1045341 6.920744e-07 -0.9945213 0.219086 -0.453249
-0.865168 1.141294 -0.209426 -0.3169344 -0.2317617 -0.9196951 0.182289 -0.567269
-0.641706 0.937699 -0.232916 -0.2603764 -0.04658723 -0.9643826 0.267473 -0.647656
-0.712344 0.236254 -0.225489 -0.1045675 -5.614356e-05 -0.9945178 0.240545 -0.924614
-0.647193 0.184607 -0.232331 0.008830624 -0.3211317 -0.9469934 0.265381 -0.945006
-0.820905 0.075432 -0.140595 -0.5645449 -0.7211986 -0.4014494 0.196250 -0.988113
-0.865714 0.191906 -0.135886 -0.9273103 -0.1134388 -0.3566893 0.179168 -0.942124
-0.724894 0.900615 0.302456 -0.6699869 -0.2288871 0.7062069 0.214892 -0.662298
-0.654085 0.67741 0.368492 -0.2184541 0.05684049 0.9741904 0.238973 -0.750428
-0.579321 0.937698 0.360638 -0.04270778 -0.04118571 0.9982384 0.267473 -0.647656
-0.429357 0.523998 0.34488 0.1045249 -6.981156e-06 0.9945223 0.324639 -0.811001
-0.28327 0.71377 0.329525 0.1045292 -2.471723e-06 0.9945219 0.380327 -0.736072
0.33654 0.732103 0.264381 0.1045283 -4.29348e-06 0.9945219 0.616600 -0.728833
0.478669 0.537787 0.249442 0.1045314 -6.843142e-06 0.9945216 0.670780 -0.805557
0.768682 0.94892 0.145475 0.7854307 -0.2327133 0.5735357 0.784245 -0.643225
0.804842 0.682508 0.141674 0.9045819 0.1255628 0.4073887 0.798029 -0.748415
0.839484 0.408778 -0.08854 0.9888002 0.1015576 -0.1093628 0.820214 -0.856495
0.641282 0.067252 -0.294278 -0.2005455 -0.8760141 -0.4386125 0.753637 -0.991342
0.582839 0.184954 -0.361613 -0.2015655 -0.3155442 -0.9272558 0.734270 -0.944869
0.6488 0.238903 -0.368551 -0.104487 -5.120431e-05 -0.9945263 0.759415 -0.923568
0.417589 0.247075 -0.344247 -0.2378279 -0.3250822 -0.915292 0.671277 -0.920341
0.416284 0.537786 -0.344119 -0.1045251 -4.019244e-06 -0.9945223 0.670780 -0.805557
0.274155 0.732103 -0.329181 -0.1045256 -5.476545e-06 -0.9945222 0.616600 -0.728833
0.563383 0.997388 -0.359577 0.03672573 -0.04568512 -0.9982806 0.726854 -0.624088
0.757735 0.682508 -0.306521 0.8004412 0.1375949 -0.5834052 0.798029 -0.748415
0.721575 0.94892 -0.302721 0.6206107 -0.222882 -0.7517753 0.784245 -0.643225
0.783675 0.936248 -0.082674 0.9485179 -0.3037311 -0.08978388 0.798939 -0.648229
0.943896 1.119231 -0.099514 0.7243516 -0.6848868 -0.07902465 0.860015 -0.575980
1.129095 1.312559 0.107592 0.6878448 -0.6196389 0.378044 0.921635 -0.499647
1.267879 1.467519 -0.133566 0.8628674 -0.4978434 -0.08724565 0.983518 -0.438462
1.267065 1.464098 0.093089 0.8127229 -0.4233468 0.4003235 0.974230 -0.439813
1.304579 1.58762 0.089146 0.8824206 0.2539705 0.3960213 0.988530 -0.391042
1.21678 1.558937 0.171848 0.5156457 0.1284748 0.8471149 0.952149 -0.402367
0.925841 1.661972 0.202433 0.1795796 0.3531449 0.918172 0.841243 -0.361685
0.690546 1.71043 0.227165 0.1713695 0.3294545 0.9284893 0.751548 -0.342552
0.742167 1.787763 0.148261 0.248397 0.8632644 0.4394014 0.774137 -0.312017
0.474247 1.866275 -0.050152 0.5990542 0.7984478 -0.06012665 0.680985 -0.281018
0.69506 1.787763 -0.299933 0.1474032 0.8654423 -0.4788339 0.774137 -0.312017
0.24936 1.995643 -0.326567 0.2126841 0.1568874 -0.9644438 0.607148 -0.229938
0.051966 2.351985 -0.305816 0.1832635 0.1911592 -0.964299 0.531901 -0.089241
-0.029501 2.341951 -0.297259 -0.1045254 6.201791e-05 -0.9945222 0.500846 -0.093202
-0.482248 0.247327 -0.24967 0.04402743 -0.3296981 -0.9430593 0.328258 -0.920242
-0.501165 0.146476 -0.174204 0.3013179 -0.8286076 -0.4718232 0.318135 -0.960062
-0.264948 0.251532 -0.199032 0.3128379 -0.8111706 -0.4940999 0.408181 -0.918582
-0.217841 0.251532 0.249162 0.4038397 -0.812115 0.4211684 0.408181 -0.918582
-0.206706 0.349331 0.32147 0.2374196 -0.3090442 0.9209362 0.409514 -0.879967
0.022626 0.357449 0.223888 0.05708409 -0.8269476 0.5593739 0.499847 -0.876761
0.030441 0.468121 0.296547 0.1021793 -0.2067909 0.9730349 0.499915 -0.833064
0.620595 0.363244 0.234524 0.1045427 -1.715632e-05 0.9945204 0.724882 -0.874473
0.711199 0.715109 0.224995 0.4107693 0.05560539 0.9100421 0.759420 -0.735543
0.764785 0.469223 0.219361 0.4682591 0.06423405 0.8812533 0.779848 -0.832629
0.846421 0.413379 0.137302 0.9292573 0.09823156 0.3561342 0.813879 -0.854678
0.819086 0.075376 0.140173 0.5717681 -0.6985471 0.4302478 0.803459 -0.988135
0.857894 0.184895 -0.090475 0.9867806 -0.1272811 -0.1003174 0.827231 -0.944892
0.81388 0.049827 -0.085849 0.5966057 -0.8005455 -0.05646753 0.810453 -0.998223
-0.107849 2.354206 -0.289019 -0.374045 0.197102 -0.9062236 0.470979 -0.088364
-0.202554 2.2074 -0.279067 -0.4121614 0.1767782 -0.8937967 0.434878 -0.146328
-0.21929 2.319387 0.022742 -0.8515598 0.5173932 0.08455897 0.416607 -0.102112
-0.349595 2.099983 0.036437 -0.8591554 0.5040959 0.08797424 0.366935 -0.188741
-0.308712 2.078423 0.258713 -0.7069834 0.4193944 0.5694584 0.373541 -0.197254
-0.24037 1.992241 0.325009 -0.1853833 0.146784 0.9716417 0.396681 -0.231281
-0.706251 1.430069 0.373982 0.1045223 2.053473e-06 0.9945226 0.219086 -0.453249
-1.226025 1.481812 0.355123 -0.7324389 -0.3743836 0.5686564 0.023860 -0.432819
0.781677 1.161868 -0.382517 0.1122464 -0.2712286 -0.9559476 0.810068 -0.559145
0.694362 1.444072 -0.373346 -0.1045261 7.493823e-06 -0.9945222 0.776783 -0.447720
0.628162 1.71043 -0.36638 -0.03339449 0.3371603 -0.9408548 0.751548 -0.342552
0.863458 1.661972 -0.39111 -0.0139888 0.3462535 -0.9380367 0.841243 -0.361685
-0.733842 1.800717 -0.14975 -0.2017585 0.8585846 -0.4713025 0.229438 -0.306903
-0.728445 1.822368 0.076256 -0.2026021 0.9790741 0.01914257 0.222517 -0.298354
-0.98416 1.76748 0.103133 -0.2176219 0.9758553 0.01863377 0.125038 -0.320026
-1.154159 1.70331 0.34757 -0.3442446 0.775434 0.5293371 0.051256 -0.345363
-1.038321 1.635708 0.408873 -0.01451421 0.3214283 0.9468227 0.092502 -0.372055
-1.156772 1.584543 0.421319 -0.3198476 0.1388973 0.9372327 0.047348 -0.392257
-1.092383 1.469093 0.414555 -0.1866791 -0.1852461 0.9647979 0.071893 -0.437841
-0.980545 1.321966 0.402803 -0.1704849 -0.2450653 0.9543992 0.114526 -0.495932
0.625768 0.997388 0.233979 0.2285808 -0.04090901 0.9726651 0.726854 -0.624088
0.973196 1.494669 0.197464 0.1045492 9.237957e-06 0.9945197 0.859294 -0.427743
1.11799 1.535483 0.182241 0.1045929 2.384402e-05 0.9945151 0.914490 -0.411628
1.149024 1.45345 0.178973 0.3787788 -0.2134969 0.9005253 0.926320 -0.444017
-0.125636 2.478734 -0.213671 -0.6829361 0.6223107 -0.382528 0.461287 -0.039195
-0.232647 2.306563 -0.202426 -0.8155473 0.4551444 -0.3573882 0.420494 -0.107175
-0.104989 2.502592 0.010728 -0.7059978 0.703962 0.07748962 0.460179 -0.029775
-0.18554 2.306562 0.245766 -0.7160528 0.4563313 0.5282329 0.420494 -0.107175
-0.07853 2.478734 0.234517 -0.5574256 0.6262854 0.5450168 0.461287 -0.039195
-0.045466 2.354206 0.304519 -0.1784021 0.2129125 0.9606462 0.470979 -0.088364
0.029771 2.547275 0.223133 0.06637572 0.8742458 0.4809246 0.502571 -0.012132
0.032883 2.341951 0.29629 0.1045277 6.23564e-05 0.994522 0.500846 -0.093202
0.205661 2.204077 0.278127 0.4201367 0.1772465 0.8899825 0.566709 -0.147640
-0.476846 0.131635 0.049812 0.3837031 -0.9224582 -0.04292813 0.318427 -0.965922
-0.64355 0.069331 0.293903 0.185438 -0.865382 0.4655392 0.245901 -0.990522
-0.703789 0.448118 0.373715 -0.2766103 0.06491004 0.9587875 0.220025 -0.840962
-0.337729 1.738029 0.335245 0.01193824 0.1207098 0.9926161 0.359568 -0.331654
0.032811 1.992726 0.296304 0.1045291 7.091516e-06 0.9945219 0.500818 -0.231090
0.032733 2.202082 0.296311 0.1045302 2.637914e-05 0.9945217 0.500788 -0.148428
0.114349 2.351985 0.287722 0.3826747 0.206486 0.900513 0.531901 -0.089241
0.133947 2.475782 0.212184 0.6784827 0.60715 0.4135578 0.542283 -0.040361
0.00678 2.578002 -0.001019 0.01921478 0.9998063 0.004258457 0.502786 -0.000000
0.951265 1.727879 -0.32686 0.1722977 0.8701922 -0.4616048 0.871803 -0.335662
1.153068 1.673459 -0.348068 0.3466737 0.7987546 -0.4917404 0.948731 -0.357149
1.154397 1.558937 -0.421683 0.2727256 0.1113874 -0.9556221 0.952149 -0.402367
1.055606 1.535483 -0.411308 -0.1044705 2.369529e-05 -0.994528 0.914490 -0.411628
1.121897 1.306183 -0.118223 0.7221296 -0.6869586 -0.08134373 0.927870 -0.502164
0.88995 1.128733 -0.320417 0.5497404 -0.6226357 -0.5568756 0.848430 -0.572228
-0.435498 1.850002 0.272039 -0.386378 0.6309618 0.672755 0.325210 -0.287443
-0.481994 1.876475 0.050353 -0.5780736 0.8131148 0.06837723 0.316464 -0.276990
-0.355819 2.078423 -0.189482 -0.8165801 0.4106355 -0.4056792 0.373541 -0.197254
-0.482605 1.850002 -0.176156 -0.506789 0.6155042 -0.6035889 0.325210 -0.287443
-0.400114 1.738029 -0.258308 -0.2016546 0.1324447 -0.9704607 0.359568 -0.331654
-0.979927 1.503951 -0.19737 -0.1045513 7.454048e-06 -0.9945195 0.138542 -0.424077
-0.716477 0.276808 0.375045 -0.2525927 -0.001523047 0.9675716 0.215189 -0.908602
-0.818608 0.191906 0.312302 -0.8096473 -0.1330646 0.5716338 0.179168 -0.942124
-0.81573 0.050934 0.08543 -0.5820699 -0.8103366 0.06744719 0.189244 -0.997786
0.474206 0.128498 -0.050148 -0.3857761 -0.9218085 0.03802384 0.680969 -0.967160
0.238134 0.230326 -0.025336 -0.3971574 -0.9168423 0.04081775 0.590978 -0.926955
-0.240994 0.232026 0.025023 0.3918277 -0.9190749 -0.04209973 0.408334 -0.926283
0.777659 0.286731 0.218005 0.4464772 -0.00232174 0.894792 0.784755 -0.904684
0.688389 0.067252 0.15391 -0.07667048 -0.8629506 0.4994376 0.753637 -0.991342
0.498586 0.144172 0.173861 -0.2948221 -0.8229926 0.4855545 0.681284 -0.960971
-0.917542 1.503952 0.396189 0.1045076 8.038983e-06 0.9945241 0.138542 -0.424077
-0.863557 1.682319 0.390507 0.03519338 0.3591175 0.9326286 0.159122 -0.353651
-0.616137 1.714965 0.364504 0.04764472 0.314593 0.9480302 0.253439 -0.340761
-0.686735 1.800717 0.298445 -0.1073712 0.8554449 0.5066414 0.229438 -0.306903
0.711184 0.238903 0.224998 0.1045737 -5.437992e-05 0.9945172 0.759415 -0.923568
0.479973 0.247075 0.249296 -0.0478835 -0.329812 0.9428315 0.671277 -0.920341
0.266666 0.349682 0.271717 -0.04042019 -0.3053598 0.9513788 0.589964 -0.879828
-0.000977 0.334776 -0.000204 -0.003161703 -0.9999899 0.003195673 0.499829 -0.885714
-0.024481 0.357449 -0.224306 -0.06240383 -0.8193466 -0.569892 0.499847 -0.876761
0.204281 0.349682 -0.321829 -0.2479742 -0.3066598 -0.9189497 0.589964 -0.879828
1.098716 1.610927 0.184261 0.2182242 0.3251361 0.9201439 0.907143 -0.381839
1.200175 1.673459 0.100119 0.4573935 0.7732863 0.4391121 0.948731 -0.357149
1.198889 1.68347 -0.126315 0.4498152 0.8919981 -0.04478563 0.957219 -0.353196
0.983293 1.740473 -0.103655 0.2446959 0.9691889 -0.0282266 0.875033 -0.330689
-0.302755 1.992241 -0.268538 -0.4131158 0.1311067 -0.9011917 0.396681 -0.231281
-0.031997 1.182148 -0.297001 -0.1045285 -1.424841e-07 -0.9945219 0.499894 -0.551138
-1.273131 1.481812 -0.093065 -0.8359942 -0.4013447 -0.3742141 0.023860 -0.432819
-0.957879 1.101271 -0.126202 -0.6889589 -0.5849848 -0.4279351 0.144035 -0.583071
-0.961704 1.094904 0.100772 -0.7542156 -0.6521017 0.07695622 0.133598 -0.585585
-0.63163 0.345229 -0.233978 -0.1045411 -2.292337e-05 -0.9945206 0.271314 -0.881586
-0.716469 0.67741 -0.225055 -0.430969 0.08830674 -0.8980355 0.238973 -0.750428
1.036333 1.610927 -0.409277 0.007821049 0.3181397 -0.9480116 0.907143 -0.381839
0.91081 1.494669 -0.396095 -0.1045042 8.310892e-06 -0.9945245 0.859294 -0.427743
-0.345656 0.71377 -0.264036 -0.1045316 -6.497937e-06 -0.9945216 0.380327 -0.736072
-0.491743 0.523998 -0.248681 -0.1045277 -6.291829e-06 -0.994522 0.324639 -0.811001
-0.772001 0.900615 -0.145739 -0.7845569 -0.2299223 -0.5758526 0.214892 -0.662298
-0.782719 0.893166 0.08196 -0.945941 -0.3061892 0.1069757 0.201828 -0.665239
-0.839999 0.386293 0.087981 -0.9892656 0.1074743 0.09900938 0.179993 -0.865373
-0.707406 0.155066 0.374088 -0.1652953 -0.3623213 0.9172791 0.218647 -0.956670
-0.58481 0.184607 0.361207 0.1980079 -0.3352301 0.9210938 0.265381 -0.945006
-0.419864 0.247327 0.343873 0.2447068 -0.3345314 0.910059 0.328258 -0.920242
-0.454059 0.146476 0.273988 0.3894567 -0.8263045 0.4068715 0.318135 -0.960062
0.937057 1.128733 0.127778 0.6619546 -0.6120498 0.432679 0.848430 -0.572228
0.036179 2.447982 0.295935 0.1025848 0.4459058 0.8891819 0.502102 -0.051337
-0.14017 2.2074 0.314476 -0.2353504 0.1743622 0.9561422 0.434878 -0.146328
0.77198 0.075376 -0.308014 0.4810144 -0.7094374 -0.5150959 0.803459 -0.988135
0.7057 0.156951 -0.374522 0.1352458 -0.3069046 -0.9420819 0.781105 -0.955926
0.55821 0.363244 -0.359035 -0.1045106 -1.531862e-05 -0.9945238 0.724882 -0.874473
0.366055 1.759447 -0.338834 0.02619447 0.1722694 -0.9847015 0.651632 -0.323198
0.460439 1.391566 -0.34876 -0.1045252 6.123522e-06 -0.9945223 0.687612 -0.468452
-0.925941 1.682319 -0.203036 -0.1652024 0.3470822 -0.9231697 0.159122 -0.353651
-1.201265 1.70331 -0.100618 -0.4310995 0.7995463 -0.4181854 0.051256 -0.345363
-0.998422 1.752986 -0.12194 -0.2336985 0.8730918 -0.4278969 0.128580 -0.325749
-1.306114 1.617362 -0.089598 -0.8840253 0.2817217 -0.3730043 0.011287 -0.379298
-1.219154 1.584543 -0.172212 -0.4587459 0.1216022 -0.8802075 0.047348 -0.392257
-1.154767 1.469093 -0.178983 -0.3685605 -0.1893793 -0.9101092 0.071893 -0.437841
-1.127075 1.546934 -0.181899 -0.1045899 1.960066e-05 -0.9945154 0.082449 -0.407106
-1.042929 1.321966 -0.19074 -0.3620574 -0.2265397 -0.9042091 0.114526 -0.495932
1.219959 1.464098 -0.355099 0.7186273 -0.4504084 -0.5298181 0.974230 -0.439813
1.086641 1.45345 -0.414565 0.1682996 -0.2169382 -0.9615681 0.926320 -0.444017
1.257472 1.58762 -0.359042 0.7965569 0.2579158 -0.5467876 0.988530 -0.391042
1.311115 1.596286 -0.138111 0.9527578 0.288848 -0.09391234 1.000000 -0.387620
-0.808165 0.643449 -0.141938 -0.9088091 0.1401501 -0.3929683 0.201106 -0.763837
-0.766173 0.448118 -0.219829 -0.4576367 0.05207613 -0.8876129 0.220025 -0.840962
-0.84744 0.390399 -0.137809 -0.933347 0.1072297 -0.3425862 0.186135 -0.863752
0.702401 0.469223 -0.374182 0.2613133 0.05076232 -0.9639183 0.779848 -0.832629
0.648814 0.715109 -0.368552 0.2307747 0.09065323 -0.968775 0.759420 -0.735543
-0.026204 2.447982 -0.297596 -0.08763998 0.3875751 -0.9176627 0.502102 -0.051337
-0.017335 2.547275 -0.225054 -0.03183664 0.8885873 -0.4576015 0.502571 -0.012132
0.143277 2.204077 -0.315416 0.218032 0.176868 -0.9597811 0.566709 -0.147640
-0.690656 0.069331 -0.154285 0.1137926 -0.8785709 -0.4638583 0.245901 -0.990522
-0.678594 0.048416 0.071016 0.1725374 -0.9848794 -0.01559762 0.241520 -0.998780
-0.773798 0.075432 0.307592 -0.4577101 -0.7094446 0.535901 0.196250 -0.988113
-0.678521 1.714965 -0.229043 -0.1316188 0.3331645 -0.933637 0.253439 -0.340761
-0.53034 1.341609 -0.244625 -0.1045336 1.601608e-06 -0.9945214 0.309926 -0.488177
0.729952 1.803686 -0.077028 0.2340959 0.9718791 -0.02549764 0.778460 -0.305730
0.998372 1.727879 0.121332 0.2671824 0.8658878 0.422909 0.871803 -0.335662
-0.811582 0.636591 0.084994 -0.9873105 0.1222291 0.1013807 0.190825 -0.766545
0.437301 1.848292 -0.272842 0.4341145 0.6543815 -0.619136 0.675879 -0.288118
0.34628 2.092239 -0.036702 0.866345 0.490905 -0.09197035 0.632203 -0.191798
0.22175 2.313257 -0.023614 0.8630895 0.4963638 -0.09327123 0.584733 -0.104532
0.310732 2.076876 -0.259538 0.7306811 0.4255008 -0.5339048 0.627631 -0.197864
-1.064691 1.546934 0.41165 0.1044639 1.650534e-05 0.9945287 0.082449 -0.407106
-0.951316 1.752986 0.326252 -0.1416945 0.8676501 0.4765565 0.128580 -0.325749
-1.199525 1.714868 0.125768 -0.4393405 0.8969713 0.04921884 0.042941 -0.340799
0.756747 1.444072 0.220215 0.1045357 5.724787e-06 0.9945211 0.776783 -0.447720
0.031708 1.744182 0.29642 0.1045292 3.124156e-06 0.9945219 0.500398 -0.329225
-0.26909 0.349331 -0.272075 0.0532289 -0.3106584 -0.9490301 0.409514 -0.879967
-0.031944 0.468121 -0.297003 -0.1025184 -0.2134665 -0.9715565 0.499915 -0.833064
0.030388 1.182148 0.296557 0.1045281 -4.316251e-07 0.994522 0.499894 -0.551138
0.522825 1.391566 0.244802 0.1045311 4.224979e-06 0.9945217 0.687612 -0.468452
0.676281 0.045326 -0.071387 -0.1642213 -0.9862246 0.01981162 0.758000 -1.000000
-0.769788 0.155066 -0.219442 -0.3215075 -0.3149326 -0.8930008 0.218647 -0.956670
-0.77886 0.276808 -0.218493 -0.4384302 0.01045282 -0.8987045 0.215189 -0.908602
0.811117 0.671872 -0.085559 0.9874104 0.1166982 -0.1067813 0.809400 -0.752615
1.031942 1.320578 0.191282 0.3555225 -0.2829623 0.8908064 0.881688 -0.496480
0.844062 1.161868 0.211031 0.3157001 -0.2304983 0.9204369 0.810068 -0.559145
0.799314 0.413379 -0.31089 0.8403999 0.1036987 -0.5319536 0.813879 -0.854678
0.817349 0.202566 -0.312783 0.8331987 -0.1048281 -0.5429468 0.820754 -0.937915
0.715276 0.286731 -0.375533 0.2411302 0.009557375 -0.9704458 0.784755 -0.904684
-0.569245 0.345229 0.359581 0.1045143 -1.956574e-05 0.9945234 0.271314 -0.881586
-0.64996 0.236254 0.36806 0.1044834 -5.558358e-05 0.9945267 0.240545 -0.924614
-1.259007 1.617362 0.358589 -0.7714375 0.2774426 0.572634 0.011287 -0.379298
-1.273661 1.486387 0.13356 -0.891353 -0.4428749 0.09670433 0.014680 -0.431013
0.864456 0.202566 0.135405 0.9121276 -0.1245745 0.3905182 0.820754 -0.937915
-0.761058 0.643449 0.306257 -0.8061864 0.1286968 0.5774951 0.201106 -0.763837
-0.800333 0.390399 0.310383 -0.8362405 0.1022827 0.5387394 0.186135 -0.863752
-0.859153 0.174852 0.089994 -0.9851262 -0.1345669 0.1068556 0.172691 -0.948858
0.768082 0.156951 0.219008 0.358477 -0.3519822 0.8646403 0.781105 -0.955926
0.262173 0.250279 0.19871 -0.309751 -0.808516 0.5003562 0.591163 -0.919077
0.645222 0.184954 0.231925 0.00202178 -0.3299367 0.9440009 0.734270 -0.944869
-0.030677 1.744182 -0.297142 -0.1045279 7.029278e-06 -0.994522 0.500398 -0.329225
-0.029574 1.992726 -0.297257 -0.1045276 3.499138e-06 -0.994522 0.500818 -0.231090
0.11417 2.499547 -0.012306 0.7307372 0.6786083 -0.074256 0.543723 -0.030977
0.215066 0.250279 -0.249483 -0.4115537 -0.8077568 -0.4220811 0.591163 -0.919077
0.969558 1.320578 -0.402261 0.1595956 -0.2637447 -0.9512981 0.881688 -0.496480
1.081988 1.312559 -0.3406 0.5955127 -0.6268604 -0.502405 0.921635 -0.499647
-1.140821 1.314481 -0.106973 -0.7317474 -0.5675244 -0.377441 0.074297 -0.498887
-0.910772 1.101271 0.321992 -0.5880629 -0.5765356 0.5672642 0.144035 -0.583071
-1.093714 1.314481 0.341219 -0.6340227 -0.5623925 0.5307825 0.074297 -0.498887
0.451479 0.144172 -0.274331 -0.3927949 -0.8253983 -0.4054994 0.681284 -0.960971
0.188556 2.301673 -0.246696 0.7330393 0.4456961 -0.5138174 0.581057 -0.109105
0.08684 2.475782 -0.236003 0.6096638 0.6023881 -0.5152075 0.542283 -0.040361
3 74 217 141 
3 74 141 125 
3 125 141 140 
3 125 140 260 
3 260 140 164 
3 260 164 261 
3 261 164 181 
3 261 181 315 
3 315 181 306 
3 315 306 273 
3 273 306 75 
3 273 75 272 
3 272 75 76 
3 272 76 77 
3 77 76 78 
3 77 78 79 
3 79 78 177 
3 79 177 279 
3 279 177 176 
3 279 176 80 
3 80 176 146 
3 80 146 94 
3 94 146 81 
3 94 81 92 
3 92 81 311 
3 92 311 221 
3 221 311 312 
3 221 312 82 
3 82 312 296 
3 82 296 219 
3 219 296 83 
3 219 83 246 
3 246 83 244 
3 246 244 247 
3 247 244 84 
3 247 84 249 
3 249 84 193 
3 249 193 250 
3 250 193 85 
3 250 85 86 
3 86 85 267 
3 86 267 87 
3 87 267 226 
3 87 226 223 
3 223 226 227 
3 223 227 222 
3 222 227 126 
3 222 126 88 
3 88 126 89 
3 88 89 285 
3 285 89 263 
3 285 263 90 
3 90 263 196 
3 90 196 91 
3 91 196 300 
3 91 300 230 
3 230 300 299 
3 230 299 270 
3 270 299 298 
3 270 298 92 
3 92 298 93 
3 92 93 94 
3 94 93 95 
3 94 95 96 
3 96 95 132 
3 96 132 97 
3 97 132 98 
3 97 98 160 
3 160 98 134 
3 160 134 99 
3 99 134 100 
3 99 100 287 
3 287 100 136 
3 287 136 101 
3 101 136 138 
3 101 138 291 
3 291 138 139 
3 291 139 238 
3 238 139 102 
3 238 102 239 
3 239 102 103 
3 239 103 104 
3 104 103 105 
3 104 105 240 
3 240 105 212 
3 240 212 106 
3 106 212 107 
3 106 107 259 
3 259 107 108 
3 259 108 109 
3 109 108 110 
3 109 110 111 
3 111 110 187 
3 111 187 112 
3 112 187 186 
3 112 186 113 
3 113 186 114 
3 113 114 115 
3 115 114 116 
3 115 116 163 
3 163 116 117 
3 163 117 162 
3 162 117 213 
3 162 213 118 
3 118 213 269 
3 118 269 119 
3 119 269 120 
3 119 120 77 
3 77 120 268 
3 77 268 121 
3 121 268 122 
3 121 122 271 
3 271 122 241 
3 271 241 274 
3 274 241 123 
3 274 123 262 
3 262 123 74 
3 262 74 124 
3 124 74 125 
3 124 125 260 
3 263 89 126 
3 263 126 127 
3 127 126 128 
3 127 128 173 
3 173 128 199 
3 173 199 234 
3 234 199 129 
3 234 129 130 
3 130 129 131 
3 130 131 132 
3 132 131 209 
3 132 209 98 
3 98 209 133 
3 98 133 134 
3 134 133 135 
3 134 135 136 
3 136 135 200 
3 136 200 297 
3 297 200 137 
3 297 137 138 
3 138 137 139 
3 164 140 141 
3 164 141 165 
3 165 141 190 
3 165 190 142 
3 142 190 143 
3 142 143 167 
3 167 143 144 
3 167 144 145 
3 145 144 188 
3 145 188 176 
3 176 188 205 
3 176 205 146 
3 146 205 203 
3 146 203 81 
3 81 203 159 
3 81 159 312 
3 312 159 158 
3 312 158 147 
3 147 158 295 
3 147 295 296 
3 296 295 83 
3 187 110 108 
3 187 108 148 
3 148 108 149 
3 148 149 225 
3 225 149 150 
3 225 150 151 
3 151 150 122 
3 151 122 182 
3 182 122 216 
3 182 216 183 
3 183 216 215 
3 183 215 254 
3 254 215 116 
3 254 116 114 
3 189 191 152 
3 189 152 153 
3 153 152 154 
3 153 154 276 
3 276 154 277 
3 276 277 155 
3 155 277 295 
3 155 295 156 
3 156 295 157 
3 156 157 275 
3 275 157 158 
3 275 158 159 
3 80 94 96 
3 80 96 282 
3 282 96 97 
3 282 97 283 
3 283 97 160 
3 283 160 278 
3 278 160 289 
3 278 289 161 
3 161 289 288 
3 161 288 162 
3 162 288 163 
3 164 165 142 
3 164 142 166 
3 166 142 167 
3 166 167 168 
3 168 167 169 
3 168 169 170 
3 170 169 236 
3 170 236 179 
3 179 236 171 
3 179 171 172 
3 172 171 178 
3 263 127 173 
3 263 173 264 
3 264 173 234 
3 264 234 174 
3 174 234 232 
3 174 232 265 
3 265 232 231 
3 265 231 194 
3 194 231 294 
3 194 294 175 
3 175 294 293 
3 145 176 177 
3 145 177 178 
3 178 177 78 
3 178 78 172 
3 172 78 75 
3 172 75 179 
3 179 75 180 
3 179 180 170 
3 170 180 306 
3 170 306 181 
3 151 182 183 
3 151 183 224 
3 224 183 184 
3 224 184 185 
3 185 184 252 
3 185 252 308 
3 308 252 251 
3 308 251 309 
3 309 251 186 
3 309 186 187 
3 188 144 143 
3 188 143 189 
3 189 143 190 
3 189 190 191 
3 191 190 192 
3 191 192 152 
3 152 192 266 
3 152 266 243 
3 243 266 193 
3 243 193 84 
3 130 132 95 
3 130 95 293 
3 293 95 93 
3 293 93 175 
3 175 93 299 
3 175 299 194 
3 194 299 195 
3 194 195 265 
3 265 195 300 
3 265 300 196 
3 105 103 102 
3 105 102 313 
3 313 102 197 
3 313 197 307 
3 307 197 198 
3 307 198 210 
3 210 198 131 
3 210 131 199 
3 199 131 129 
3 200 135 207 
3 200 207 301 
3 301 207 303 
3 301 303 137 
3 137 303 201 
3 137 201 284 
3 284 201 202 
3 284 202 197 
3 197 202 198 
3 275 159 203 
3 275 203 204 
3 204 203 205 
3 204 205 276 
3 276 205 206 
3 276 206 153 
3 153 206 188 
3 153 188 189 
3 207 135 133 
3 207 133 208 
3 208 133 209 
3 208 209 202 
3 202 209 302 
3 202 302 198 
3 198 302 131 
3 210 199 128 
3 210 128 211 
3 211 128 281 
3 211 281 307 
3 307 281 212 
3 307 212 105 
3 213 117 116 
3 213 116 214 
3 214 116 215 
3 214 215 269 
3 269 215 216 
3 190 141 217 
3 190 217 192 
3 192 217 304 
3 192 304 267 
3 267 304 218 
3 219 248 250 
3 219 250 310 
3 310 250 220 
3 310 220 82 
3 82 220 221 
3 285 90 91 
3 285 91 286 
3 286 91 256 
3 286 256 222 
3 222 256 223 
3 151 224 185 
3 151 185 225 
3 225 185 308 
3 225 308 148 
3 148 308 187 
3 107 212 281 
3 107 281 226 
3 226 281 280 
3 226 280 227 
3 227 280 126 
3 220 87 228 
3 220 228 229 
3 229 228 255 
3 229 255 270 
3 270 255 230 
3 294 231 232 
3 294 232 233 
3 233 232 234 
3 233 234 130 
3 289 160 99 
3 289 99 235 
3 235 99 112 
3 235 112 113 
3 171 236 169 
3 171 169 237 
3 237 169 167 
3 237 167 145 
3 291 238 239 
3 291 239 292 
3 292 239 104 
3 292 104 240 
3 241 122 150 
3 241 150 242 
3 242 150 149 
3 242 149 108 
3 243 84 244 
3 243 244 245 
3 245 244 154 
3 245 154 152 
3 219 246 247 
3 219 247 248 
3 248 247 249 
3 248 249 250 
3 242 108 107 
3 242 107 218 
3 218 107 226 
3 218 226 267 
3 251 252 184 
3 251 184 253 
3 253 184 183 
3 253 183 254 
3 255 223 256 
3 255 256 257 
3 257 256 91 
3 257 91 230 
3 258 259 109 
3 258 109 290 
3 290 109 101 
3 290 101 291 
3 242 218 304 
3 242 304 241 
3 241 304 123 
3 260 261 315 
3 260 315 124 
3 124 315 262 
3 196 263 264 
3 196 264 265 
3 265 264 174 
3 85 193 266 
3 85 266 267 
3 267 266 192 
3 278 161 119 
3 278 119 79 
3 79 119 77 
3 114 186 251 
3 114 251 254 
3 254 251 253 
3 74 123 305 
3 74 305 217 
3 217 305 304 
3 216 122 268 
3 216 268 269 
3 269 268 120 
3 181 164 166 
3 181 166 170 
3 170 166 168 
3 221 220 229 
3 221 229 92 
3 92 229 270 
3 121 271 274 
3 121 274 272 
3 272 274 273 
3 106 259 258 
3 106 258 240 
3 240 258 292 
3 274 262 314 
3 274 314 273 
3 273 314 315 
3 161 162 118 
3 161 118 119 
3 156 275 204 
3 156 204 276 
3 178 171 237 
3 178 237 145 
3 277 154 244 
3 277 244 83 
3 283 278 79 
3 283 79 279 
3 128 126 280 
3 128 280 281 
3 282 283 279 
3 282 279 80 
3 303 207 208 
3 303 208 202 
3 284 197 102 
3 284 102 139 
3 113 115 163 
3 113 163 288 
3 88 285 286 
3 88 286 222 
3 255 228 87 
3 255 87 223 
3 111 112 99 
3 111 99 287 
3 109 111 287 
3 109 287 101 
3 113 288 289 
3 113 289 235 
3 258 290 291 
3 258 291 292 
3 293 294 233 
3 293 233 130 
3 220 250 86 
3 220 86 87 
3 100 134 136 
3 206 205 188 
3 295 277 83 
3 155 156 276 
3 295 158 157 
3 147 296 312 
3 297 138 136 
3 298 299 93 
3 195 299 300 
3 76 75 78 
3 137 200 301 
3 302 209 131 
3 137 284 139 
3 201 303 202 
3 272 77 121 
3 123 304 305 
3 180 75 306 
3 214 269 213 
3 307 210 211 
3 257 230 255 
3 187 308 309 
3 310 82 219 
3 311 81 312 
3 152 243 245 
3 307 105 313 
3 314 262 315 
3 0 63 42 
3 0 42 1 
3 1 42 2 
3 1 2 3 
3 3 2 45 
3 3 45 4 
3 4 45 47 
3 4 47 5 
3 5 47 6 
3 5 6 7 
3 7 6 50 
3 7 50 8 
3 8 50 51 
3 8 51 9 
3 9 51 10 
3 9 10 11 
3 11 10 72 
3 11 72 12 
3 12 72 13 
3 14 15 16 
3 14 16 31 
3 31 16 35 
3 31 35 29 
3 29 35 17 
3 29 17 18 
3 18 17 38 
3 18 38 19 
3 19 38 40 
3 19 40 25 
3 25 40 20 
3 25 20 21 
3 21 20 41 
3 21 41 22 
3 22 41 60 
3 22 60 23 
3 23 60 59 
3 21 22 24 
3 21 24 25 
3 25 24 26 
3 25 26 19 
3 19 26 27 
3 19 27 18 
3 18 27 28 
3 18 28 29 
3 29 28 30 
3 29 30 31 
3 31 30 32 
3 31 32 14 
3 14 32 33 
3 14 33 15 
3 16 15 34 
3 16 34 35 
3 35 34 36 
3 35 36 17 
3 17 36 37 
3 17 37 38 
3 38 37 39 
3 38 39 40 
3 40 39 56 
3 40 56 20 
3 20 56 58 
3 20 58 41 
3 41 58 60 
3 42 63 43 
3 42 43 2 
3 2 43 44 
3 2 44 45 
3 45 44 46 
3 45 46 47 
3 47 46 48 
3 47 48 6 
3 6 48 49 
3 6 49 50 
3 50 49 61 
3 50 61 51 
3 51 61 10 
3 34 15 52 
3 34 52 36 
3 36 52 53 
3 36 53 37 
3 37 53 54 
3 37 54 39 
3 39 54 55 
3 39 55 56 
3 56 55 57 
3 56 57 58 
3 58 57 59 
3 58 59 60 
3 72 10 61 
3 72 61 71 
3 71 61 49 
3 71 49 69 
3 69 49 48 
3 69 48 67 
3 67 48 46 
3 67 46 65 
3 65 46 44 
3 65 44 62 
3 62 44 43 
3 62 43 63 
3 62 63 64 
3 62 64 65 
3 65 64 66 
3 65 66 67 
3 67 66 68 
3 67 68 69 
3 69 68 70 
3 69 70 71 
3 71 70 13 
3 71 13 72 
3 73 9 11 
3 73 11 12 
