ply
format ascii 1.0
comment VCGLIB generated
comment TextureFile ../textures/Toad.bmp
element vertex 381
property float x
property float y
property float z
property float nx
property float ny
property float nz
property float texture_u
property float texture_v
element face 316
property list uchar int vertex_indices
end_header
-43.63746 17.3751 21.36837 -0.8765613 0.4744792 0.08068403 0.920109 0.569654
-17.17514 0.28992 39.94215 0.2727109 -0.3331319 0.9025807 0.849812 0.528838
-39.50324 0.98131 37.26274 -0.326276 -0.822376 0.466092 0.878484 0.530490
-36.20044 16.93462 34.84913 -0.3795781 0.6435542 0.6646492 0.880870 0.568601
-49.36137 1.505149 22.98785 -0.9700342 -0.2144011 0.114306 0.922020 0.531742
-30.36977 1.564558 -13.50539 -0.291396 -0.650252 -0.701613 0.989075 0.531884
-7.114775 0.625842 2.377102 0.7315893 -0.6413372 -0.2312221 0.928336 0.529641
-13.9958 1.057532 -11.54048 0.5378041 -0.3084901 -0.7846022 0.968049 0.530672
-8.408562 16.28425 25.59572 0.804179 0.571757 0.16245 0.874871 0.567048
-4.20891 0.10701 28.40622 0.9027553 -0.2900321 0.3176701 0.864038 0.528402
-10.21164 13.72593 2.177195 0.868459 0.409097 -0.280033 0.931908 0.560936
-40.35892 1.655262 -1.612183 -0.8411542 -0.229517 -0.4896751 0.971026 0.532100
-34.20646 26.11964 20.60474 -0.4083659 0.9127257 -0.013004 0.912469 0.590544
-29.91409 19.33763 -0.12097 -0.1162 0.8879132 -0.4450931 0.957052 0.574342
-28.86162 12.47932 -10.66144 -0.3068951 0.4901111 -0.8158472 0.980858 0.557958
-36.5092 14.54023 -0.978525 -0.6874737 0.5717407 -0.4477638 0.965677 0.562882
-15.46468 12.06453 -9.053818 0.4062571 0.6406551 -0.6515491 0.963655 0.556967
-16.84016 25.58188 22.68875 0.2662141 0.9512754 0.1555801 0.890168 0.589259
-16.5172 18.92276 1.486519 0.4609457 0.8244135 -0.3284378 0.939849 0.573351
-18.83409 16.39685 36.9331 0.3154221 0.4482932 0.8363864 0.858569 0.567317
14.53748 49.55481 28.67164 0.3474661 0.3582081 0.8665762 0.418701 0.773926
-13.96078 49.55971 28.71345 -0.264912 0.450484 0.852576 0.356201 0.773926
10.51889 73.55715 12.58213 0.2691399 0.8344737 0.4808508 0.418701 0.836426
10.48921 74.80961 -8.379219 0.5283322 0.7799733 -0.3354202 0.418701 0.773926
-10.00954 74.81312 -8.349166 -0.2859861 0.8424152 -0.4566711 0.418701 0.773926
-28.01284 51.79861 -8.697089 -0.8239709 0.49614 -0.27371 0.356201 0.773926
-9.979933 73.56065 12.61219 -0.5052672 0.7769752 0.3755191 0.356201 0.773926
28.51749 50.35752 15.17605 0.8129603 0.4946752 0.3072331 0.356201 0.773926
35.51382 29.30523 15.41006 0.9158829 0.022722 0.400802 0.775513 0.434692
17.5404 28.23483 33.40324 0.3179852 -0.2829272 0.9048965 0.775513 0.497192
-21.48088 11.07959 18.91126 -0.2966319 -0.8630738 0.4087949 0.775513 0.434692
-16.95742 28.24074 33.45367 -0.3876349 -0.01954699 0.9216058 0.775513 0.497192
22.01653 11.07213 18.84735 0.5342171 -0.7832731 0.317955 0.775513 0.497192
21.96916 13.07005 -14.59085 0.2649179 -0.8640337 -0.4280939 0.775513 0.434692
14.46681 52.53683 -21.23619 0.2663869 0.4144279 -0.8702227 0.356201 0.773926
17.45338 25.85404 -27.34331 0.366733 -0.034348 -0.929692 0.775513 0.497192
35.47512 28.42012 -11.68948 0.9004617 -0.2674359 -0.3429969 0.713013 0.434692
28.48362 51.78894 -8.779754 0.832892 0.404212 -0.378026 0.418701 0.836426
-17.04444 25.85997 -27.29288 -0.296502 -0.326354 -0.8975409 0.713013 0.434692
-27.97897 50.3672 15.25878 -0.8347828 0.4016999 0.3765299 0.418701 0.773926
-34.98177 29.31736 15.5132 -0.913683 -0.257708 0.314277 0.775513 0.497192
-21.52821 13.07752 -14.52705 -0.5092731 -0.7931871 -0.333909 0.775513 0.497192
-35.02058 28.43221 -11.58611 -0.910042 0.006573 -0.414464 0.775513 0.434692
-14.03145 52.54172 -21.1944 -0.3335299 0.3472588 -0.8764526 0.418701 0.836426
-30.47344 54.18389 18.45428 -0.790988 0.438422 0.42676 0.946753 0.465877
-40.01633 29.28461 -9.065151 -0.8830909 0.34015 -0.323185 0.980005 0.465877
17.98512 76.986 -11.30661 0.6891522 0.6150813 -0.3830721 0.946753 0.465877
-17.51268 76.99208 -11.25461 -0.4600148 0.6109018 -0.6443488 0.980005 0.465877
15.46154 56.80013 -25.53199 0.298384 0.470612 -0.8303561 0.980005 0.497006
30.98397 55.81342 -9.085225 0.8632004 0.3885391 -0.3223701 0.980005 0.497006
18.02229 71.38306 15.40488 0.6693183 0.5844842 0.4586842 0.946753 0.465877
31.02282 54.17332 18.36408 0.7879531 0.479907 0.385771 0.980005 0.497006
13.03977 55.01764 29.45975 0.5466449 0.3474019 0.7618998 0.980005 0.465877
40.47873 29.27079 -9.183128 0.8927376 0.3205158 -0.3166848 0.946753 0.465877
19.94286 29.32764 -35.19458 0.394892 0.34713 -0.850624 0.980005 0.465877
20.0439 31.11203 35.53352 0.623843 0.3591439 0.6941439 0.980005 0.497006
40.51731 29.65683 17.88653 0.8363869 0.344163 0.426625 0.980005 0.465877
-39.9777 29.67064 18.00454 -0.8586118 0.3256359 0.3959129 0.946753 0.465877
-15.03659 56.80536 -25.48731 -0.3911372 0.3965302 -0.8305273 0.980005 0.465877
-17.47552 71.38914 15.45685 -0.7523681 0.5782341 0.3155751 0.980005 0.465877
-12.45857 55.02198 29.49705 -0.4887617 0.4182807 0.7656065 0.946753 0.465877
-19.45358 31.11885 35.59138 -0.574347 0.293404 0.7642249 0.980005 0.465877
-30.51227 55.82395 -8.995037 -0.8598606 0.4507388 -0.2397379 0.980005 0.497006
-19.55473 29.33448 -35.13674 -0.408938 0.361571 -0.837876 0.946753 0.465877
35.39749 162.3166 -77.72424 0.355482 0.50123 -0.788924 0.630615 0.391357
43.89749 108.271 -73.21661 0.4630231 -0.5773791 -0.6724902 0.755615 0.516357
35.42845 90.15213 -50.36442 0.231647 -0.9559649 -0.180197 0.755615 0.391357
-44.09708 108.2861 -73.08765 -0.4911561 -0.5727121 -0.6563281 0.630615 0.391357
17.05781 115.929 37.75258 0.149342 -0.844545 0.514238 0.212507 0.266851
-16.44016 115.9347 37.80176 -0.03959002 -0.8483913 0.5278872 0.066145 0.199682
71.00948 111.9498 6.394214 0.5504481 -0.7963911 0.250536 0.445230 0.460865
87.99889 135.2541 -2.176207 0.9518613 -0.2929311 0.09028602 0.651681 0.464961
35.59547 133.1989 63.68753 0.3186961 -0.6451332 0.6944322 0.372267 0.197287
38.01731 104.7961 11.05173 0.250436 -0.9117481 0.325572 0.150230 0.526257
-0.024974 205.7516 -28.11461 -0.003640001 0.9359362 -0.3521511 0.755615 0.516357
19.5216 212.002 4.948043 0.126762 0.9917732 -0.017811 0.630615 0.391357
-34.9304 205.3105 36.92676 -0.356325 0.8967529 0.262425 0.468416 0.162551
-18.9753 211.9436 5.50019 -0.2267251 0.9715562 -0.06836802 0.755615 0.391357
35.56522 205.2985 36.82364 0.306314 0.907344 0.287921 0.711105 0.280258
-43.39941 187.1917 59.77894 -0.4866949 0.5732739 0.6591548 0.337399 0.196145
44.60631 161.6915 69.42302 0.492303 -0.004134 0.8704141 0.561545 0.135249
44.59513 187.1765 59.64997 0.4656092 0.5808733 0.6676783 0.634426 0.383538
-43.3882 161.7065 69.55181 -0.4645719 0.012873 0.8854418 0.257458 0.260992
-70.51144 183.5128 -19.83175 -0.661018 0.692975 -0.287821 0.630615 0.391357
-39.02005 199.9152 -25.7971 -0.356966 0.8541999 -0.3780449 0.438000 0.282411
-35.09748 162.2637 -77.12511 -0.307695 0.496662 -0.811573 0.755615 0.516357
-87.49023 135.2842 -1.91915 -0.9530763 -0.2767501 0.122699 0.266656 0.122505
-34.89943 133.1461 64.28661 -0.205386 -0.6156951 0.7607471 0.064150 0.056290
-32.98027 102.9552 9.904556 -0.203599 -0.8985561 0.3887731 0.222357 0.453492
-70.48106 111.9091 7.097186 -0.5564719 -0.7565029 0.343573 0.186373 0.237627
-16.52018 92.81469 -16.66002 -0.163157 -0.9722142 0.167867 0.163882 0.453396
16.97776 92.80893 -16.70909 0.08570798 -0.9884458 0.125017 0.128609 0.486561
87.98836 160.1784 -11.51846 0.9534488 0.285652 -0.09663498 0.755615 0.391357
-87.50067 160.7043 -11.19643 -0.9523489 0.282334 -0.115409 0.630615 0.391357
-35.06721 90.16424 -50.26118 -0.3252582 -0.9367406 -0.1293221 0.630615 0.391357
70.97906 183.5535 -20.53472 0.6649522 0.7080683 -0.2376511 0.755615 0.516357
39.47446 199.9666 -26.40796 0.351755 0.8935899 -0.278865 0.630615 0.391357
-19.06861 188.0098 -58.14459 -0.132336 0.7574591 -0.6393301 0.395393 0.141199
19.4291 188.0032 -58.2011 0.222107 0.7779489 -0.5877619 0.476287 0.315873
43.88632 133.7561 -82.9895 0.4868311 -0.001346 -0.8734951 0.630615 0.391357
-44.10801 134.267 -82.79576 -0.4654879 0.001544 -0.8850529 0.755615 0.391357
-38.48156 85.27991 10.11884 -0.8528861 -0.5145811 0.08827101 0.427863 0.910905
-21.44442 78.66502 37.46627 -0.5548629 -0.5042349 0.6617208 0.553406 0.921725
-20.97411 68.1786 17.43484 -0.5466962 -0.8265902 0.1336861 0.569520 0.953885
0.075811 100.5978 50.89701 -0.00196 -0.149868 0.9887041 0.646364 0.773936
-27.9411 95.71671 38.19598 -0.6914914 -0.1376991 0.7091393 0.470856 0.838720
0.067255 78.97946 46.55302 -0.002481 -0.4719069 0.8816449 0.684379 0.863536
21.5233 68.17128 17.3725 0.5613911 -0.8233151 0.08362101 0.850896 0.893952
39.01366 85.26662 10.00536 0.9019292 -0.4278391 0.05897001 0.935986 0.803688
22.05286 78.65758 37.40257 0.5524639 -0.5056809 0.6626239 0.839454 0.861338
28.56108 119.6332 40.23814 0.5890821 0.03200701 0.8074391 0.802602 0.660162
0.078284 113.6174 51.59347 -0.00161 0.02701299 0.9996338 0.622624 0.718868
28.55547 95.70699 38.11319 0.6912628 -0.137737 0.7093548 0.843793 0.759598
0.07471 130.7568 47.78707 -0.001265 0.216801 0.976215 0.593432 0.649936
-27.93545 119.643 40.32096 -0.5900302 0.03203901 0.8067452 0.428382 0.739546
-14.49998 66.98056 -0.380291 -0.4452039 -0.8837889 -0.143912 0.261325 0.917439
-28.01473 79.64323 -12.31735 -0.6740422 -0.5989871 -0.4322981 0.318775 0.850292
43.50726 108.2483 3.93203 0.9784058 -0.134977 0.156536 0.929226 0.707210
0.043092 62.88596 30.83059 -0.003181 -0.957278 0.289152 0.715571 0.937552
-42.98746 108.2631 4.058782 -0.9823604 -0.1844381 0.03083501 0.358594 0.828184
-0.039081 76.1338 -27.94491 0.016242 -0.6619792 -0.7493463 0.428022 0.858448
-0.02025 64.70082 -13.81031 -0.070105 -0.935788 -0.345523 0.350716 0.919163
14.99818 66.97549 -0.42351 0.402254 -0.8799111 -0.25288 0.261325 0.917439
-30.52724 97.62751 -22.56483 -0.6339522 -0.4168831 -0.6513932 0.359992 0.759497
-0.048599 92.30557 -35.91221 0.169865 -0.4694802 -0.8664492 0.451811 0.776204
28.48175 79.63359 -12.40005 0.608624 -0.6350281 -0.4757271 0.318775 0.850292
30.96898 97.61696 -22.65496 0.7776552 -0.3776431 -0.5026312 0.359992 0.759497
-56.29028 52.50852 1.552603 -0.006476002 -0.9733893 0.2290661 0.236816 0.804199
-59.91619 49.98067 9.230979 -0.002477001 -0.7377092 0.6751142 0.111816 0.804199
-27.57033 58.28669 4.972864 0.307378 -0.161308 0.9378159 0.236816 0.929199
-63.58297 58.88189 11.53674 -0.340636 -0.4606769 0.8195999 0.236816 0.929199
-17.92262 55.10578 -0.79677 0.9771917 -0.205254 0.05447199 0.111816 0.804199
-27.87516 58.13335 -8.147015 0.4037728 0.1440359 -0.9034496 0.236816 0.804199
-28.30507 64.75143 -4.02232 0.4875923 0.8561545 -0.1710361 0.111816 0.804199
-27.90342 62.0696 3.716908 0.4758279 0.6325389 0.611132 0.111816 0.804199
-56.65162 60.22768 12.16053 0.2651841 -0.2056091 0.9420204 0.236816 0.804199
-27.5421 54.35044 -6.891055 0.2971919 -0.7946868 -0.5292919 0.236816 0.929199
-57.48422 69.68507 9.020639 0.009388996 0.6923918 0.7214608 0.236816 0.804199
-56.5895 51.56783 -13.93998 -0.006916002 -0.7550063 -0.6556813 0.111816 0.804199
-63.53443 52.11139 -8.869132 -0.3763601 -0.8505191 -0.367383 0.236816 0.804199
-57.42225 61.02513 -17.07991 -0.256659 0.052705 -0.965064 0.111816 0.804199
-72.30861 62.03257 -6.914163 -0.7850344 0.1447561 -0.6023013 0.236816 0.804199
-72.68489 49.93275 -0.266371 -0.635284 -0.769212 -0.068754 0.236816 0.929199
-72.69838 51.82227 5.428249 -0.6992509 -0.3797559 0.6056679 0.111816 0.804199
-72.33119 65.1816 2.576935 -0.8311951 0.4669901 0.3017201 0.236816 0.929199
-58.20207 73.78798 -7.092888 -0.13984 0.8907868 -0.4323699 0.236816 0.804199
56.29028 52.50852 1.552603 0.006476002 -0.9733893 0.2290661 0.236816 0.804199
59.91619 49.98067 9.230979 0.002477001 -0.7377092 0.6751142 0.111816 0.804199
27.57033 58.28669 4.972864 -0.307378 -0.161308 0.9378159 0.236816 0.929199
63.58297 58.88189 11.53674 0.340636 -0.4606769 0.8195999 0.236816 0.929199
17.92262 55.10578 -0.79677 -0.9771917 -0.205254 0.05447199 0.111816 0.804199
27.87516 58.13335 -8.147015 -0.4037728 0.1440359 -0.9034496 0.236816 0.804199
28.30507 64.75143 -4.02232 -0.4875923 0.8561545 -0.1710361 0.111816 0.804199
27.90342 62.0696 3.716908 -0.4758279 0.6325389 0.611132 0.111816 0.804199
56.65162 60.22768 12.16053 -0.2651841 -0.2056091 0.9420204 0.236816 0.804199
27.5421 54.35044 -6.891055 -0.2971919 -0.7946868 -0.5292919 0.236816 0.929199
57.48422 69.68507 9.020639 -0.009388996 0.6923918 0.7214608 0.236816 0.804199
56.5895 51.56783 -13.93998 0.006916002 -0.7550063 -0.6556813 0.111816 0.804199
63.53443 52.11139 -8.869132 0.3763601 -0.8505191 -0.367383 0.236816 0.804199
57.42225 61.02513 -17.07991 0.256659 0.052705 -0.965064 0.111816 0.804199
72.30861 62.03257 -6.914163 0.7850344 0.1447561 -0.6023013 0.236816 0.804199
72.68489 49.93275 -0.266371 0.635284 -0.769212 -0.068754 0.236816 0.929199
72.69838 51.82227 5.428249 0.6992509 -0.3797559 0.6056679 0.111816 0.804199
72.33119 65.1816 2.576935 0.8311951 0.4669901 0.3017201 0.236816 0.929199
58.20207 73.78798 -7.092888 0.13984 0.8907868 -0.4323699 0.236816 0.804199
43.63746 17.3751 21.36837 0.8765613 0.4744792 0.08068403 0.920109 0.569654
17.17514 0.28992 39.94215 -0.2727109 -0.3331319 0.9025807 0.849812 0.528838
39.50324 0.98131 37.26274 0.326276 -0.822376 0.466092 0.878484 0.530490
36.20044 16.93462 34.84913 0.3795781 0.6435542 0.6646492 0.880870 0.568601
49.36137 1.505149 22.98785 0.9700342 -0.2144011 0.114306 0.922020 0.531742
30.36977 1.564558 -13.50539 0.291396 -0.650252 -0.701613 0.989075 0.531884
7.114775 0.625842 2.377102 -0.7315893 -0.6413372 -0.2312221 0.928336 0.529641
13.9958 1.057532 -11.54048 -0.5378041 -0.3084901 -0.7846022 0.968049 0.530672
8.408562 16.28425 25.59572 -0.804179 0.571757 0.16245 0.874871 0.567048
4.20891 0.10701 28.40622 -0.9027553 -0.2900321 0.3176701 0.864038 0.528402
10.21164 13.72593 2.177195 -0.868459 0.409097 -0.280033 0.931908 0.560936
40.35892 1.655262 -1.612183 0.8411542 -0.229517 -0.4896751 0.971026 0.532100
34.20646 26.11964 20.60474 0.4083659 0.9127257 -0.013004 0.912469 0.590544
29.91409 19.33763 -0.12097 0.1162 0.8879132 -0.4450931 0.957052 0.574342
28.86162 12.47932 -10.66144 0.3068951 0.4901111 -0.8158472 0.980858 0.557958
36.5092 14.54023 -0.978525 0.6874737 0.5717407 -0.4477638 0.965677 0.562882
15.46468 12.06453 -9.053818 -0.4062571 0.6406551 -0.6515491 0.963655 0.556967
16.84016 25.58188 22.68875 -0.2662141 0.9512754 0.1555801 0.890168 0.589259
16.5172 18.92276 1.486519 -0.4609457 0.8244135 -0.3284378 0.939849 0.573351
18.83409 16.39685 36.9331 -0.3154221 0.4482932 0.8363864 0.858569 0.567317
14.53748 49.55481 28.67164 0.3474661 0.3582081 0.8665762 0.418701 0.836426
10.51889 73.55715 12.58213 0.2691399 0.8344737 0.4808508 0.418701 0.773926
10.51889 73.55715 12.58213 0.2691399 0.8344737 0.4808508 0.356201 0.773926
28.51749 50.35752 15.17605 0.8129603 0.4946752 0.3072331 0.418701 0.836426
10.48921 74.80961 -8.379219 0.5283322 0.7799733 -0.3354202 0.418701 0.836426
-13.96078 49.55971 28.71345 -0.264912 0.450484 0.852576 0.418701 0.836426
28.48362 51.78894 -8.779754 0.832892 0.404212 -0.378026 0.418701 0.773926
10.48921 74.80961 -8.379219 0.5283322 0.7799733 -0.3354202 0.356201 0.773926
14.46681 52.53683 -21.23619 0.2663869 0.4144279 -0.8702227 0.418701 0.836426
-9.979933 73.56065 12.61219 -0.5052672 0.7769752 0.3755191 0.418701 0.836426
-27.97897 50.3672 15.25878 -0.8347828 0.4016999 0.3765299 0.418701 0.836426
-9.979933 73.56065 12.61219 -0.5052672 0.7769752 0.3755191 0.418701 0.773926
-10.00954 74.81312 -8.349166 -0.2859861 0.8424152 -0.4566711 0.356201 0.773926
-28.01284 51.79861 -8.697089 -0.8239709 0.49614 -0.27371 0.418701 0.836426
-10.00954 74.81312 -8.349166 -0.2859861 0.8424152 -0.4566711 0.418701 0.836426
-14.03145 52.54172 -21.1944 -0.3335299 0.3472588 -0.8764526 0.418701 0.773926
28.51749 50.35752 15.17605 0.8129603 0.4946752 0.3072331 0.713013 0.434692
14.53748 49.55481 28.67164 0.3474661 0.3582081 0.8665762 0.775513 0.497192
14.53748 49.55481 28.67164 0.3474661 0.3582081 0.8665762 0.713013 0.434692
17.5404 28.23483 33.40324 0.3179852 -0.2829272 0.9048965 0.713013 0.434692
35.51382 29.30523 15.41006 0.9158829 0.022722 0.400802 0.775513 0.497192
22.01653 11.07213 18.84735 0.5342171 -0.7832731 0.317955 0.775513 0.434692
28.48362 51.78894 -8.779754 0.832892 0.404212 -0.378026 0.713013 0.434692
28.51749 50.35752 15.17605 0.8129603 0.4946752 0.3072331 0.775513 0.497192
28.48362 51.78894 -8.779754 0.832892 0.404212 -0.378026 0.775513 0.497192
22.01653 11.07213 18.84735 0.5342171 -0.7832731 0.317955 0.713013 0.434692
-16.95742 28.24074 33.45367 -0.3876349 -0.01954699 0.9216058 0.775513 0.434692
21.96916 13.07005 -14.59085 0.2649179 -0.8640337 -0.4280939 0.713013 0.434692
35.47512 28.42012 -11.68948 0.9004617 -0.2674359 -0.3429969 0.775513 0.497192
-21.48088 11.07959 18.91126 -0.2966319 -0.8630738 0.4087949 0.775513 0.497192
-14.03145 52.54172 -21.1944 -0.3335299 0.3472588 -0.8764526 0.713013 0.434692
14.46681 52.53683 -21.23619 0.2663869 0.4144279 -0.8702227 0.775513 0.497192
17.45338 25.85404 -27.34331 0.366733 -0.034348 -0.929692 0.775513 0.434692
-14.03145 52.54172 -21.1944 -0.3335299 0.3472588 -0.8764526 0.775513 0.497192
21.96916 13.07005 -14.59085 0.2649179 -0.8640337 -0.4280939 0.775513 0.497192
14.46681 52.53683 -21.23619 0.2663869 0.4144279 -0.8702227 0.713013 0.434692
-27.97897 50.3672 15.25878 -0.8347828 0.4016999 0.3765299 0.713013 0.434692
-28.01284 51.79861 -8.697089 -0.8239709 0.49614 -0.27371 0.775513 0.497192
-21.48088 11.07959 18.91126 -0.2966319 -0.8630738 0.4087949 0.713013 0.434692
-21.52821 13.07752 -14.52705 -0.5092731 -0.7931871 -0.333909 0.713013 0.434692
-17.04444 25.85997 -27.29288 -0.296502 -0.326354 -0.8975409 0.775513 0.497192
-13.96078 49.55971 28.71345 -0.264912 0.450484 0.852576 0.713013 0.434692
-27.97897 50.3672 15.25878 -0.8347828 0.4016999 0.3765299 0.775513 0.497192
-13.96078 49.55971 28.71345 -0.264912 0.450484 0.852576 0.775513 0.497192
-34.98177 29.31736 15.5132 -0.913683 -0.257708 0.314277 0.713013 0.434692
-21.52821 13.07752 -14.52705 -0.5092731 -0.7931871 -0.333909 0.775513 0.434692
-35.02058 28.43221 -11.58611 -0.910042 0.006573 -0.414464 0.775513 0.497192
-14.03145 52.54172 -21.1944 -0.3335299 0.3472588 -0.8764526 0.775513 0.434692
-35.02058 28.43221 -11.58611 -0.910042 0.006573 -0.414464 0.713013 0.434692
17.98512 76.986 -11.30661 0.6891522 0.6150813 -0.3830721 0.980005 0.465877
31.02282 54.17332 18.36408 0.7879531 0.479907 0.385771 0.946753 0.465877
15.46154 56.80013 -25.53199 0.298384 0.470612 -0.8303561 0.946753 0.465877
17.98512 76.986 -11.30661 0.6891522 0.6150813 -0.3830721 0.980005 0.497006
30.98397 55.81342 -9.085225 0.8632004 0.3885391 -0.3223701 0.980005 0.465877
18.02229 71.38306 15.40488 0.6693183 0.5844842 0.4586842 0.980005 0.497006
30.98397 55.81342 -9.085225 0.8632004 0.3885391 -0.3223701 0.946753 0.465877
13.03977 55.01764 29.45975 0.5466449 0.3474019 0.7618998 0.980005 0.497006
40.47873 29.27079 -9.183128 0.8927376 0.3205158 -0.3166848 0.980005 0.497006
13.03977 55.01764 29.45975 0.5466449 0.3474019 0.7618998 0.946753 0.465877
-30.47344 54.18389 18.45428 -0.790988 0.438422 0.42676 0.980005 0.497006
-40.01633 29.28461 -9.065151 -0.8830909 0.34015 -0.323185 0.946753 0.465877
-30.51227 55.82395 -8.995037 -0.8598606 0.4507388 -0.2397379 0.946753 0.465877
-17.47552 71.38914 15.45685 -0.7523681 0.5782341 0.3155751 0.980005 0.497006
-30.47344 54.18389 18.45428 -0.790988 0.438422 0.42676 0.980005 0.465877
-17.51268 76.99208 -11.25461 -0.4600148 0.6109018 -0.6443488 0.946753 0.465877
-15.03659 56.80536 -25.48731 -0.3911372 0.3965302 -0.8305273 0.980005 0.497006
-15.03659 56.80536 -25.48731 -0.3911372 0.3965302 -0.8305273 0.946753 0.465877
-39.9777 29.67064 18.00454 -0.8586118 0.3256359 0.3959129 0.980005 0.497006
-17.51268 76.99208 -11.25461 -0.4600148 0.6109018 -0.6443488 0.980005 0.497006
-40.01633 29.28461 -9.065151 -0.8830909 0.34015 -0.323185 0.980005 0.497006
19.5216 212.002 4.948043 0.126762 0.9917732 -0.017811 0.755615 0.391357
-70.51144 183.5128 -19.83175 -0.661018 0.692975 -0.287821 0.755615 0.516357
-44.09708 108.2861 -73.08765 -0.4911561 -0.5727121 -0.6563281 0.755615 0.516357
35.39749 162.3166 -77.72424 0.355482 0.50123 -0.788924 0.755615 0.516357
71.00948 111.9498 6.394214 0.5504481 -0.7963911 0.250536 0.113586 0.557705
17.05781 115.929 37.75258 0.149342 -0.844545 0.514238 0.210712 0.521623
35.42845 90.15213 -50.36442 0.231647 -0.9559649 -0.180197 0.064014 0.486045
-70.51144 183.5128 -19.83175 -0.661018 0.692975 -0.287821 0.343242 0.096682
-87.50067 160.7043 -11.19643 -0.9523489 0.282334 -0.115409 0.232094 0.127822
-18.9753 211.9436 5.50019 -0.2267251 0.9715562 -0.06836802 0.612035 0.337038
-0.024974 205.7516 -28.11461 -0.003640001 0.9359362 -0.3521511 0.582854 0.187170
19.5216 212.002 4.948043 0.126762 0.9917732 -0.017811 0.690282 0.209318
-18.9753 211.9436 5.50019 -0.2267251 0.9715562 -0.06836802 0.555662 0.144004
35.56522 205.2985 36.82364 0.306314 0.907344 0.287921 0.691779 0.298347
-34.9304 205.3105 36.92676 -0.356325 0.8967529 0.262425 0.453694 0.148087
44.60631 161.6915 69.42302 0.492303 -0.004134 0.8704141 0.554486 0.448385
-34.89943 133.1461 64.28661 -0.205386 -0.6156951 0.7607471 0.231190 0.329269
-70.51144 183.5128 -19.83175 -0.661018 0.692975 -0.287821 0.294124 0.376307
-35.09748 162.2637 -77.12511 -0.307695 0.496662 -0.811573 0.218553 0.122546
-34.9304 205.3105 36.92676 -0.356325 0.8967529 0.262425 0.607089 0.475241
-43.39941 187.1917 59.77894 -0.4866949 0.5732739 0.6591548 0.736545 0.336650
-34.9304 205.3105 36.92676 -0.356325 0.8967529 0.262425 0.775844 0.256656
-87.50067 160.7043 -11.19643 -0.9523489 0.282334 -0.115409 0.372829 0.046115
-43.3882 161.7065 69.55181 -0.4645719 0.012873 0.8854418 0.629429 0.413028
87.99889 135.2541 -2.176207 0.9518613 -0.2929311 0.09028602 0.462103 0.446480
87.98836 160.1784 -11.51846 0.9534488 0.285652 -0.09663498 0.535611 0.393438
44.60631 161.6915 69.42302 0.492303 -0.004134 0.8704141 0.194697 0.262538
-34.89943 133.1461 64.28661 -0.205386 -0.6156951 0.7607471 0.477524 0.470465
-16.44016 115.9347 37.80176 -0.03959002 -0.8483913 0.5278872 0.246003 0.487779
-34.89943 133.1461 64.28661 -0.205386 -0.6156951 0.7607471 0.310117 0.488629
-70.48106 111.9091 7.097186 -0.5564719 -0.7565029 0.343573 0.261026 0.416635
-35.06721 90.16424 -50.26118 -0.3252582 -0.9367406 -0.1293221 0.137957 0.416022
44.59513 187.1765 59.64997 0.4656092 0.5808733 0.6676783 0.268206 0.209496
70.97906 183.5535 -20.53472 0.6649522 0.7080683 -0.2376511 0.600010 0.309360
35.56522 205.2985 36.82364 0.306314 0.907344 0.287921 0.384964 0.161784
-87.50067 160.7043 -11.19643 -0.9523489 0.282334 -0.115409 0.738436 0.373366
-44.10801 134.267 -82.79576 -0.4654879 0.001544 -0.8850529 0.430418 0.080852
-44.09708 108.2861 -73.08765 -0.4911561 -0.5727121 -0.6563281 0.299320 0.154533
-87.49023 135.2842 -1.91915 -0.9530763 -0.2767501 0.122699 0.606858 0.447381
-35.06721 90.16424 -50.26118 -0.3252582 -0.9367406 -0.1293221 0.210575 0.250178
-70.48106 111.9091 7.097186 -0.5564719 -0.7565029 0.343573 0.458302 0.484479
39.47446 199.9666 -26.40796 0.351755 0.8935899 -0.278865 0.642589 0.211743
19.5216 212.002 4.948043 0.126762 0.9917732 -0.017811 0.523009 0.129981
-0.024974 205.7516 -28.11461 -0.003640001 0.9359362 -0.3521511 0.607039 0.145025
39.47446 199.9666 -26.40796 0.351755 0.8935899 -0.278865 0.343582 0.157158
-19.06861 188.0098 -58.14459 -0.132336 0.7574591 -0.6393301 0.730176 0.309048
35.39749 162.3166 -77.72424 0.355482 0.50123 -0.788924 0.352315 0.461331
70.97906 183.5535 -20.53472 0.6649522 0.7080683 -0.2376511 0.113467 0.174830
35.42845 90.15213 -50.36442 0.231647 -0.9559649 -0.180197 0.466794 0.465907
43.89749 108.271 -73.21661 0.4630231 -0.5773791 -0.6724902 0.611549 0.411432
71.00948 111.9498 6.394214 0.5504481 -0.7963911 0.250536 0.212131 0.263109
-35.09748 162.2637 -77.12511 -0.307695 0.496662 -0.811573 0.610127 0.301001
35.39749 162.3166 -77.72424 0.355482 0.50123 -0.788924 0.391448 0.147941
43.88632 133.7561 -82.9895 0.4868311 -0.001346 -0.8734951 0.277877 0.200112
-19.06861 188.0098 -58.14459 -0.132336 0.7574591 -0.6393301 0.639113 0.200146
-44.10801 134.267 -82.79576 -0.4654879 0.001544 -0.8850529 0.549824 0.390909
43.89749 108.271 -73.21661 0.4630231 -0.5773791 -0.6724902 0.198023 0.261563
-44.09708 108.2861 -73.08765 -0.4911561 -0.5727121 -0.6563281 0.469970 0.452360
43.88632 133.7561 -82.9895 0.4868311 -0.001346 -0.8734951 0.718150 0.336746
87.98836 160.1784 -11.51846 0.9534488 0.285652 -0.09663498 0.401103 0.083860
87.99889 135.2541 -2.176207 0.9518613 -0.2929311 0.09028602 0.294022 0.158879
-20.97411 68.1786 17.43484 -0.5466962 -0.8265902 0.1336861 0.143524 0.921015
-38.48156 85.27991 10.11884 -0.8528861 -0.5145811 0.08827101 0.161186 0.835528
0.043092 62.88596 30.83059 -0.003181 -0.957278 0.289152 0.064014 0.953222
-42.98746 108.2631 4.058782 -0.9823604 -0.1844381 0.03083501 0.165920 0.724221
21.5233 68.17128 17.3725 0.5613911 -0.8233151 0.08362101 0.143524 0.921015
39.01366 85.26662 10.00536 0.9019292 -0.4278391 0.05897001 0.161186 0.835528
43.50726 108.2483 3.93203 0.9784058 -0.134977 0.156536 0.165920 0.724221
-56.29028 52.50852 1.552603 -0.006476002 -0.9733893 0.2290661 0.236816 0.929199
-56.65162 60.22768 12.16053 0.2651841 -0.2056091 0.9420204 0.111816 0.804199
-27.57033 58.28669 4.972864 0.307378 -0.161308 0.9378159 0.236816 0.804199
-27.5421 54.35044 -6.891055 0.2971919 -0.7946868 -0.5292919 0.236816 0.804199
-63.53443 52.11139 -8.869132 -0.3763601 -0.8505191 -0.367383 0.111816 0.804199
-63.58297 58.88189 11.53674 -0.340636 -0.4606769 0.8195999 0.236816 0.804199
-17.92262 55.10578 -0.79677 0.9771917 -0.205254 0.05447199 0.236816 0.929199
-17.92262 55.10578 -0.79677 0.9771917 -0.205254 0.05447199 0.236816 0.804199
-27.5421 54.35044 -6.891055 0.2971919 -0.7946868 -0.5292919 0.111816 0.804199
-27.87516 58.13335 -8.147015 0.4037728 0.1440359 -0.9034496 0.236816 0.929199
-28.30507 64.75143 -4.02232 0.4875923 0.8561545 -0.1710361 0.236816 0.929199
-27.90342 62.0696 3.716908 0.4758279 0.6325389 0.611132 0.236816 0.804199
-27.57033 58.28669 4.972864 0.307378 -0.161308 0.9378159 0.111816 0.804199
-27.90342 62.0696 3.716908 0.4758279 0.6325389 0.611132 0.236816 0.929199
-59.91619 49.98067 9.230979 -0.002477001 -0.7377092 0.6751142 0.236816 0.804199
-57.48422 69.68507 9.020639 0.009388996 0.6923918 0.7214608 0.236816 0.929199
-27.87516 58.13335 -8.147015 0.4037728 0.1440359 -0.9034496 0.111816 0.804199
-56.5895 51.56783 -13.93998 -0.006916002 -0.7550063 -0.6556813 0.236816 0.804199
-57.48422 69.68507 9.020639 0.009388996 0.6923918 0.7214608 0.111816 0.804199
-72.68489 49.93275 -0.266371 -0.635284 -0.769212 -0.068754 0.111816 0.804199
-63.53443 52.11139 -8.869132 -0.3763601 -0.8505191 -0.367383 0.236816 0.929199
-72.33119 65.1816 2.576935 -0.8311951 0.4669901 0.3017201 0.236816 0.804199
-57.42225 61.02513 -17.07991 -0.256659 0.052705 -0.965064 0.236816 0.804199
-72.30861 62.03257 -6.914163 -0.7850344 0.1447561 -0.6023013 0.236816 0.929199
-72.33119 65.1816 2.576935 -0.8311951 0.4669901 0.3017201 0.111816 0.804199
-72.68489 49.93275 -0.266371 -0.635284 -0.769212 -0.068754 0.236816 0.804199
-72.30861 62.03257 -6.914163 -0.7850344 0.1447561 -0.6023013 0.111816 0.804199
-58.20207 73.78798 -7.092888 -0.13984 0.8907868 -0.4323699 0.111816 0.804199
-58.20207 73.78798 -7.092888 -0.13984 0.8907868 -0.4323699 0.236816 0.929199
56.29028 52.50852 1.552603 0.006476002 -0.9733893 0.2290661 0.236816 0.929199
27.57033 58.28669 4.972864 -0.307378 -0.161308 0.9378159 0.236816 0.804199
56.65162 60.22768 12.16053 -0.2651841 -0.2056091 0.9420204 0.111816 0.804199
27.5421 54.35044 -6.891055 -0.2971919 -0.7946868 -0.5292919 0.236816 0.804199
63.58297 58.88189 11.53674 0.340636 -0.4606769 0.8195999 0.236816 0.804199
63.53443 52.11139 -8.869132 0.3763601 -0.8505191 -0.367383 0.111816 0.804199
17.92262 55.10578 -0.79677 -0.9771917 -0.205254 0.05447199 0.236816 0.929199
17.92262 55.10578 -0.79677 -0.9771917 -0.205254 0.05447199 0.236816 0.804199
27.87516 58.13335 -8.147015 -0.4037728 0.1440359 -0.9034496 0.236816 0.929199
27.5421 54.35044 -6.891055 -0.2971919 -0.7946868 -0.5292919 0.111816 0.804199
27.90342 62.0696 3.716908 -0.4758279 0.6325389 0.611132 0.236816 0.804199
28.30507 64.75143 -4.02232 -0.4875923 0.8561545 -0.1710361 0.236816 0.929199
27.90342 62.0696 3.716908 -0.4758279 0.6325389 0.611132 0.236816 0.929199
27.57033 58.28669 4.972864 -0.307378 -0.161308 0.9378159 0.111816 0.804199
59.91619 49.98067 9.230979 0.002477001 -0.7377092 0.6751142 0.236816 0.804199
57.48422 69.68507 9.020639 -0.009388996 0.6923918 0.7214608 0.236816 0.929199
56.5895 51.56783 -13.93998 0.006916002 -0.7550063 -0.6556813 0.236816 0.804199
27.87516 58.13335 -8.147015 -0.4037728 0.1440359 -0.9034496 0.111816 0.804199
57.48422 69.68507 9.020639 -0.009388996 0.6923918 0.7214608 0.111816 0.804199
63.53443 52.11139 -8.869132 0.3763601 -0.8505191 -0.367383 0.236816 0.929199
72.68489 49.93275 -0.266371 0.635284 -0.769212 -0.068754 0.111816 0.804199
72.33119 65.1816 2.576935 0.8311951 0.4669901 0.3017201 0.236816 0.804199
57.42225 61.02513 -17.07991 0.256659 0.052705 -0.965064 0.236816 0.804199
72.30861 62.03257 -6.914163 0.7850344 0.1447561 -0.6023013 0.236816 0.929199
72.68489 49.93275 -0.266371 0.635284 -0.769212 -0.068754 0.236816 0.804199
72.33119 65.1816 2.576935 0.8311951 0.4669901 0.3017201 0.111816 0.804199
72.30861 62.03257 -6.914163 0.7850344 0.1447561 -0.6023013 0.111816 0.804199
58.20207 73.78798 -7.092888 0.13984 0.8907868 -0.4323699 0.111816 0.804199
58.20207 73.78798 -7.092888 0.13984 0.8907868 -0.4323699 0.236816 0.929199
3 3 0 2 
3 1 19 2 
3 19 3 2 
3 0 4 2 
3 4 11 2 
3 11 5 2 
3 9 1 2 
3 6 9 2 
3 7 6 2 
3 5 7 2 
3 10 8 9 
3 6 10 9 
3 8 19 9 
3 19 1 9 
3 10 6 7 
3 4 0 11 
3 14 16 7 
3 5 14 7 
3 16 10 7 
3 5 11 14 
3 11 15 14 
3 0 15 11 
3 12 17 13 
3 17 18 13 
3 13 15 12 
3 18 16 13 
3 16 14 13 
3 15 13 14 
3 16 18 10 
3 8 10 18 
3 17 8 18 
3 15 0 12 
3 8 17 19 
3 3 19 17 
3 12 3 17 
3 3 12 0 
3 27 22 20 
3 21 185 186 
3 187 188 23 
3 27 37 23 
3 26 22 24 
3 187 189 24 
3 26 190 186 
3 34 189 191 
3 34 43 24 
3 192 193 24 
3 21 194 39 
3 25 195 196 
3 197 198 196 
3 25 199 200 
3 38 35 33 
3 201 202 28 
3 203 29 28 
3 204 32 28 
3 36 205 206 
3 207 208 28 
3 36 209 28 
3 210 29 30 
3 204 31 30 
3 204 202 211 
3 212 213 206 
3 210 214 33 
3 215 216 217 
3 38 218 217 
3 36 219 217 
3 220 209 217 
3 207 213 217 
3 221 222 42 
3 223 41 33 
3 224 225 33 
3 226 227 211 
3 221 40 211 
3 203 228 211 
3 229 214 211 
3 223 40 230 
3 229 231 230 
3 229 227 42 
3 38 231 232 
3 233 222 232 
3 38 41 42 
3 44 62 45 
3 46 48 47 
3 50 51 234 
3 235 49 234 
3 236 237 238 
3 235 239 52 
3 240 51 56 
3 235 241 56 
3 53 49 56 
3 240 242 54 
3 236 49 54 
3 243 55 56 
3 57 244 45 
3 245 62 58 
3 246 244 59 
3 60 247 248 
3 60 244 61 
3 249 62 59 
3 63 250 54 
3 251 48 54 
3 236 250 47 
3 44 252 61 
3 246 253 58 
3 63 254 58 
3 64 95 92 
3 75 74 77 
3 96 74 255 
3 83 85 100 
3 93 256 100 
3 67 65 66 
3 94 257 66 
3 99 258 92 
3 70 72 68 
3 68 72 69 
3 70 71 72 
3 71 80 72 
3 72 87 69 
3 72 80 87 
3 73 259 260 
3 261 259 73 
3 91 261 73 
3 76 262 263 
3 264 265 84 
3 78 266 76 
3 266 267 76 
3 268 269 79 
3 81 268 79 
3 81 79 82 
3 270 81 82 
3 270 82 271 
3 264 84 272 
3 272 84 273 
3 274 264 272 
3 84 265 97 
3 275 276 277 
3 275 277 86 
3 278 275 86 
3 278 86 89 
3 84 97 273 
3 279 280 281 
3 282 278 89 
3 283 284 88 
3 284 285 88 
3 88 285 90 
3 285 286 90 
3 280 287 281 
3 90 286 91 
3 280 288 287 
3 288 289 287 
3 290 291 292 
3 293 290 292 
3 293 292 294 
3 295 293 294 
3 286 261 91 
3 288 296 289 
3 296 297 289 
3 98 298 299 
3 300 98 301 
3 301 98 302 
3 98 299 302 
3 300 298 98 
3 303 304 305 
3 306 307 308 
3 306 309 307 
3 310 306 308 
3 310 308 311 
3 312 310 311 
3 313 314 315 
3 304 313 315 
3 304 315 305 
3 105 101 102 
3 102 103 118 
3 103 102 101 
3 106 104 102 
3 106 102 118 
3 105 102 104 
3 106 109 104 
3 109 106 118 
3 104 111 105 
3 104 112 111 
3 112 104 109 
3 112 109 108 
3 107 109 118 
3 107 108 109 
3 114 105 111 
3 113 111 110 
3 110 111 112 
3 111 113 114 
3 115 116 121 
3 114 119 105 
3 101 105 119 
3 110 112 117 
3 108 117 112 
3 316 317 115 
3 316 115 318 
3 317 116 115 
3 115 121 318 
3 317 319 116 
3 319 123 116 
3 116 120 121 
3 116 123 120 
3 121 122 318 
3 122 320 318 
3 123 124 120 
3 121 120 122 
3 120 125 122 
3 120 124 125 
3 124 126 125 
3 122 125 320 
3 125 321 320 
3 125 126 321 
3 126 322 321 
3 136 127 138 
3 128 323 135 
3 138 323 139 
3 130 127 128 
3 129 127 131 
3 324 323 325 
3 131 323 326 
3 327 323 328 
3 133 329 132 
3 134 129 330 
3 331 332 330 
3 131 333 334 
3 324 129 137 
3 335 336 137 
3 324 130 337 
3 324 338 328 
3 339 136 340 
3 134 333 137 
3 341 144 328 
3 143 142 328 
3 342 343 328 
3 143 130 344 
3 140 343 141 
3 138 343 345 
3 342 346 139 
3 347 346 348 
3 143 144 348 
3 349 144 145 
3 350 144 137 
3 140 332 340 
3 349 351 345 
3 140 351 132 
3 133 351 137 
3 350 333 132 
3 157 146 155 
3 154 352 147 
3 158 352 157 
3 147 146 149 
3 150 146 148 
3 353 352 354 
3 355 352 150 
3 356 352 357 
3 151 358 152 
3 359 148 153 
3 359 360 361 
3 362 363 150 
3 156 148 354 
3 156 364 365 
3 366 149 354 
3 356 367 354 
3 368 155 369 
3 156 363 153 
3 356 163 370 
3 356 161 162 
3 356 371 372 
3 373 149 162 
3 160 371 159 
3 374 371 157 
3 158 375 372 
3 376 375 377 
3 376 163 162 
3 164 163 378 
3 156 163 379 
3 368 360 159 
3 374 380 378 
3 151 380 159 
3 156 380 152 
3 151 363 379 
3 167 165 168 
3 167 184 166 
3 167 168 184 
3 167 169 165 
3 167 176 169 
3 167 170 176 
3 167 166 174 
3 167 174 171 
3 167 171 172 
3 167 172 170 
3 174 173 175 
3 174 175 171 
3 174 184 173 
3 174 166 184 
3 172 171 175 
3 176 165 169 
3 172 181 179 
3 172 179 170 
3 172 175 181 
3 179 176 170 
3 179 180 176 
3 176 180 165 
3 178 182 177 
3 178 183 182 
3 177 180 178 
3 178 181 183 
3 178 179 181 
3 179 178 180 
3 175 183 181 
3 183 175 173 
3 183 173 182 
3 177 165 180 
3 184 182 173 
3 182 184 168 
3 182 168 177 
3 165 177 168 
